<?xml version="1.0" encoding="utf-8" standalone="no"?>
<!DOCTYPE svg PUBLIC "-//W3C//DTD SVG 1.1//EN"
  "http://www.w3.org/Graphics/SVG/1.1/DTD/svg11.dtd">
<svg xmlns:xlink="http://www.w3.org/1999/xlink" width="921.590378pt" height="307.866487pt" viewBox="0 0 921.590378 307.866487" xmlns="http://www.w3.org/2000/svg" version="1.1">
 <metadata>
  <rdf:RDF xmlns:dc="http://purl.org/dc/elements/1.1/" xmlns:cc="http://creativecommons.org/ns#" xmlns:rdf="http://www.w3.org/1999/02/22-rdf-syntax-ns#">
   <cc:Work>
    <dc:type rdf:resource="http://purl.org/dc/dcmitype/StillImage"/>
    <dc:date>2023-06-26T01:21:17.498060</dc:date>
    <dc:format>image/svg+xml</dc:format>
    <dc:creator>
     <cc:Agent>
      <dc:title>Matplotlib v3.7.1, https://matplotlib.org/</dc:title>
     </cc:Agent>
    </dc:creator>
   </cc:Work>
  </rdf:RDF>
 </metadata>
 <defs>
  <style type="text/css">*{stroke-linejoin: round; stroke-linecap: butt}</style>
 </defs>
 <g id="figure_1">
  <g id="patch_1">
   <path d="M 0 307.866487 
L 921.590378 307.866487 
L 921.590378 0 
L 0 0 
z
" style="fill: #ffffff"/>
  </g>
  <g id="axes_1">
   <g id="patch_2">
    <path d="M 191.368421 134.312039 
C 191.368421 121.397758 188.312099 108.664944 182.450089 97.157751 
C 176.58808 85.650557 168.085123 75.692375 157.638505 68.099824 
C 147.191887 60.507273 135.095192 55.493729 122.340408 53.470327 
C 109.585625 51.446926 96.531204 52.470531 84.247674 56.457203 
C 71.964144 60.443874 60.796712 67.281573 51.661163 76.409574 
C 42.525614 85.537575 35.678687 96.699352 31.681864 108.979583 
C 27.685041 121.259813 26.650646 134.313384 28.663505 147.069835 
C 30.676363 159.826287 35.679907 171.927122 43.263821 182.380012 
L 63.139412 167.95962 
C 57.830672 160.642597 54.328191 152.172012 52.91919 143.242496 
C 51.510189 134.31298 52.234266 125.175481 55.032042 116.57932 
C 57.829818 107.983158 62.622667 100.169915 69.017551 93.780314 
C 75.412435 87.390713 83.229638 82.604324 91.828109 79.813654 
C 100.426579 77.022984 109.564674 76.30646 118.493023 77.722841 
C 127.421371 79.139222 135.889058 82.648703 143.20169 87.963488 
C 150.514323 93.278274 156.466393 100.249002 160.569799 108.304037 
C 164.673206 116.359072 166.812632 125.272043 166.812632 134.312039 
z
" style="fill: #3182bd; stroke: #ffffff; stroke-linejoin: miter"/>
   </g>
   <g id="patch_3">
    <path d="M 43.263821 182.380012 
C 53.415916 196.372619 67.744582 206.795677 84.183333 212.145965 
C 100.622083 217.496253 118.340738 217.503575 134.783905 212.166876 
L 127.20347 188.810425 
C 115.693254 192.546115 103.290195 192.540989 91.78307 188.795787 
C 80.275945 185.050585 70.245878 177.754445 63.139412 167.95962 
z
" style="fill: #e6550d; stroke: #ffffff; stroke-linejoin: miter"/>
   </g>
   <g id="patch_4">
    <path d="M 134.783905 212.166876 
C 151.227072 206.830177 165.564349 196.418967 175.728005 182.434755 
C 185.891662 168.450544 191.368421 151.599552 191.368421 134.312039 
L 166.812632 134.312039 
C 166.812632 146.413298 162.9789 158.208992 155.864341 167.99794 
C 148.749781 177.786889 138.713687 185.074736 127.20347 188.810425 
z
" style="fill: #31a354; stroke: #ffffff; stroke-linejoin: miter"/>
   </g>
   <g id="patch_5">
    <path d="M 166.812632 134.312039 
C 166.812632 121.600482 162.582459 109.243327 154.79237 99.198518 
C 147.00228 89.153709 136.086652 81.98135 123.775027 78.817875 
C 111.463402 75.654401 98.442282 76.676207 86.774815 81.721392 
C 75.107348 86.766577 65.444118 95.55382 59.316227 106.690814 
L 80.830325 118.528482 
C 84.331977 112.164486 89.853823 107.143204 96.520947 104.260241 
C 103.188071 101.377278 110.628711 100.793389 117.663925 102.601089 
C 124.69914 104.408788 130.936641 108.507279 135.388121 114.24717 
C 139.839601 119.987061 142.256842 127.048293 142.256842 134.312039 
z
" style="fill: #6baed6; stroke: #ffffff; stroke-linejoin: miter"/>
   </g>
   <g id="patch_6">
    <path d="M 59.316227 106.690814 
C 54.076713 116.21325 51.653279 127.032801 52.330173 137.880432 
C 53.007067 148.728063 56.756748 159.162411 63.139412 167.95962 
L 83.015002 153.539228 
C 79.367766 148.512252 77.225091 142.549767 76.838295 136.351121 
C 76.451498 130.152474 77.836317 123.969874 80.830325 118.528482 
z
" style="fill: #9ecae1; stroke: #ffffff; stroke-linejoin: miter"/>
   </g>
   <g id="patch_7">
    <path d="M 63.139412 167.95962 
C 68.092761 174.78681 74.493117 180.436726 81.88212 184.504752 
C 89.271122 188.572778 97.468073 190.95943 105.88595 191.493788 
L 107.441595 166.987324 
C 102.63138 166.681977 97.947408 165.318176 93.725121 162.99359 
C 89.502834 160.669003 85.845488 157.44048 83.015002 153.539228 
z
" style="fill: #fd8d3c; stroke: #ffffff; stroke-linejoin: miter"/>
   </g>
   <g id="patch_8">
    <path d="M 105.88595 191.493788 
C 109.483653 191.722167 113.094894 191.610501 116.671613 191.160279 
C 120.248333 190.710056 123.774594 189.923281 127.203468 188.810426 
L 119.623034 165.453975 
C 117.663678 166.089892 115.648671 166.539477 113.604832 166.796748 
C 111.560992 167.054018 109.497426 167.117826 107.441595 166.987324 
z
" style="fill: #fdae6b; stroke: #ffffff; stroke-linejoin: miter"/>
   </g>
   <g id="patch_9">
    <path d="M 127.203468 188.810426 
C 135.22632 186.206576 142.576093 181.862966 148.726435 176.090663 
C 154.876777 170.318359 159.677281 163.258525 162.784162 155.416746 
L 139.954859 146.371872 
C 138.179499 150.852888 135.436354 154.887079 131.921873 158.185539 
C 128.407391 161.483998 124.207521 163.96606 119.623034 165.453975 
z
" style="fill: #74c476; stroke: #ffffff; stroke-linejoin: miter"/>
   </g>
   <g id="patch_10">
    <path d="M 162.784162 155.416746 
C 164.112006 152.065261 165.120594 148.595927 165.796503 145.054914 
C 166.472413 141.513902 166.812631 137.916989 166.812632 134.312045 
L 142.256842 134.312043 
C 142.256842 136.372011 142.062431 138.427389 141.676197 140.450825 
C 141.289964 142.474261 140.713627 144.456738 139.954859 146.371872 
z
" style="fill: #a1d99b; stroke: #ffffff; stroke-linejoin: miter"/>
   </g>
   <g id="matplotlib.axis_1"/>
   <g id="matplotlib.axis_2"/>
   <g id="text_1">
    <!-- Train -->
    <g transform="translate(56.469957 47.538352) scale(0.1 -0.1)">
     <defs>
      <path id="DejaVuSans-54" d="M -19 4666 
L 3928 4666 
L 3928 4134 
L 2272 4134 
L 2272 0 
L 1638 0 
L 1638 4134 
L -19 4134 
L -19 4666 
z
" transform="scale(0.015625)"/>
      <path id="DejaVuSans-72" d="M 2631 2963 
Q 2534 3019 2420 3045 
Q 2306 3072 2169 3072 
Q 1681 3072 1420 2755 
Q 1159 2438 1159 1844 
L 1159 0 
L 581 0 
L 581 3500 
L 1159 3500 
L 1159 2956 
Q 1341 3275 1631 3429 
Q 1922 3584 2338 3584 
Q 2397 3584 2469 3576 
Q 2541 3569 2628 3553 
L 2631 2963 
z
" transform="scale(0.015625)"/>
      <path id="DejaVuSans-61" d="M 2194 1759 
Q 1497 1759 1228 1600 
Q 959 1441 959 1056 
Q 959 750 1161 570 
Q 1363 391 1709 391 
Q 2188 391 2477 730 
Q 2766 1069 2766 1631 
L 2766 1759 
L 2194 1759 
z
M 3341 1997 
L 3341 0 
L 2766 0 
L 2766 531 
Q 2569 213 2275 61 
Q 1981 -91 1556 -91 
Q 1019 -91 701 211 
Q 384 513 384 1019 
Q 384 1609 779 1909 
Q 1175 2209 1959 2209 
L 2766 2209 
L 2766 2266 
Q 2766 2663 2505 2880 
Q 2244 3097 1772 3097 
Q 1472 3097 1187 3025 
Q 903 2953 641 2809 
L 641 3341 
Q 956 3463 1253 3523 
Q 1550 3584 1831 3584 
Q 2591 3584 2966 3190 
Q 3341 2797 3341 1997 
z
" transform="scale(0.015625)"/>
      <path id="DejaVuSans-69" d="M 603 3500 
L 1178 3500 
L 1178 0 
L 603 0 
L 603 3500 
z
M 603 4863 
L 1178 4863 
L 1178 4134 
L 603 4134 
L 603 4863 
z
" transform="scale(0.015625)"/>
      <path id="DejaVuSans-6e" d="M 3513 2113 
L 3513 0 
L 2938 0 
L 2938 2094 
Q 2938 2591 2744 2837 
Q 2550 3084 2163 3084 
Q 1697 3084 1428 2787 
Q 1159 2491 1159 1978 
L 1159 0 
L 581 0 
L 581 3500 
L 1159 3500 
L 1159 2956 
Q 1366 3272 1645 3428 
Q 1925 3584 2291 3584 
Q 2894 3584 3203 3211 
Q 3513 2838 3513 2113 
z
" transform="scale(0.015625)"/>
     </defs>
     <use xlink:href="#DejaVuSans-54"/>
     <use xlink:href="#DejaVuSans-72" x="46.333984"/>
     <use xlink:href="#DejaVuSans-61" x="87.447266"/>
     <use xlink:href="#DejaVuSans-69" x="148.726562"/>
     <use xlink:href="#DejaVuSans-6e" x="176.509766"/>
    </g>
   </g>
   <g id="text_2">
    <!-- 60.0% -->
    <g transform="translate(72.154297 70.894803) scale(0.1 -0.1)">
     <defs>
      <path id="DejaVuSans-36" d="M 2113 2584 
Q 1688 2584 1439 2293 
Q 1191 2003 1191 1497 
Q 1191 994 1439 701 
Q 1688 409 2113 409 
Q 2538 409 2786 701 
Q 3034 994 3034 1497 
Q 3034 2003 2786 2293 
Q 2538 2584 2113 2584 
z
M 3366 4563 
L 3366 3988 
Q 3128 4100 2886 4159 
Q 2644 4219 2406 4219 
Q 1781 4219 1451 3797 
Q 1122 3375 1075 2522 
Q 1259 2794 1537 2939 
Q 1816 3084 2150 3084 
Q 2853 3084 3261 2657 
Q 3669 2231 3669 1497 
Q 3669 778 3244 343 
Q 2819 -91 2113 -91 
Q 1303 -91 875 529 
Q 447 1150 447 2328 
Q 447 3434 972 4092 
Q 1497 4750 2381 4750 
Q 2619 4750 2861 4703 
Q 3103 4656 3366 4563 
z
" transform="scale(0.015625)"/>
      <path id="DejaVuSans-30" d="M 2034 4250 
Q 1547 4250 1301 3770 
Q 1056 3291 1056 2328 
Q 1056 1369 1301 889 
Q 1547 409 2034 409 
Q 2525 409 2770 889 
Q 3016 1369 3016 2328 
Q 3016 3291 2770 3770 
Q 2525 4250 2034 4250 
z
M 2034 4750 
Q 2819 4750 3233 4129 
Q 3647 3509 3647 2328 
Q 3647 1150 3233 529 
Q 2819 -91 2034 -91 
Q 1250 -91 836 529 
Q 422 1150 422 2328 
Q 422 3509 836 4129 
Q 1250 4750 2034 4750 
z
" transform="scale(0.015625)"/>
      <path id="DejaVuSans-2e" d="M 684 794 
L 1344 794 
L 1344 0 
L 684 0 
L 684 794 
z
" transform="scale(0.015625)"/>
      <path id="DejaVuSans-25" d="M 4653 2053 
Q 4381 2053 4226 1822 
Q 4072 1591 4072 1178 
Q 4072 772 4226 539 
Q 4381 306 4653 306 
Q 4919 306 5073 539 
Q 5228 772 5228 1178 
Q 5228 1588 5073 1820 
Q 4919 2053 4653 2053 
z
M 4653 2450 
Q 5147 2450 5437 2106 
Q 5728 1763 5728 1178 
Q 5728 594 5436 251 
Q 5144 -91 4653 -91 
Q 4153 -91 3862 251 
Q 3572 594 3572 1178 
Q 3572 1766 3864 2108 
Q 4156 2450 4653 2450 
z
M 1428 4353 
Q 1159 4353 1004 4120 
Q 850 3888 850 3481 
Q 850 3069 1003 2837 
Q 1156 2606 1428 2606 
Q 1700 2606 1854 2837 
Q 2009 3069 2009 3481 
Q 2009 3884 1853 4118 
Q 1697 4353 1428 4353 
z
M 4250 4750 
L 4750 4750 
L 1831 -91 
L 1331 -91 
L 4250 4750 
z
M 1428 4750 
Q 1922 4750 2215 4408 
Q 2509 4066 2509 3481 
Q 2509 2891 2217 2550 
Q 1925 2209 1428 2209 
Q 931 2209 642 2551 
Q 353 2894 353 3481 
Q 353 4063 643 4406 
Q 934 4750 1428 4750 
z
" transform="scale(0.015625)"/>
     </defs>
     <use xlink:href="#DejaVuSans-36"/>
     <use xlink:href="#DejaVuSans-30" x="63.623047"/>
     <use xlink:href="#DejaVuSans-2e" x="127.246094"/>
     <use xlink:href="#DejaVuSans-30" x="159.033203"/>
     <use xlink:href="#DejaVuSans-25" x="222.65625"/>
    </g>
   </g>
   <g id="text_3">
    <!-- Validation -->
    <g transform="translate(31.002214 226.580429) scale(0.1 -0.1)">
     <defs>
      <path id="DejaVuSans-56" d="M 1831 0 
L 50 4666 
L 709 4666 
L 2188 738 
L 3669 4666 
L 4325 4666 
L 2547 0 
L 1831 0 
z
" transform="scale(0.015625)"/>
      <path id="DejaVuSans-6c" d="M 603 4863 
L 1178 4863 
L 1178 0 
L 603 0 
L 603 4863 
z
" transform="scale(0.015625)"/>
      <path id="DejaVuSans-64" d="M 2906 2969 
L 2906 4863 
L 3481 4863 
L 3481 0 
L 2906 0 
L 2906 525 
Q 2725 213 2448 61 
Q 2172 -91 1784 -91 
Q 1150 -91 751 415 
Q 353 922 353 1747 
Q 353 2572 751 3078 
Q 1150 3584 1784 3584 
Q 2172 3584 2448 3432 
Q 2725 3281 2906 2969 
z
M 947 1747 
Q 947 1113 1208 752 
Q 1469 391 1925 391 
Q 2381 391 2643 752 
Q 2906 1113 2906 1747 
Q 2906 2381 2643 2742 
Q 2381 3103 1925 3103 
Q 1469 3103 1208 2742 
Q 947 2381 947 1747 
z
" transform="scale(0.015625)"/>
      <path id="DejaVuSans-74" d="M 1172 4494 
L 1172 3500 
L 2356 3500 
L 2356 3053 
L 1172 3053 
L 1172 1153 
Q 1172 725 1289 603 
Q 1406 481 1766 481 
L 2356 481 
L 2356 0 
L 1766 0 
Q 1100 0 847 248 
Q 594 497 594 1153 
L 594 3053 
L 172 3053 
L 172 3500 
L 594 3500 
L 594 4494 
L 1172 4494 
z
" transform="scale(0.015625)"/>
      <path id="DejaVuSans-6f" d="M 1959 3097 
Q 1497 3097 1228 2736 
Q 959 2375 959 1747 
Q 959 1119 1226 758 
Q 1494 397 1959 397 
Q 2419 397 2687 759 
Q 2956 1122 2956 1747 
Q 2956 2369 2687 2733 
Q 2419 3097 1959 3097 
z
M 1959 3584 
Q 2709 3584 3137 3096 
Q 3566 2609 3566 1747 
Q 3566 888 3137 398 
Q 2709 -91 1959 -91 
Q 1206 -91 779 398 
Q 353 888 353 1747 
Q 353 2609 779 3096 
Q 1206 3584 1959 3584 
z
" transform="scale(0.015625)"/>
     </defs>
     <use xlink:href="#DejaVuSans-56"/>
     <use xlink:href="#DejaVuSans-61" x="60.658203"/>
     <use xlink:href="#DejaVuSans-6c" x="121.9375"/>
     <use xlink:href="#DejaVuSans-69" x="149.720703"/>
     <use xlink:href="#DejaVuSans-64" x="177.503906"/>
     <use xlink:href="#DejaVuSans-61" x="240.980469"/>
     <use xlink:href="#DejaVuSans-74" x="302.259766"/>
     <use xlink:href="#DejaVuSans-69" x="341.46875"/>
     <use xlink:href="#DejaVuSans-6f" x="369.251953"/>
     <use xlink:href="#DejaVuSans-6e" x="430.433594"/>
    </g>
   </g>
   <g id="text_4">
    <!-- 20.0% -->
    <g transform="translate(72.099607 203.230251) scale(0.1 -0.1)">
     <defs>
      <path id="DejaVuSans-32" d="M 1228 531 
L 3431 531 
L 3431 0 
L 469 0 
L 469 531 
Q 828 903 1448 1529 
Q 2069 2156 2228 2338 
Q 2531 2678 2651 2914 
Q 2772 3150 2772 3378 
Q 2772 3750 2511 3984 
Q 2250 4219 1831 4219 
Q 1534 4219 1204 4116 
Q 875 4013 500 3803 
L 500 4441 
Q 881 4594 1212 4672 
Q 1544 4750 1819 4750 
Q 2544 4750 2975 4387 
Q 3406 4025 3406 3419 
Q 3406 3131 3298 2873 
Q 3191 2616 2906 2266 
Q 2828 2175 2409 1742 
Q 1991 1309 1228 531 
z
" transform="scale(0.015625)"/>
     </defs>
     <use xlink:href="#DejaVuSans-32"/>
     <use xlink:href="#DejaVuSans-30" x="63.623047"/>
     <use xlink:href="#DejaVuSans-2e" x="127.246094"/>
     <use xlink:href="#DejaVuSans-30" x="159.033203"/>
     <use xlink:href="#DejaVuSans-25" x="222.65625"/>
    </g>
   </g>
   <g id="text_5">
    <!-- Test -->
    <g transform="translate(185.659838 192.412538) scale(0.1 -0.1)">
     <defs>
      <path id="DejaVuSans-65" d="M 3597 1894 
L 3597 1613 
L 953 1613 
Q 991 1019 1311 708 
Q 1631 397 2203 397 
Q 2534 397 2845 478 
Q 3156 559 3463 722 
L 3463 178 
Q 3153 47 2828 -22 
Q 2503 -91 2169 -91 
Q 1331 -91 842 396 
Q 353 884 353 1716 
Q 353 2575 817 3079 
Q 1281 3584 2069 3584 
Q 2775 3584 3186 3129 
Q 3597 2675 3597 1894 
z
M 3022 2063 
Q 3016 2534 2758 2815 
Q 2500 3097 2075 3097 
Q 1594 3097 1305 2825 
Q 1016 2553 972 2059 
L 3022 2063 
z
" transform="scale(0.015625)"/>
      <path id="DejaVuSans-73" d="M 2834 3397 
L 2834 2853 
Q 2591 2978 2328 3040 
Q 2066 3103 1784 3103 
Q 1356 3103 1142 2972 
Q 928 2841 928 2578 
Q 928 2378 1081 2264 
Q 1234 2150 1697 2047 
L 1894 2003 
Q 2506 1872 2764 1633 
Q 3022 1394 3022 966 
Q 3022 478 2636 193 
Q 2250 -91 1575 -91 
Q 1294 -91 989 -36 
Q 684 19 347 128 
L 347 722 
Q 666 556 975 473 
Q 1284 391 1588 391 
Q 1994 391 2212 530 
Q 2431 669 2431 922 
Q 2431 1156 2273 1281 
Q 2116 1406 1581 1522 
L 1381 1569 
Q 847 1681 609 1914 
Q 372 2147 372 2553 
Q 372 3047 722 3315 
Q 1072 3584 1716 3584 
Q 2034 3584 2315 3537 
Q 2597 3491 2834 3397 
z
" transform="scale(0.015625)"/>
     </defs>
     <use xlink:href="#DejaVuSans-54"/>
     <use xlink:href="#DejaVuSans-65" x="44.083984"/>
     <use xlink:href="#DejaVuSans-73" x="105.607422"/>
     <use xlink:href="#DejaVuSans-74" x="157.707031"/>
    </g>
   </g>
   <g id="text_6">
    <!-- 20.0% -->
    <g transform="translate(149.912579 177.975723) scale(0.1 -0.1)">
     <use xlink:href="#DejaVuSans-32"/>
     <use xlink:href="#DejaVuSans-30" x="63.623047"/>
     <use xlink:href="#DejaVuSans-2e" x="127.246094"/>
     <use xlink:href="#DejaVuSans-30" x="159.033203"/>
     <use xlink:href="#DejaVuSans-25" x="222.65625"/>
    </g>
   </g>
   <g id="text_7">
    <g id="patch_11">
     <path d="M 44.033684 303.066487 
L 163.131184 303.066487 
Q 165.531184 303.066487 165.531184 300.666487 
L 165.531184 257.090987 
Q 165.531184 254.690987 163.131184 254.690987 
L 44.033684 254.690987 
Q 41.633684 254.690987 41.633684 257.090987 
L 41.633684 300.666487 
Q 41.633684 303.066487 44.033684 303.066487 
z
" style="fill: #f5deb3; opacity: 0.5; stroke: #000000; stroke-linejoin: miter"/>
    </g>
    <!--        Masked  Unmasked  Total -->
    <g transform="translate(44.033684 263.169737) scale(0.08 -0.08)">
     <defs>
      <path id="DejaVuSans-20" transform="scale(0.015625)"/>
      <path id="DejaVuSans-4d" d="M 628 4666 
L 1569 4666 
L 2759 1491 
L 3956 4666 
L 4897 4666 
L 4897 0 
L 4281 0 
L 4281 4097 
L 3078 897 
L 2444 897 
L 1241 4097 
L 1241 0 
L 628 0 
L 628 4666 
z
" transform="scale(0.015625)"/>
      <path id="DejaVuSans-6b" d="M 581 4863 
L 1159 4863 
L 1159 1991 
L 2875 3500 
L 3609 3500 
L 1753 1863 
L 3688 0 
L 2938 0 
L 1159 1709 
L 1159 0 
L 581 0 
L 581 4863 
z
" transform="scale(0.015625)"/>
      <path id="DejaVuSans-55" d="M 556 4666 
L 1191 4666 
L 1191 1831 
Q 1191 1081 1462 751 
Q 1734 422 2344 422 
Q 2950 422 3222 751 
Q 3494 1081 3494 1831 
L 3494 4666 
L 4128 4666 
L 4128 1753 
Q 4128 841 3676 375 
Q 3225 -91 2344 -91 
Q 1459 -91 1007 375 
Q 556 841 556 1753 
L 556 4666 
z
" transform="scale(0.015625)"/>
      <path id="DejaVuSans-6d" d="M 3328 2828 
Q 3544 3216 3844 3400 
Q 4144 3584 4550 3584 
Q 5097 3584 5394 3201 
Q 5691 2819 5691 2113 
L 5691 0 
L 5113 0 
L 5113 2094 
Q 5113 2597 4934 2840 
Q 4756 3084 4391 3084 
Q 3944 3084 3684 2787 
Q 3425 2491 3425 1978 
L 3425 0 
L 2847 0 
L 2847 2094 
Q 2847 2600 2669 2842 
Q 2491 3084 2119 3084 
Q 1678 3084 1418 2786 
Q 1159 2488 1159 1978 
L 1159 0 
L 581 0 
L 581 3500 
L 1159 3500 
L 1159 2956 
Q 1356 3278 1631 3431 
Q 1906 3584 2284 3584 
Q 2666 3584 2933 3390 
Q 3200 3197 3328 2828 
z
" transform="scale(0.015625)"/>
     </defs>
     <use xlink:href="#DejaVuSans-20"/>
     <use xlink:href="#DejaVuSans-20" x="31.787109"/>
     <use xlink:href="#DejaVuSans-20" x="63.574219"/>
     <use xlink:href="#DejaVuSans-20" x="95.361328"/>
     <use xlink:href="#DejaVuSans-20" x="127.148438"/>
     <use xlink:href="#DejaVuSans-20" x="158.935547"/>
     <use xlink:href="#DejaVuSans-20" x="190.722656"/>
     <use xlink:href="#DejaVuSans-4d" x="222.509766"/>
     <use xlink:href="#DejaVuSans-61" x="308.789062"/>
     <use xlink:href="#DejaVuSans-73" x="370.068359"/>
     <use xlink:href="#DejaVuSans-6b" x="422.167969"/>
     <use xlink:href="#DejaVuSans-65" x="476.453125"/>
     <use xlink:href="#DejaVuSans-64" x="537.976562"/>
     <use xlink:href="#DejaVuSans-20" x="601.453125"/>
     <use xlink:href="#DejaVuSans-20" x="633.240234"/>
     <use xlink:href="#DejaVuSans-55" x="665.027344"/>
     <use xlink:href="#DejaVuSans-6e" x="738.220703"/>
     <use xlink:href="#DejaVuSans-6d" x="801.599609"/>
     <use xlink:href="#DejaVuSans-61" x="899.011719"/>
     <use xlink:href="#DejaVuSans-73" x="960.291016"/>
     <use xlink:href="#DejaVuSans-6b" x="1012.390625"/>
     <use xlink:href="#DejaVuSans-65" x="1066.675781"/>
     <use xlink:href="#DejaVuSans-64" x="1128.199219"/>
     <use xlink:href="#DejaVuSans-20" x="1191.675781"/>
     <use xlink:href="#DejaVuSans-20" x="1223.462891"/>
     <use xlink:href="#DejaVuSans-54" x="1255.25"/>
     <use xlink:href="#DejaVuSans-6f" x="1299.333984"/>
     <use xlink:href="#DejaVuSans-74" x="1360.515625"/>
     <use xlink:href="#DejaVuSans-61" x="1399.724609"/>
     <use xlink:href="#DejaVuSans-6c" x="1461.003906"/>
    </g>
    <!-- Train    7981      3420  11401 -->
    <g transform="translate(44.033684 272.127987) scale(0.08 -0.08)">
     <defs>
      <path id="DejaVuSans-37" d="M 525 4666 
L 3525 4666 
L 3525 4397 
L 1831 0 
L 1172 0 
L 2766 4134 
L 525 4134 
L 525 4666 
z
" transform="scale(0.015625)"/>
      <path id="DejaVuSans-39" d="M 703 97 
L 703 672 
Q 941 559 1184 500 
Q 1428 441 1663 441 
Q 2288 441 2617 861 
Q 2947 1281 2994 2138 
Q 2813 1869 2534 1725 
Q 2256 1581 1919 1581 
Q 1219 1581 811 2004 
Q 403 2428 403 3163 
Q 403 3881 828 4315 
Q 1253 4750 1959 4750 
Q 2769 4750 3195 4129 
Q 3622 3509 3622 2328 
Q 3622 1225 3098 567 
Q 2575 -91 1691 -91 
Q 1453 -91 1209 -44 
Q 966 3 703 97 
z
M 1959 2075 
Q 2384 2075 2632 2365 
Q 2881 2656 2881 3163 
Q 2881 3666 2632 3958 
Q 2384 4250 1959 4250 
Q 1534 4250 1286 3958 
Q 1038 3666 1038 3163 
Q 1038 2656 1286 2365 
Q 1534 2075 1959 2075 
z
" transform="scale(0.015625)"/>
      <path id="DejaVuSans-38" d="M 2034 2216 
Q 1584 2216 1326 1975 
Q 1069 1734 1069 1313 
Q 1069 891 1326 650 
Q 1584 409 2034 409 
Q 2484 409 2743 651 
Q 3003 894 3003 1313 
Q 3003 1734 2745 1975 
Q 2488 2216 2034 2216 
z
M 1403 2484 
Q 997 2584 770 2862 
Q 544 3141 544 3541 
Q 544 4100 942 4425 
Q 1341 4750 2034 4750 
Q 2731 4750 3128 4425 
Q 3525 4100 3525 3541 
Q 3525 3141 3298 2862 
Q 3072 2584 2669 2484 
Q 3125 2378 3379 2068 
Q 3634 1759 3634 1313 
Q 3634 634 3220 271 
Q 2806 -91 2034 -91 
Q 1263 -91 848 271 
Q 434 634 434 1313 
Q 434 1759 690 2068 
Q 947 2378 1403 2484 
z
M 1172 3481 
Q 1172 3119 1398 2916 
Q 1625 2713 2034 2713 
Q 2441 2713 2670 2916 
Q 2900 3119 2900 3481 
Q 2900 3844 2670 4047 
Q 2441 4250 2034 4250 
Q 1625 4250 1398 4047 
Q 1172 3844 1172 3481 
z
" transform="scale(0.015625)"/>
      <path id="DejaVuSans-31" d="M 794 531 
L 1825 531 
L 1825 4091 
L 703 3866 
L 703 4441 
L 1819 4666 
L 2450 4666 
L 2450 531 
L 3481 531 
L 3481 0 
L 794 0 
L 794 531 
z
" transform="scale(0.015625)"/>
      <path id="DejaVuSans-33" d="M 2597 2516 
Q 3050 2419 3304 2112 
Q 3559 1806 3559 1356 
Q 3559 666 3084 287 
Q 2609 -91 1734 -91 
Q 1441 -91 1130 -33 
Q 819 25 488 141 
L 488 750 
Q 750 597 1062 519 
Q 1375 441 1716 441 
Q 2309 441 2620 675 
Q 2931 909 2931 1356 
Q 2931 1769 2642 2001 
Q 2353 2234 1838 2234 
L 1294 2234 
L 1294 2753 
L 1863 2753 
Q 2328 2753 2575 2939 
Q 2822 3125 2822 3475 
Q 2822 3834 2567 4026 
Q 2313 4219 1838 4219 
Q 1578 4219 1281 4162 
Q 984 4106 628 3988 
L 628 4550 
Q 988 4650 1302 4700 
Q 1616 4750 1894 4750 
Q 2613 4750 3031 4423 
Q 3450 4097 3450 3541 
Q 3450 3153 3228 2886 
Q 3006 2619 2597 2516 
z
" transform="scale(0.015625)"/>
      <path id="DejaVuSans-34" d="M 2419 4116 
L 825 1625 
L 2419 1625 
L 2419 4116 
z
M 2253 4666 
L 3047 4666 
L 3047 1625 
L 3713 1625 
L 3713 1100 
L 3047 1100 
L 3047 0 
L 2419 0 
L 2419 1100 
L 313 1100 
L 313 1709 
L 2253 4666 
z
" transform="scale(0.015625)"/>
     </defs>
     <use xlink:href="#DejaVuSans-54"/>
     <use xlink:href="#DejaVuSans-72" x="46.333984"/>
     <use xlink:href="#DejaVuSans-61" x="87.447266"/>
     <use xlink:href="#DejaVuSans-69" x="148.726562"/>
     <use xlink:href="#DejaVuSans-6e" x="176.509766"/>
     <use xlink:href="#DejaVuSans-20" x="239.888672"/>
     <use xlink:href="#DejaVuSans-20" x="271.675781"/>
     <use xlink:href="#DejaVuSans-20" x="303.462891"/>
     <use xlink:href="#DejaVuSans-20" x="335.25"/>
     <use xlink:href="#DejaVuSans-37" x="367.037109"/>
     <use xlink:href="#DejaVuSans-39" x="430.660156"/>
     <use xlink:href="#DejaVuSans-38" x="494.283203"/>
     <use xlink:href="#DejaVuSans-31" x="557.90625"/>
     <use xlink:href="#DejaVuSans-20" x="621.529297"/>
     <use xlink:href="#DejaVuSans-20" x="653.316406"/>
     <use xlink:href="#DejaVuSans-20" x="685.103516"/>
     <use xlink:href="#DejaVuSans-20" x="716.890625"/>
     <use xlink:href="#DejaVuSans-20" x="748.677734"/>
     <use xlink:href="#DejaVuSans-20" x="780.464844"/>
     <use xlink:href="#DejaVuSans-33" x="812.251953"/>
     <use xlink:href="#DejaVuSans-34" x="875.875"/>
     <use xlink:href="#DejaVuSans-32" x="939.498047"/>
     <use xlink:href="#DejaVuSans-30" x="1003.121094"/>
     <use xlink:href="#DejaVuSans-20" x="1066.744141"/>
     <use xlink:href="#DejaVuSans-20" x="1098.53125"/>
     <use xlink:href="#DejaVuSans-31" x="1130.318359"/>
     <use xlink:href="#DejaVuSans-31" x="1193.941406"/>
     <use xlink:href="#DejaVuSans-34" x="1257.564453"/>
     <use xlink:href="#DejaVuSans-30" x="1321.1875"/>
     <use xlink:href="#DejaVuSans-31" x="1384.810547"/>
    </g>
    <!-- Val      2661      1141   3802 -->
    <g transform="translate(44.033684 281.086237) scale(0.08 -0.08)">
     <use xlink:href="#DejaVuSans-56"/>
     <use xlink:href="#DejaVuSans-61" x="60.658203"/>
     <use xlink:href="#DejaVuSans-6c" x="121.9375"/>
     <use xlink:href="#DejaVuSans-20" x="149.720703"/>
     <use xlink:href="#DejaVuSans-20" x="181.507812"/>
     <use xlink:href="#DejaVuSans-20" x="213.294922"/>
     <use xlink:href="#DejaVuSans-20" x="245.082031"/>
     <use xlink:href="#DejaVuSans-20" x="276.869141"/>
     <use xlink:href="#DejaVuSans-20" x="308.65625"/>
     <use xlink:href="#DejaVuSans-32" x="340.443359"/>
     <use xlink:href="#DejaVuSans-36" x="404.066406"/>
     <use xlink:href="#DejaVuSans-36" x="467.689453"/>
     <use xlink:href="#DejaVuSans-31" x="531.3125"/>
     <use xlink:href="#DejaVuSans-20" x="594.935547"/>
     <use xlink:href="#DejaVuSans-20" x="626.722656"/>
     <use xlink:href="#DejaVuSans-20" x="658.509766"/>
     <use xlink:href="#DejaVuSans-20" x="690.296875"/>
     <use xlink:href="#DejaVuSans-20" x="722.083984"/>
     <use xlink:href="#DejaVuSans-20" x="753.871094"/>
     <use xlink:href="#DejaVuSans-31" x="785.658203"/>
     <use xlink:href="#DejaVuSans-31" x="849.28125"/>
     <use xlink:href="#DejaVuSans-34" x="912.904297"/>
     <use xlink:href="#DejaVuSans-31" x="976.527344"/>
     <use xlink:href="#DejaVuSans-20" x="1040.150391"/>
     <use xlink:href="#DejaVuSans-20" x="1071.9375"/>
     <use xlink:href="#DejaVuSans-20" x="1103.724609"/>
     <use xlink:href="#DejaVuSans-33" x="1135.511719"/>
     <use xlink:href="#DejaVuSans-38" x="1199.134766"/>
     <use xlink:href="#DejaVuSans-30" x="1262.757812"/>
     <use xlink:href="#DejaVuSans-32" x="1326.380859"/>
    </g>
    <!-- Test     2661      1141   3802 -->
    <g transform="translate(44.033684 290.044487) scale(0.08 -0.08)">
     <use xlink:href="#DejaVuSans-54"/>
     <use xlink:href="#DejaVuSans-65" x="44.083984"/>
     <use xlink:href="#DejaVuSans-73" x="105.607422"/>
     <use xlink:href="#DejaVuSans-74" x="157.707031"/>
     <use xlink:href="#DejaVuSans-20" x="196.916016"/>
     <use xlink:href="#DejaVuSans-20" x="228.703125"/>
     <use xlink:href="#DejaVuSans-20" x="260.490234"/>
     <use xlink:href="#DejaVuSans-20" x="292.277344"/>
     <use xlink:href="#DejaVuSans-20" x="324.064453"/>
     <use xlink:href="#DejaVuSans-32" x="355.851562"/>
     <use xlink:href="#DejaVuSans-36" x="419.474609"/>
     <use xlink:href="#DejaVuSans-36" x="483.097656"/>
     <use xlink:href="#DejaVuSans-31" x="546.720703"/>
     <use xlink:href="#DejaVuSans-20" x="610.34375"/>
     <use xlink:href="#DejaVuSans-20" x="642.130859"/>
     <use xlink:href="#DejaVuSans-20" x="673.917969"/>
     <use xlink:href="#DejaVuSans-20" x="705.705078"/>
     <use xlink:href="#DejaVuSans-20" x="737.492188"/>
     <use xlink:href="#DejaVuSans-20" x="769.279297"/>
     <use xlink:href="#DejaVuSans-31" x="801.066406"/>
     <use xlink:href="#DejaVuSans-31" x="864.689453"/>
     <use xlink:href="#DejaVuSans-34" x="928.3125"/>
     <use xlink:href="#DejaVuSans-31" x="991.935547"/>
     <use xlink:href="#DejaVuSans-20" x="1055.558594"/>
     <use xlink:href="#DejaVuSans-20" x="1087.345703"/>
     <use xlink:href="#DejaVuSans-20" x="1119.132812"/>
     <use xlink:href="#DejaVuSans-33" x="1150.919922"/>
     <use xlink:href="#DejaVuSans-38" x="1214.542969"/>
     <use xlink:href="#DejaVuSans-30" x="1278.166016"/>
     <use xlink:href="#DejaVuSans-32" x="1341.789062"/>
    </g>
    <!-- Total   13303      5702  19005 -->
    <g transform="translate(44.033684 299.002737) scale(0.08 -0.08)">
     <defs>
      <path id="DejaVuSans-35" d="M 691 4666 
L 3169 4666 
L 3169 4134 
L 1269 4134 
L 1269 2991 
Q 1406 3038 1543 3061 
Q 1681 3084 1819 3084 
Q 2600 3084 3056 2656 
Q 3513 2228 3513 1497 
Q 3513 744 3044 326 
Q 2575 -91 1722 -91 
Q 1428 -91 1123 -41 
Q 819 9 494 109 
L 494 744 
Q 775 591 1075 516 
Q 1375 441 1709 441 
Q 2250 441 2565 725 
Q 2881 1009 2881 1497 
Q 2881 1984 2565 2268 
Q 2250 2553 1709 2553 
Q 1456 2553 1204 2497 
Q 953 2441 691 2322 
L 691 4666 
z
" transform="scale(0.015625)"/>
     </defs>
     <use xlink:href="#DejaVuSans-54"/>
     <use xlink:href="#DejaVuSans-6f" x="44.083984"/>
     <use xlink:href="#DejaVuSans-74" x="105.265625"/>
     <use xlink:href="#DejaVuSans-61" x="144.474609"/>
     <use xlink:href="#DejaVuSans-6c" x="205.753906"/>
     <use xlink:href="#DejaVuSans-20" x="233.537109"/>
     <use xlink:href="#DejaVuSans-20" x="265.324219"/>
     <use xlink:href="#DejaVuSans-20" x="297.111328"/>
     <use xlink:href="#DejaVuSans-31" x="328.898438"/>
     <use xlink:href="#DejaVuSans-33" x="392.521484"/>
     <use xlink:href="#DejaVuSans-33" x="456.144531"/>
     <use xlink:href="#DejaVuSans-30" x="519.767578"/>
     <use xlink:href="#DejaVuSans-33" x="583.390625"/>
     <use xlink:href="#DejaVuSans-20" x="647.013672"/>
     <use xlink:href="#DejaVuSans-20" x="678.800781"/>
     <use xlink:href="#DejaVuSans-20" x="710.587891"/>
     <use xlink:href="#DejaVuSans-20" x="742.375"/>
     <use xlink:href="#DejaVuSans-20" x="774.162109"/>
     <use xlink:href="#DejaVuSans-20" x="805.949219"/>
     <use xlink:href="#DejaVuSans-35" x="837.736328"/>
     <use xlink:href="#DejaVuSans-37" x="901.359375"/>
     <use xlink:href="#DejaVuSans-30" x="964.982422"/>
     <use xlink:href="#DejaVuSans-32" x="1028.605469"/>
     <use xlink:href="#DejaVuSans-20" x="1092.228516"/>
     <use xlink:href="#DejaVuSans-20" x="1124.015625"/>
     <use xlink:href="#DejaVuSans-31" x="1155.802734"/>
     <use xlink:href="#DejaVuSans-39" x="1219.425781"/>
     <use xlink:href="#DejaVuSans-30" x="1283.048828"/>
     <use xlink:href="#DejaVuSans-30" x="1346.671875"/>
     <use xlink:href="#DejaVuSans-35" x="1410.294922"/>
    </g>
   </g>
   <g id="text_8">
    <!-- Masked: 70 % -->
    <g transform="translate(74.592352 14.798437) scale(0.1 -0.1)">
     <defs>
      <path id="DejaVuSans-3a" d="M 750 794 
L 1409 794 
L 1409 0 
L 750 0 
L 750 794 
z
M 750 3309 
L 1409 3309 
L 1409 2516 
L 750 2516 
L 750 3309 
z
" transform="scale(0.015625)"/>
     </defs>
     <use xlink:href="#DejaVuSans-4d"/>
     <use xlink:href="#DejaVuSans-61" x="86.279297"/>
     <use xlink:href="#DejaVuSans-73" x="147.558594"/>
     <use xlink:href="#DejaVuSans-6b" x="199.658203"/>
     <use xlink:href="#DejaVuSans-65" x="253.943359"/>
     <use xlink:href="#DejaVuSans-64" x="315.466797"/>
     <use xlink:href="#DejaVuSans-3a" x="378.943359"/>
     <use xlink:href="#DejaVuSans-20" x="412.634766"/>
     <use xlink:href="#DejaVuSans-37" x="444.421875"/>
     <use xlink:href="#DejaVuSans-30" x="508.044922"/>
     <use xlink:href="#DejaVuSans-20" x="571.667969"/>
     <use xlink:href="#DejaVuSans-25" x="603.455078"/>
    </g>
    <!-- Unmasked: 30 % -->
    <g transform="translate(67.207977 25.99625) scale(0.1 -0.1)">
     <use xlink:href="#DejaVuSans-55"/>
     <use xlink:href="#DejaVuSans-6e" x="73.193359"/>
     <use xlink:href="#DejaVuSans-6d" x="136.572266"/>
     <use xlink:href="#DejaVuSans-61" x="233.984375"/>
     <use xlink:href="#DejaVuSans-73" x="295.263672"/>
     <use xlink:href="#DejaVuSans-6b" x="347.363281"/>
     <use xlink:href="#DejaVuSans-65" x="401.648438"/>
     <use xlink:href="#DejaVuSans-64" x="463.171875"/>
     <use xlink:href="#DejaVuSans-3a" x="526.648438"/>
     <use xlink:href="#DejaVuSans-20" x="560.339844"/>
     <use xlink:href="#DejaVuSans-33" x="592.126953"/>
     <use xlink:href="#DejaVuSans-30" x="655.75"/>
     <use xlink:href="#DejaVuSans-20" x="719.373047"/>
     <use xlink:href="#DejaVuSans-25" x="751.160156"/>
    </g>
   </g>
  </g>
  <g id="axes_2">
   <g id="patch_12">
    <path d="M 477.852632 134.312039 
C 477.852632 121.397301 474.796093 108.664049 468.933686 97.156545 
C 463.071278 85.649042 454.567766 75.690708 444.120527 68.098233 
C 433.673289 60.505759 421.575946 55.492532 408.820611 53.469691 
C 396.065276 51.446851 383.010439 52.471248 370.726738 56.458873 
C 358.443037 60.446497 347.275707 67.285276 338.140589 76.414355 
C 329.005472 85.543434 322.15931 96.706239 318.163563 108.9873 
C 314.167817 121.268361 313.134786 134.322518 315.149192 147.079188 
C 317.163597 159.835858 322.168823 171.936513 329.754387 182.38877 
L 349.628071 167.965751 
C 344.318176 160.649171 340.814518 152.178712 339.404434 143.249043 
C 337.99435 134.319374 338.717472 125.181465 341.514494 116.584722 
C 344.311517 107.987979 349.10383 100.174015 355.498413 93.78366 
C 361.892995 87.393305 369.710126 82.60616 378.308717 79.814823 
C 386.907307 77.023486 396.045693 76.306407 404.974428 77.722396 
C 413.903162 79.138384 422.371302 82.647643 429.684369 87.962375 
C 436.997436 93.277107 442.949895 100.247941 447.05358 108.303194 
C 451.157265 116.358446 453.296842 125.271723 453.296842 134.312039 
z
" style="fill: #3182bd; stroke: #ffffff; stroke-linejoin: miter"/>
   </g>
   <g id="patch_13">
    <path d="M 329.754387 182.38877 
C 339.906238 196.377151 354.232521 206.796975 370.667907 212.146083 
C 387.103294 217.495192 404.81812 217.503559 421.258552 212.16998 
L 413.680986 188.812598 
C 402.172684 192.546103 389.772306 192.540246 378.267535 188.79587 
C 366.762765 185.051494 356.734367 177.757617 349.628071 167.965751 
z
" style="fill: #e6550d; stroke: #ffffff; stroke-linejoin: miter"/>
   </g>
   <g id="patch_14">
    <path d="M 421.258552 212.16998 
C 437.704007 206.834771 452.043735 196.423797 462.20926 182.438822 
C 472.374785 168.453846 477.852632 151.601269 477.852632 134.312039 
L 453.296842 134.312039 
C 453.296842 146.4145 449.462349 158.211304 442.346482 168.000787 
C 435.230615 177.79027 425.192805 185.077951 413.680986 188.812598 
z
" style="fill: #31a354; stroke: #ffffff; stroke-linejoin: miter"/>
   </g>
   <g id="patch_15">
    <path d="M 453.296842 134.312039 
C 453.296842 119.745216 447.741763 105.712906 437.771009 95.093282 
C 427.800255 84.473658 414.145557 78.046071 399.607637 77.128886 
C 385.069717 76.211701 370.71548 80.872228 359.489129 90.154544 
C 348.262779 99.43686 340.988191 112.659757 339.15746 127.111082 
L 363.518549 130.197206 
C 364.564681 121.939307 368.721588 114.383365 375.136645 109.079185 
C 381.551703 103.775004 389.754124 101.111846 398.061507 101.635952 
C 406.36889 102.160057 414.171574 105.832964 419.869148 111.901321 
C 425.566721 117.969677 428.741053 125.98814 428.741053 134.312039 
z
" style="fill: #6baed6; stroke: #ffffff; stroke-linejoin: miter"/>
   </g>
   <g id="patch_16">
    <path d="M 339.15746 127.111082 
C 338.25011 134.273475 338.704618 141.543254 340.497004 148.536859 
C 342.289389 155.530465 345.387566 162.1227 349.628072 167.965753 
L 369.501756 153.542733 
C 367.078609 150.203845 365.308222 146.436854 364.284002 142.440508 
C 363.259782 138.444162 363.000063 134.290003 363.518549 130.197206 
z
" style="fill: #9ecae1; stroke: #ffffff; stroke-linejoin: miter"/>
   </g>
   <g id="patch_17">
    <path d="M 349.628072 167.965753 
C 355.297093 175.777176 362.849033 182.030984 371.580295 186.144521 
C 380.311557 190.258058 389.942293 192.099481 399.575227 191.497229 
L 398.042987 166.98929 
C 392.538453 167.333435 387.035176 166.281193 382.045883 163.9306 
C 377.05659 161.580008 372.741196 158.006403 369.501756 153.542733 
z
" style="fill: #fd8d3c; stroke: #ffffff; stroke-linejoin: miter"/>
   </g>
   <g id="patch_18">
    <path d="M 399.575227 191.497229 
C 401.970806 191.347457 404.354607 191.047301 406.712538 190.598536 
C 409.070469 190.14977 411.397873 189.553282 413.680988 188.812597 
L 406.103421 165.455215 
C 404.798784 165.878464 403.468839 166.219314 402.12145 166.475752 
C 400.774061 166.732189 399.411889 166.903706 398.042987 166.98929 
z
" style="fill: #fdae6b; stroke: #ffffff; stroke-linejoin: miter"/>
   </g>
   <g id="patch_19">
    <path d="M 413.680988 188.812597 
C 422.861691 185.834207 431.142697 180.583792 437.75248 173.550522 
C 444.362264 166.517252 449.088973 157.926552 451.492231 148.578799 
L 427.709846 142.464474 
C 426.336556 147.806047 423.635579 152.715018 419.85856 156.73403 
C 416.081541 160.753041 411.349538 163.753278 406.103421 165.455215 
z
" style="fill: #74c476; stroke: #ffffff; stroke-linejoin: miter"/>
   </g>
   <g id="patch_20">
    <path d="M 451.492231 148.578799 
C 452.090787 146.250643 452.542236 143.887125 452.843899 141.50226 
C 453.145562 139.117396 453.296842 136.715909 453.296842 134.312041 
L 428.741053 134.31204 
C 428.741053 135.685679 428.654607 137.057957 428.482228 138.420737 
C 428.309849 139.783517 428.051879 141.134099 427.709846 142.464474 
z
" style="fill: #a1d99b; stroke: #ffffff; stroke-linejoin: miter"/>
   </g>
   <g id="matplotlib.axis_3"/>
   <g id="matplotlib.axis_4"/>
   <g id="text_9">
    <!-- Train -->
    <g transform="translate(342.948249 47.540273) scale(0.1 -0.1)">
     <use xlink:href="#DejaVuSans-54"/>
     <use xlink:href="#DejaVuSans-72" x="46.333984"/>
     <use xlink:href="#DejaVuSans-61" x="87.447266"/>
     <use xlink:href="#DejaVuSans-69" x="148.726562"/>
     <use xlink:href="#DejaVuSans-6e" x="176.509766"/>
    </g>
   </g>
   <g id="text_10">
    <!-- 60.0% -->
    <g transform="translate(358.634134 70.896223) scale(0.1 -0.1)">
     <use xlink:href="#DejaVuSans-36"/>
     <use xlink:href="#DejaVuSans-30" x="63.623047"/>
     <use xlink:href="#DejaVuSans-2e" x="127.246094"/>
     <use xlink:href="#DejaVuSans-30" x="159.033203"/>
     <use xlink:href="#DejaVuSans-25" x="222.65625"/>
    </g>
   </g>
   <g id="text_11">
    <!-- Validation -->
    <g transform="translate(317.486844 226.580565) scale(0.1 -0.1)">
     <use xlink:href="#DejaVuSans-56"/>
     <use xlink:href="#DejaVuSans-61" x="60.658203"/>
     <use xlink:href="#DejaVuSans-6c" x="121.9375"/>
     <use xlink:href="#DejaVuSans-69" x="149.720703"/>
     <use xlink:href="#DejaVuSans-64" x="177.503906"/>
     <use xlink:href="#DejaVuSans-61" x="240.980469"/>
     <use xlink:href="#DejaVuSans-74" x="302.259766"/>
     <use xlink:href="#DejaVuSans-69" x="341.46875"/>
     <use xlink:href="#DejaVuSans-6f" x="369.251953"/>
     <use xlink:href="#DejaVuSans-6e" x="430.433594"/>
    </g>
   </g>
   <g id="text_12">
    <!-- 20.0% -->
    <g transform="translate(358.584128 203.230352) scale(0.1 -0.1)">
     <use xlink:href="#DejaVuSans-32"/>
     <use xlink:href="#DejaVuSans-30" x="63.623047"/>
     <use xlink:href="#DejaVuSans-2e" x="127.246094"/>
     <use xlink:href="#DejaVuSans-30" x="159.033203"/>
     <use xlink:href="#DejaVuSans-25" x="222.65625"/>
    </g>
   </g>
   <g id="text_13">
    <!-- Test -->
    <g transform="translate(472.140649 192.417214) scale(0.1 -0.1)">
     <use xlink:href="#DejaVuSans-54"/>
     <use xlink:href="#DejaVuSans-65" x="44.083984"/>
     <use xlink:href="#DejaVuSans-73" x="105.607422"/>
     <use xlink:href="#DejaVuSans-74" x="157.707031"/>
    </g>
   </g>
   <g id="text_14">
    <!-- 20.0% -->
    <g transform="translate(436.394277 177.979179) scale(0.1 -0.1)">
     <use xlink:href="#DejaVuSans-32"/>
     <use xlink:href="#DejaVuSans-30" x="63.623047"/>
     <use xlink:href="#DejaVuSans-2e" x="127.246094"/>
     <use xlink:href="#DejaVuSans-30" x="159.033203"/>
     <use xlink:href="#DejaVuSans-25" x="222.65625"/>
    </g>
   </g>
   <g id="text_15">
    <g id="patch_21">
     <path d="M 330.517895 303.066487 
L 449.615395 303.066487 
Q 452.015395 303.066487 452.015395 300.666487 
L 452.015395 257.090987 
Q 452.015395 254.690987 449.615395 254.690987 
L 330.517895 254.690987 
Q 328.117895 254.690987 328.117895 257.090987 
L 328.117895 300.666487 
Q 328.117895 303.066487 330.517895 303.066487 
z
" style="fill: #f5deb3; opacity: 0.5; stroke: #000000; stroke-linejoin: miter"/>
    </g>
    <!--        Masked  Unmasked  Total -->
    <g transform="translate(330.517895 263.169737) scale(0.08 -0.08)">
     <use xlink:href="#DejaVuSans-20"/>
     <use xlink:href="#DejaVuSans-20" x="31.787109"/>
     <use xlink:href="#DejaVuSans-20" x="63.574219"/>
     <use xlink:href="#DejaVuSans-20" x="95.361328"/>
     <use xlink:href="#DejaVuSans-20" x="127.148438"/>
     <use xlink:href="#DejaVuSans-20" x="158.935547"/>
     <use xlink:href="#DejaVuSans-20" x="190.722656"/>
     <use xlink:href="#DejaVuSans-4d" x="222.509766"/>
     <use xlink:href="#DejaVuSans-61" x="308.789062"/>
     <use xlink:href="#DejaVuSans-73" x="370.068359"/>
     <use xlink:href="#DejaVuSans-6b" x="422.167969"/>
     <use xlink:href="#DejaVuSans-65" x="476.453125"/>
     <use xlink:href="#DejaVuSans-64" x="537.976562"/>
     <use xlink:href="#DejaVuSans-20" x="601.453125"/>
     <use xlink:href="#DejaVuSans-20" x="633.240234"/>
     <use xlink:href="#DejaVuSans-55" x="665.027344"/>
     <use xlink:href="#DejaVuSans-6e" x="738.220703"/>
     <use xlink:href="#DejaVuSans-6d" x="801.599609"/>
     <use xlink:href="#DejaVuSans-61" x="899.011719"/>
     <use xlink:href="#DejaVuSans-73" x="960.291016"/>
     <use xlink:href="#DejaVuSans-6b" x="1012.390625"/>
     <use xlink:href="#DejaVuSans-65" x="1066.675781"/>
     <use xlink:href="#DejaVuSans-64" x="1128.199219"/>
     <use xlink:href="#DejaVuSans-20" x="1191.675781"/>
     <use xlink:href="#DejaVuSans-20" x="1223.462891"/>
     <use xlink:href="#DejaVuSans-54" x="1255.25"/>
     <use xlink:href="#DejaVuSans-6f" x="1299.333984"/>
     <use xlink:href="#DejaVuSans-74" x="1360.515625"/>
     <use xlink:href="#DejaVuSans-61" x="1399.724609"/>
     <use xlink:href="#DejaVuSans-6c" x="1461.003906"/>
    </g>
    <!-- Train    7981      1995   9976 -->
    <g transform="translate(330.517895 272.127987) scale(0.08 -0.08)">
     <use xlink:href="#DejaVuSans-54"/>
     <use xlink:href="#DejaVuSans-72" x="46.333984"/>
     <use xlink:href="#DejaVuSans-61" x="87.447266"/>
     <use xlink:href="#DejaVuSans-69" x="148.726562"/>
     <use xlink:href="#DejaVuSans-6e" x="176.509766"/>
     <use xlink:href="#DejaVuSans-20" x="239.888672"/>
     <use xlink:href="#DejaVuSans-20" x="271.675781"/>
     <use xlink:href="#DejaVuSans-20" x="303.462891"/>
     <use xlink:href="#DejaVuSans-20" x="335.25"/>
     <use xlink:href="#DejaVuSans-37" x="367.037109"/>
     <use xlink:href="#DejaVuSans-39" x="430.660156"/>
     <use xlink:href="#DejaVuSans-38" x="494.283203"/>
     <use xlink:href="#DejaVuSans-31" x="557.90625"/>
     <use xlink:href="#DejaVuSans-20" x="621.529297"/>
     <use xlink:href="#DejaVuSans-20" x="653.316406"/>
     <use xlink:href="#DejaVuSans-20" x="685.103516"/>
     <use xlink:href="#DejaVuSans-20" x="716.890625"/>
     <use xlink:href="#DejaVuSans-20" x="748.677734"/>
     <use xlink:href="#DejaVuSans-20" x="780.464844"/>
     <use xlink:href="#DejaVuSans-31" x="812.251953"/>
     <use xlink:href="#DejaVuSans-39" x="875.875"/>
     <use xlink:href="#DejaVuSans-39" x="939.498047"/>
     <use xlink:href="#DejaVuSans-35" x="1003.121094"/>
     <use xlink:href="#DejaVuSans-20" x="1066.744141"/>
     <use xlink:href="#DejaVuSans-20" x="1098.53125"/>
     <use xlink:href="#DejaVuSans-20" x="1130.318359"/>
     <use xlink:href="#DejaVuSans-39" x="1162.105469"/>
     <use xlink:href="#DejaVuSans-39" x="1225.728516"/>
     <use xlink:href="#DejaVuSans-37" x="1289.351562"/>
     <use xlink:href="#DejaVuSans-36" x="1352.974609"/>
    </g>
    <!-- Val      2661       665   3326 -->
    <g transform="translate(330.517895 281.086237) scale(0.08 -0.08)">
     <use xlink:href="#DejaVuSans-56"/>
     <use xlink:href="#DejaVuSans-61" x="60.658203"/>
     <use xlink:href="#DejaVuSans-6c" x="121.9375"/>
     <use xlink:href="#DejaVuSans-20" x="149.720703"/>
     <use xlink:href="#DejaVuSans-20" x="181.507812"/>
     <use xlink:href="#DejaVuSans-20" x="213.294922"/>
     <use xlink:href="#DejaVuSans-20" x="245.082031"/>
     <use xlink:href="#DejaVuSans-20" x="276.869141"/>
     <use xlink:href="#DejaVuSans-20" x="308.65625"/>
     <use xlink:href="#DejaVuSans-32" x="340.443359"/>
     <use xlink:href="#DejaVuSans-36" x="404.066406"/>
     <use xlink:href="#DejaVuSans-36" x="467.689453"/>
     <use xlink:href="#DejaVuSans-31" x="531.3125"/>
     <use xlink:href="#DejaVuSans-20" x="594.935547"/>
     <use xlink:href="#DejaVuSans-20" x="626.722656"/>
     <use xlink:href="#DejaVuSans-20" x="658.509766"/>
     <use xlink:href="#DejaVuSans-20" x="690.296875"/>
     <use xlink:href="#DejaVuSans-20" x="722.083984"/>
     <use xlink:href="#DejaVuSans-20" x="753.871094"/>
     <use xlink:href="#DejaVuSans-20" x="785.658203"/>
     <use xlink:href="#DejaVuSans-36" x="817.445312"/>
     <use xlink:href="#DejaVuSans-36" x="881.068359"/>
     <use xlink:href="#DejaVuSans-35" x="944.691406"/>
     <use xlink:href="#DejaVuSans-20" x="1008.314453"/>
     <use xlink:href="#DejaVuSans-20" x="1040.101562"/>
     <use xlink:href="#DejaVuSans-20" x="1071.888672"/>
     <use xlink:href="#DejaVuSans-33" x="1103.675781"/>
     <use xlink:href="#DejaVuSans-33" x="1167.298828"/>
     <use xlink:href="#DejaVuSans-32" x="1230.921875"/>
     <use xlink:href="#DejaVuSans-36" x="1294.544922"/>
    </g>
    <!-- Test     2661       666   3327 -->
    <g transform="translate(330.517895 290.044487) scale(0.08 -0.08)">
     <use xlink:href="#DejaVuSans-54"/>
     <use xlink:href="#DejaVuSans-65" x="44.083984"/>
     <use xlink:href="#DejaVuSans-73" x="105.607422"/>
     <use xlink:href="#DejaVuSans-74" x="157.707031"/>
     <use xlink:href="#DejaVuSans-20" x="196.916016"/>
     <use xlink:href="#DejaVuSans-20" x="228.703125"/>
     <use xlink:href="#DejaVuSans-20" x="260.490234"/>
     <use xlink:href="#DejaVuSans-20" x="292.277344"/>
     <use xlink:href="#DejaVuSans-20" x="324.064453"/>
     <use xlink:href="#DejaVuSans-32" x="355.851562"/>
     <use xlink:href="#DejaVuSans-36" x="419.474609"/>
     <use xlink:href="#DejaVuSans-36" x="483.097656"/>
     <use xlink:href="#DejaVuSans-31" x="546.720703"/>
     <use xlink:href="#DejaVuSans-20" x="610.34375"/>
     <use xlink:href="#DejaVuSans-20" x="642.130859"/>
     <use xlink:href="#DejaVuSans-20" x="673.917969"/>
     <use xlink:href="#DejaVuSans-20" x="705.705078"/>
     <use xlink:href="#DejaVuSans-20" x="737.492188"/>
     <use xlink:href="#DejaVuSans-20" x="769.279297"/>
     <use xlink:href="#DejaVuSans-20" x="801.066406"/>
     <use xlink:href="#DejaVuSans-36" x="832.853516"/>
     <use xlink:href="#DejaVuSans-36" x="896.476562"/>
     <use xlink:href="#DejaVuSans-36" x="960.099609"/>
     <use xlink:href="#DejaVuSans-20" x="1023.722656"/>
     <use xlink:href="#DejaVuSans-20" x="1055.509766"/>
     <use xlink:href="#DejaVuSans-20" x="1087.296875"/>
     <use xlink:href="#DejaVuSans-33" x="1119.083984"/>
     <use xlink:href="#DejaVuSans-33" x="1182.707031"/>
     <use xlink:href="#DejaVuSans-32" x="1246.330078"/>
     <use xlink:href="#DejaVuSans-37" x="1309.953125"/>
    </g>
    <!-- Total   13303      3326  16629 -->
    <g transform="translate(330.517895 299.002737) scale(0.08 -0.08)">
     <use xlink:href="#DejaVuSans-54"/>
     <use xlink:href="#DejaVuSans-6f" x="44.083984"/>
     <use xlink:href="#DejaVuSans-74" x="105.265625"/>
     <use xlink:href="#DejaVuSans-61" x="144.474609"/>
     <use xlink:href="#DejaVuSans-6c" x="205.753906"/>
     <use xlink:href="#DejaVuSans-20" x="233.537109"/>
     <use xlink:href="#DejaVuSans-20" x="265.324219"/>
     <use xlink:href="#DejaVuSans-20" x="297.111328"/>
     <use xlink:href="#DejaVuSans-31" x="328.898438"/>
     <use xlink:href="#DejaVuSans-33" x="392.521484"/>
     <use xlink:href="#DejaVuSans-33" x="456.144531"/>
     <use xlink:href="#DejaVuSans-30" x="519.767578"/>
     <use xlink:href="#DejaVuSans-33" x="583.390625"/>
     <use xlink:href="#DejaVuSans-20" x="647.013672"/>
     <use xlink:href="#DejaVuSans-20" x="678.800781"/>
     <use xlink:href="#DejaVuSans-20" x="710.587891"/>
     <use xlink:href="#DejaVuSans-20" x="742.375"/>
     <use xlink:href="#DejaVuSans-20" x="774.162109"/>
     <use xlink:href="#DejaVuSans-20" x="805.949219"/>
     <use xlink:href="#DejaVuSans-33" x="837.736328"/>
     <use xlink:href="#DejaVuSans-33" x="901.359375"/>
     <use xlink:href="#DejaVuSans-32" x="964.982422"/>
     <use xlink:href="#DejaVuSans-36" x="1028.605469"/>
     <use xlink:href="#DejaVuSans-20" x="1092.228516"/>
     <use xlink:href="#DejaVuSans-20" x="1124.015625"/>
     <use xlink:href="#DejaVuSans-31" x="1155.802734"/>
     <use xlink:href="#DejaVuSans-36" x="1219.425781"/>
     <use xlink:href="#DejaVuSans-36" x="1283.048828"/>
     <use xlink:href="#DejaVuSans-32" x="1346.671875"/>
     <use xlink:href="#DejaVuSans-39" x="1410.294922"/>
    </g>
   </g>
   <g id="text_16">
    <!-- Masked: 80 % -->
    <g transform="translate(361.076563 14.798437) scale(0.1 -0.1)">
     <use xlink:href="#DejaVuSans-4d"/>
     <use xlink:href="#DejaVuSans-61" x="86.279297"/>
     <use xlink:href="#DejaVuSans-73" x="147.558594"/>
     <use xlink:href="#DejaVuSans-6b" x="199.658203"/>
     <use xlink:href="#DejaVuSans-65" x="253.943359"/>
     <use xlink:href="#DejaVuSans-64" x="315.466797"/>
     <use xlink:href="#DejaVuSans-3a" x="378.943359"/>
     <use xlink:href="#DejaVuSans-20" x="412.634766"/>
     <use xlink:href="#DejaVuSans-38" x="444.421875"/>
     <use xlink:href="#DejaVuSans-30" x="508.044922"/>
     <use xlink:href="#DejaVuSans-20" x="571.667969"/>
     <use xlink:href="#DejaVuSans-25" x="603.455078"/>
    </g>
    <!-- Unmasked: 20 % -->
    <g transform="translate(353.692187 25.99625) scale(0.1 -0.1)">
     <use xlink:href="#DejaVuSans-55"/>
     <use xlink:href="#DejaVuSans-6e" x="73.193359"/>
     <use xlink:href="#DejaVuSans-6d" x="136.572266"/>
     <use xlink:href="#DejaVuSans-61" x="233.984375"/>
     <use xlink:href="#DejaVuSans-73" x="295.263672"/>
     <use xlink:href="#DejaVuSans-6b" x="347.363281"/>
     <use xlink:href="#DejaVuSans-65" x="401.648438"/>
     <use xlink:href="#DejaVuSans-64" x="463.171875"/>
     <use xlink:href="#DejaVuSans-3a" x="526.648438"/>
     <use xlink:href="#DejaVuSans-20" x="560.339844"/>
     <use xlink:href="#DejaVuSans-32" x="592.126953"/>
     <use xlink:href="#DejaVuSans-30" x="655.75"/>
     <use xlink:href="#DejaVuSans-20" x="719.373047"/>
     <use xlink:href="#DejaVuSans-25" x="751.160156"/>
    </g>
   </g>
  </g>
  <g id="axes_3">
   <g id="patch_22">
    <path d="M 764.336842 134.312039 
C 764.336842 121.397235 761.280273 108.66392 755.417808 97.156371 
C 749.555343 85.648823 741.05175 75.690467 730.604422 68.098003 
C 720.157093 60.50554 708.059657 55.492359 695.304242 53.4696 
C 682.548827 51.44684 669.493931 52.471352 657.210205 56.459114 
C 644.926479 60.446877 633.759164 67.285811 624.624109 76.415045 
C 615.489053 85.54428 608.643002 96.707234 604.647411 108.988415 
C 600.65182 121.269596 599.618987 134.323837 601.633615 147.080539 
C 603.648244 159.837241 608.653713 171.93787 616.239516 182.390035 
L 636.112924 167.966637 
C 630.802862 160.650121 627.299034 152.17968 625.888794 143.249989 
C 624.478554 134.320298 625.201537 125.182329 627.998451 116.585502 
C 630.795365 107.988675 635.5876 100.174608 641.982139 93.784144 
C 648.376678 87.393679 656.193799 82.606425 664.792407 79.814992 
C 673.391015 77.023558 682.529442 76.3064 691.458233 77.722332 
C 700.387023 79.138263 708.855229 82.64749 716.168358 87.962214 
C 723.481488 93.276939 729.434003 100.247788 733.537729 108.303072 
C 737.641454 116.358356 739.781053 125.271677 739.781053 134.312039 
z
" style="fill: #3182bd; stroke: #ffffff; stroke-linejoin: miter"/>
   </g>
   <g id="patch_23">
    <path d="M 616.239516 182.390035 
C 626.393107 196.380252 640.722236 206.800745 657.16059 212.14884 
C 673.598943 217.496935 691.316465 217.502581 707.758223 212.164962 
L 700.176019 188.809085 
C 688.666789 192.545418 676.264523 192.541467 664.757676 188.7978 
C 653.250829 185.054133 643.220438 177.759788 636.112924 167.966637 
z
" style="fill: #e6550d; stroke: #ffffff; stroke-linejoin: miter"/>
   </g>
   <g id="patch_24">
    <path d="M 707.758223 212.164962 
C 724.199981 206.827344 738.535748 196.415985 748.698253 182.432241 
C 758.860758 168.448498 764.336845 151.598481 764.336842 134.312024 
L 739.781053 134.312029 
C 739.781055 146.412548 735.947794 158.207561 728.83404 167.996181 
C 721.720287 177.784801 711.68525 185.072752 700.176019 188.809085 
z
" style="fill: #31a354; stroke: #ffffff; stroke-linejoin: miter"/>
   </g>
   <g id="patch_25">
    <path d="M 739.781053 134.312039 
C 739.781053 126.18297 738.051068 118.146205 734.706343 110.737117 
C 731.361619 103.32803 726.478111 96.714877 720.381137 91.338198 
C 714.284164 85.961519 707.112184 81.943415 699.342965 79.551556 
C 691.573745 77.159697 683.383721 76.4484 675.318475 77.465049 
C 667.253229 78.481698 659.49592 81.203204 652.563305 85.448274 
C 645.630691 89.693344 639.680207 95.365574 635.10825 102.087104 
C 630.536292 108.808634 627.446688 116.426822 626.045253 124.434178 
C 624.643817 132.441533 624.962377 140.656213 626.97971 148.530991 
L 650.767353 142.437155 
C 649.614591 137.937282 649.432557 133.243179 650.233377 128.667547 
C 651.034198 124.091915 652.799686 119.738665 655.412233 115.897791 
C 658.02478 112.056916 661.425056 108.815642 665.38655 106.389888 
C 669.348044 103.964134 673.780793 102.408987 678.389504 101.828045 
C 682.998216 101.247103 687.67823 101.653558 692.117784 103.020335 
C 696.557338 104.387111 700.655612 106.68317 704.139597 109.755558 
C 707.623582 112.827947 710.414158 116.606891 712.325429 120.840655 
C 714.236701 125.07442 715.225263 129.666857 715.225263 134.312039 
z
" style="fill: #6baed6; stroke: #ffffff; stroke-linejoin: miter"/>
   </g>
   <g id="patch_26">
    <path d="M 626.97971 148.530991 
C 627.873855 152.021336 629.09524 155.419572 630.627628 158.680522 
C 632.160016 161.941472 633.996585 165.05062 636.112921 167.966632 
L 655.986331 153.543235 
C 654.776996 151.876943 653.727528 150.100286 652.851878 148.236887 
C 651.976227 146.373487 651.278293 144.431638 650.767353 142.437155 
z
" style="fill: #9ecae1; stroke: #ffffff; stroke-linejoin: miter"/>
   </g>
   <g id="patch_27">
    <path d="M 636.112921 167.966632 
C 642.4992 176.766025 651.260116 183.56849 661.367385 187.575609 
C 671.474653 191.582727 682.516736 192.631341 693.197603 190.598373 
L 688.606149 166.475659 
C 682.502797 167.637355 676.193035 167.038147 670.417453 164.748365 
C 664.641871 162.458583 659.635633 158.57146 655.986331 153.543235 
z
" style="fill: #fd8d3c; stroke: #ffffff; stroke-linejoin: miter"/>
   </g>
   <g id="patch_28">
    <path d="M 693.197603 190.598373 
C 694.377994 190.3737 695.551026 190.111952 696.714957 189.813517 
C 697.878889 189.515081 699.033145 189.180106 700.176012 188.809088 
L 692.593812 165.45321 
C 691.940744 165.66522 691.28117 165.856635 690.616066 166.027169 
C 689.950962 166.197704 689.280658 166.347274 688.606149 166.475659 
z
" style="fill: #fdae6b; stroke: #ffffff; stroke-linejoin: miter"/>
   </g>
   <g id="patch_29">
    <path d="M 700.176012 188.809088 
C 710.517345 185.4519 719.692557 179.219511 726.624735 170.843426 
C 733.556913 162.467342 737.9638 152.288613 739.328151 141.501935 
L 714.966462 138.420551 
C 714.186833 144.584367 711.668612 150.400784 707.707367 155.187118 
C 703.746123 159.973452 698.503145 163.534817 692.593812 165.45321 
z
" style="fill: #74c476; stroke: #ffffff; stroke-linejoin: miter"/>
   </g>
   <g id="patch_30">
    <path d="M 739.328151 141.501935 
C 739.478931 140.30985 739.592175 139.113317 739.667715 137.914112 
C 739.743255 136.714906 739.781053 135.513621 739.781053 134.312038 
L 715.225263 134.312039 
C 715.225263 134.998657 715.203664 135.685106 715.160499 136.370366 
C 715.117333 137.055627 715.052622 137.73936 714.966462 138.420551 
z
" style="fill: #a1d99b; stroke: #ffffff; stroke-linejoin: miter"/>
   </g>
   <g id="matplotlib.axis_5"/>
   <g id="matplotlib.axis_6"/>
   <g id="text_17">
    <!-- Train -->
    <g transform="translate(629.431604 47.540551) scale(0.1 -0.1)">
     <use xlink:href="#DejaVuSans-54"/>
     <use xlink:href="#DejaVuSans-72" x="46.333984"/>
     <use xlink:href="#DejaVuSans-61" x="87.447266"/>
     <use xlink:href="#DejaVuSans-69" x="148.726562"/>
     <use xlink:href="#DejaVuSans-6e" x="176.509766"/>
    </g>
   </g>
   <g id="text_18">
    <!-- 60.0% -->
    <g transform="translate(645.117712 70.896428) scale(0.1 -0.1)">
     <use xlink:href="#DejaVuSans-36"/>
     <use xlink:href="#DejaVuSans-30" x="63.623047"/>
     <use xlink:href="#DejaVuSans-2e" x="127.246094"/>
     <use xlink:href="#DejaVuSans-30" x="159.033203"/>
     <use xlink:href="#DejaVuSans-25" x="222.65625"/>
    </g>
   </g>
   <g id="text_19">
    <!-- Validation -->
    <g transform="translate(603.980797 226.583735) scale(0.1 -0.1)">
     <use xlink:href="#DejaVuSans-56"/>
     <use xlink:href="#DejaVuSans-61" x="60.658203"/>
     <use xlink:href="#DejaVuSans-6c" x="121.9375"/>
     <use xlink:href="#DejaVuSans-69" x="149.720703"/>
     <use xlink:href="#DejaVuSans-64" x="177.503906"/>
     <use xlink:href="#DejaVuSans-61" x="240.980469"/>
     <use xlink:href="#DejaVuSans-74" x="302.259766"/>
     <use xlink:href="#DejaVuSans-69" x="341.46875"/>
     <use xlink:href="#DejaVuSans-6f" x="369.251953"/>
     <use xlink:href="#DejaVuSans-6e" x="430.433594"/>
    </g>
   </g>
   <g id="text_20">
    <!-- 20.0% -->
    <g transform="translate(645.075539 203.232695) scale(0.1 -0.1)">
     <use xlink:href="#DejaVuSans-32"/>
     <use xlink:href="#DejaVuSans-30" x="63.623047"/>
     <use xlink:href="#DejaVuSans-2e" x="127.246094"/>
     <use xlink:href="#DejaVuSans-30" x="159.033203"/>
     <use xlink:href="#DejaVuSans-25" x="222.65625"/>
    </g>
   </g>
   <g id="text_21">
    <!-- Test -->
    <g transform="translate(758.63036 192.409647) scale(0.1 -0.1)">
     <use xlink:href="#DejaVuSans-54"/>
     <use xlink:href="#DejaVuSans-65" x="44.083984"/>
     <use xlink:href="#DejaVuSans-73" x="105.607422"/>
     <use xlink:href="#DejaVuSans-74" x="157.707031"/>
    </g>
   </g>
   <g id="text_22">
    <!-- 20.0% -->
    <g transform="translate(722.882553 177.973586) scale(0.1 -0.1)">
     <use xlink:href="#DejaVuSans-32"/>
     <use xlink:href="#DejaVuSans-30" x="63.623047"/>
     <use xlink:href="#DejaVuSans-2e" x="127.246094"/>
     <use xlink:href="#DejaVuSans-30" x="159.033203"/>
     <use xlink:href="#DejaVuSans-25" x="222.65625"/>
    </g>
   </g>
   <g id="text_23">
    <g id="patch_31">
     <path d="M 617.002105 303.066487 
L 736.099605 303.066487 
Q 738.499605 303.066487 738.499605 300.666487 
L 738.499605 257.090987 
Q 738.499605 254.690987 736.099605 254.690987 
L 617.002105 254.690987 
Q 614.602105 254.690987 614.602105 257.090987 
L 614.602105 300.666487 
Q 614.602105 303.066487 617.002105 303.066487 
z
" style="fill: #f5deb3; opacity: 0.5; stroke: #000000; stroke-linejoin: miter"/>
    </g>
    <!--        Masked  Unmasked  Total -->
    <g transform="translate(617.002105 263.169737) scale(0.08 -0.08)">
     <use xlink:href="#DejaVuSans-20"/>
     <use xlink:href="#DejaVuSans-20" x="31.787109"/>
     <use xlink:href="#DejaVuSans-20" x="63.574219"/>
     <use xlink:href="#DejaVuSans-20" x="95.361328"/>
     <use xlink:href="#DejaVuSans-20" x="127.148438"/>
     <use xlink:href="#DejaVuSans-20" x="158.935547"/>
     <use xlink:href="#DejaVuSans-20" x="190.722656"/>
     <use xlink:href="#DejaVuSans-4d" x="222.509766"/>
     <use xlink:href="#DejaVuSans-61" x="308.789062"/>
     <use xlink:href="#DejaVuSans-73" x="370.068359"/>
     <use xlink:href="#DejaVuSans-6b" x="422.167969"/>
     <use xlink:href="#DejaVuSans-65" x="476.453125"/>
     <use xlink:href="#DejaVuSans-64" x="537.976562"/>
     <use xlink:href="#DejaVuSans-20" x="601.453125"/>
     <use xlink:href="#DejaVuSans-20" x="633.240234"/>
     <use xlink:href="#DejaVuSans-55" x="665.027344"/>
     <use xlink:href="#DejaVuSans-6e" x="738.220703"/>
     <use xlink:href="#DejaVuSans-6d" x="801.599609"/>
     <use xlink:href="#DejaVuSans-61" x="899.011719"/>
     <use xlink:href="#DejaVuSans-73" x="960.291016"/>
     <use xlink:href="#DejaVuSans-6b" x="1012.390625"/>
     <use xlink:href="#DejaVuSans-65" x="1066.675781"/>
     <use xlink:href="#DejaVuSans-64" x="1128.199219"/>
     <use xlink:href="#DejaVuSans-20" x="1191.675781"/>
     <use xlink:href="#DejaVuSans-20" x="1223.462891"/>
     <use xlink:href="#DejaVuSans-54" x="1255.25"/>
     <use xlink:href="#DejaVuSans-6f" x="1299.333984"/>
     <use xlink:href="#DejaVuSans-74" x="1360.515625"/>
     <use xlink:href="#DejaVuSans-61" x="1399.724609"/>
     <use xlink:href="#DejaVuSans-6c" x="1461.003906"/>
    </g>
    <!-- Train    7981       887   8868 -->
    <g transform="translate(617.002105 272.127987) scale(0.08 -0.08)">
     <use xlink:href="#DejaVuSans-54"/>
     <use xlink:href="#DejaVuSans-72" x="46.333984"/>
     <use xlink:href="#DejaVuSans-61" x="87.447266"/>
     <use xlink:href="#DejaVuSans-69" x="148.726562"/>
     <use xlink:href="#DejaVuSans-6e" x="176.509766"/>
     <use xlink:href="#DejaVuSans-20" x="239.888672"/>
     <use xlink:href="#DejaVuSans-20" x="271.675781"/>
     <use xlink:href="#DejaVuSans-20" x="303.462891"/>
     <use xlink:href="#DejaVuSans-20" x="335.25"/>
     <use xlink:href="#DejaVuSans-37" x="367.037109"/>
     <use xlink:href="#DejaVuSans-39" x="430.660156"/>
     <use xlink:href="#DejaVuSans-38" x="494.283203"/>
     <use xlink:href="#DejaVuSans-31" x="557.90625"/>
     <use xlink:href="#DejaVuSans-20" x="621.529297"/>
     <use xlink:href="#DejaVuSans-20" x="653.316406"/>
     <use xlink:href="#DejaVuSans-20" x="685.103516"/>
     <use xlink:href="#DejaVuSans-20" x="716.890625"/>
     <use xlink:href="#DejaVuSans-20" x="748.677734"/>
     <use xlink:href="#DejaVuSans-20" x="780.464844"/>
     <use xlink:href="#DejaVuSans-20" x="812.251953"/>
     <use xlink:href="#DejaVuSans-38" x="844.039062"/>
     <use xlink:href="#DejaVuSans-38" x="907.662109"/>
     <use xlink:href="#DejaVuSans-37" x="971.285156"/>
     <use xlink:href="#DejaVuSans-20" x="1034.908203"/>
     <use xlink:href="#DejaVuSans-20" x="1066.695312"/>
     <use xlink:href="#DejaVuSans-20" x="1098.482422"/>
     <use xlink:href="#DejaVuSans-38" x="1130.269531"/>
     <use xlink:href="#DejaVuSans-38" x="1193.892578"/>
     <use xlink:href="#DejaVuSans-36" x="1257.515625"/>
     <use xlink:href="#DejaVuSans-38" x="1321.138672"/>
    </g>
    <!-- Val      2661       296   2957 -->
    <g transform="translate(617.002105 281.086237) scale(0.08 -0.08)">
     <use xlink:href="#DejaVuSans-56"/>
     <use xlink:href="#DejaVuSans-61" x="60.658203"/>
     <use xlink:href="#DejaVuSans-6c" x="121.9375"/>
     <use xlink:href="#DejaVuSans-20" x="149.720703"/>
     <use xlink:href="#DejaVuSans-20" x="181.507812"/>
     <use xlink:href="#DejaVuSans-20" x="213.294922"/>
     <use xlink:href="#DejaVuSans-20" x="245.082031"/>
     <use xlink:href="#DejaVuSans-20" x="276.869141"/>
     <use xlink:href="#DejaVuSans-20" x="308.65625"/>
     <use xlink:href="#DejaVuSans-32" x="340.443359"/>
     <use xlink:href="#DejaVuSans-36" x="404.066406"/>
     <use xlink:href="#DejaVuSans-36" x="467.689453"/>
     <use xlink:href="#DejaVuSans-31" x="531.3125"/>
     <use xlink:href="#DejaVuSans-20" x="594.935547"/>
     <use xlink:href="#DejaVuSans-20" x="626.722656"/>
     <use xlink:href="#DejaVuSans-20" x="658.509766"/>
     <use xlink:href="#DejaVuSans-20" x="690.296875"/>
     <use xlink:href="#DejaVuSans-20" x="722.083984"/>
     <use xlink:href="#DejaVuSans-20" x="753.871094"/>
     <use xlink:href="#DejaVuSans-20" x="785.658203"/>
     <use xlink:href="#DejaVuSans-32" x="817.445312"/>
     <use xlink:href="#DejaVuSans-39" x="881.068359"/>
     <use xlink:href="#DejaVuSans-36" x="944.691406"/>
     <use xlink:href="#DejaVuSans-20" x="1008.314453"/>
     <use xlink:href="#DejaVuSans-20" x="1040.101562"/>
     <use xlink:href="#DejaVuSans-20" x="1071.888672"/>
     <use xlink:href="#DejaVuSans-32" x="1103.675781"/>
     <use xlink:href="#DejaVuSans-39" x="1167.298828"/>
     <use xlink:href="#DejaVuSans-35" x="1230.921875"/>
     <use xlink:href="#DejaVuSans-37" x="1294.544922"/>
    </g>
    <!-- Test     2661       296   2957 -->
    <g transform="translate(617.002105 290.044487) scale(0.08 -0.08)">
     <use xlink:href="#DejaVuSans-54"/>
     <use xlink:href="#DejaVuSans-65" x="44.083984"/>
     <use xlink:href="#DejaVuSans-73" x="105.607422"/>
     <use xlink:href="#DejaVuSans-74" x="157.707031"/>
     <use xlink:href="#DejaVuSans-20" x="196.916016"/>
     <use xlink:href="#DejaVuSans-20" x="228.703125"/>
     <use xlink:href="#DejaVuSans-20" x="260.490234"/>
     <use xlink:href="#DejaVuSans-20" x="292.277344"/>
     <use xlink:href="#DejaVuSans-20" x="324.064453"/>
     <use xlink:href="#DejaVuSans-32" x="355.851562"/>
     <use xlink:href="#DejaVuSans-36" x="419.474609"/>
     <use xlink:href="#DejaVuSans-36" x="483.097656"/>
     <use xlink:href="#DejaVuSans-31" x="546.720703"/>
     <use xlink:href="#DejaVuSans-20" x="610.34375"/>
     <use xlink:href="#DejaVuSans-20" x="642.130859"/>
     <use xlink:href="#DejaVuSans-20" x="673.917969"/>
     <use xlink:href="#DejaVuSans-20" x="705.705078"/>
     <use xlink:href="#DejaVuSans-20" x="737.492188"/>
     <use xlink:href="#DejaVuSans-20" x="769.279297"/>
     <use xlink:href="#DejaVuSans-20" x="801.066406"/>
     <use xlink:href="#DejaVuSans-32" x="832.853516"/>
     <use xlink:href="#DejaVuSans-39" x="896.476562"/>
     <use xlink:href="#DejaVuSans-36" x="960.099609"/>
     <use xlink:href="#DejaVuSans-20" x="1023.722656"/>
     <use xlink:href="#DejaVuSans-20" x="1055.509766"/>
     <use xlink:href="#DejaVuSans-20" x="1087.296875"/>
     <use xlink:href="#DejaVuSans-32" x="1119.083984"/>
     <use xlink:href="#DejaVuSans-39" x="1182.707031"/>
     <use xlink:href="#DejaVuSans-35" x="1246.330078"/>
     <use xlink:href="#DejaVuSans-37" x="1309.953125"/>
    </g>
    <!-- Total   13303      1479  14782 -->
    <g transform="translate(617.002105 299.002737) scale(0.08 -0.08)">
     <use xlink:href="#DejaVuSans-54"/>
     <use xlink:href="#DejaVuSans-6f" x="44.083984"/>
     <use xlink:href="#DejaVuSans-74" x="105.265625"/>
     <use xlink:href="#DejaVuSans-61" x="144.474609"/>
     <use xlink:href="#DejaVuSans-6c" x="205.753906"/>
     <use xlink:href="#DejaVuSans-20" x="233.537109"/>
     <use xlink:href="#DejaVuSans-20" x="265.324219"/>
     <use xlink:href="#DejaVuSans-20" x="297.111328"/>
     <use xlink:href="#DejaVuSans-31" x="328.898438"/>
     <use xlink:href="#DejaVuSans-33" x="392.521484"/>
     <use xlink:href="#DejaVuSans-33" x="456.144531"/>
     <use xlink:href="#DejaVuSans-30" x="519.767578"/>
     <use xlink:href="#DejaVuSans-33" x="583.390625"/>
     <use xlink:href="#DejaVuSans-20" x="647.013672"/>
     <use xlink:href="#DejaVuSans-20" x="678.800781"/>
     <use xlink:href="#DejaVuSans-20" x="710.587891"/>
     <use xlink:href="#DejaVuSans-20" x="742.375"/>
     <use xlink:href="#DejaVuSans-20" x="774.162109"/>
     <use xlink:href="#DejaVuSans-20" x="805.949219"/>
     <use xlink:href="#DejaVuSans-31" x="837.736328"/>
     <use xlink:href="#DejaVuSans-34" x="901.359375"/>
     <use xlink:href="#DejaVuSans-37" x="964.982422"/>
     <use xlink:href="#DejaVuSans-39" x="1028.605469"/>
     <use xlink:href="#DejaVuSans-20" x="1092.228516"/>
     <use xlink:href="#DejaVuSans-20" x="1124.015625"/>
     <use xlink:href="#DejaVuSans-31" x="1155.802734"/>
     <use xlink:href="#DejaVuSans-34" x="1219.425781"/>
     <use xlink:href="#DejaVuSans-37" x="1283.048828"/>
     <use xlink:href="#DejaVuSans-38" x="1346.671875"/>
     <use xlink:href="#DejaVuSans-32" x="1410.294922"/>
    </g>
   </g>
   <g id="text_24">
    <!-- Masked: 90 % -->
    <g transform="translate(647.560773 14.798437) scale(0.1 -0.1)">
     <use xlink:href="#DejaVuSans-4d"/>
     <use xlink:href="#DejaVuSans-61" x="86.279297"/>
     <use xlink:href="#DejaVuSans-73" x="147.558594"/>
     <use xlink:href="#DejaVuSans-6b" x="199.658203"/>
     <use xlink:href="#DejaVuSans-65" x="253.943359"/>
     <use xlink:href="#DejaVuSans-64" x="315.466797"/>
     <use xlink:href="#DejaVuSans-3a" x="378.943359"/>
     <use xlink:href="#DejaVuSans-20" x="412.634766"/>
     <use xlink:href="#DejaVuSans-39" x="444.421875"/>
     <use xlink:href="#DejaVuSans-30" x="508.044922"/>
     <use xlink:href="#DejaVuSans-20" x="571.667969"/>
     <use xlink:href="#DejaVuSans-25" x="603.455078"/>
    </g>
    <!-- Unmasked: 10 % -->
    <g transform="translate(640.176398 25.99625) scale(0.1 -0.1)">
     <use xlink:href="#DejaVuSans-55"/>
     <use xlink:href="#DejaVuSans-6e" x="73.193359"/>
     <use xlink:href="#DejaVuSans-6d" x="136.572266"/>
     <use xlink:href="#DejaVuSans-61" x="233.984375"/>
     <use xlink:href="#DejaVuSans-73" x="295.263672"/>
     <use xlink:href="#DejaVuSans-6b" x="347.363281"/>
     <use xlink:href="#DejaVuSans-65" x="401.648438"/>
     <use xlink:href="#DejaVuSans-64" x="463.171875"/>
     <use xlink:href="#DejaVuSans-3a" x="526.648438"/>
     <use xlink:href="#DejaVuSans-20" x="560.339844"/>
     <use xlink:href="#DejaVuSans-31" x="592.126953"/>
     <use xlink:href="#DejaVuSans-30" x="655.75"/>
     <use xlink:href="#DejaVuSans-20" x="719.373047"/>
     <use xlink:href="#DejaVuSans-25" x="751.160156"/>
    </g>
   </g>
   <g id="legend_1">
    <g id="patch_32">
     <path d="M 827.726316 236.627829 
L 912.390378 236.627829 
Q 914.390378 236.627829 914.390378 234.627829 
L 914.390378 103.524704 
Q 914.390378 101.524704 912.390378 101.524704 
L 827.726316 101.524704 
Q 825.726316 101.524704 825.726316 103.524704 
L 825.726316 234.627829 
Q 825.726316 236.627829 827.726316 236.627829 
z
" style="fill: #ffffff; opacity: 0.8; stroke: #cccccc; stroke-linejoin: miter"/>
    </g>
    <g id="patch_33">
     <path d="M 829.726316 113.123141 
L 849.726316 113.123141 
L 849.726316 106.123141 
L 829.726316 106.123141 
z
" style="fill: #3182bd; stroke: #ffffff; stroke-linejoin: miter"/>
    </g>
    <g id="text_25">
     <!-- Train -->
     <g transform="translate(857.726316 113.123141) scale(0.1 -0.1)">
      <use xlink:href="#DejaVuSans-54"/>
      <use xlink:href="#DejaVuSans-72" x="46.333984"/>
      <use xlink:href="#DejaVuSans-61" x="87.447266"/>
      <use xlink:href="#DejaVuSans-69" x="148.726562"/>
      <use xlink:href="#DejaVuSans-6e" x="176.509766"/>
     </g>
    </g>
    <g id="patch_34">
     <path d="M 829.726316 127.801266 
L 849.726316 127.801266 
L 849.726316 120.801266 
L 829.726316 120.801266 
z
" style="fill: #e6550d; stroke: #ffffff; stroke-linejoin: miter"/>
    </g>
    <g id="text_26">
     <!-- Validation -->
     <g transform="translate(857.726316 127.801266) scale(0.1 -0.1)">
      <use xlink:href="#DejaVuSans-56"/>
      <use xlink:href="#DejaVuSans-61" x="60.658203"/>
      <use xlink:href="#DejaVuSans-6c" x="121.9375"/>
      <use xlink:href="#DejaVuSans-69" x="149.720703"/>
      <use xlink:href="#DejaVuSans-64" x="177.503906"/>
      <use xlink:href="#DejaVuSans-61" x="240.980469"/>
      <use xlink:href="#DejaVuSans-74" x="302.259766"/>
      <use xlink:href="#DejaVuSans-69" x="341.46875"/>
      <use xlink:href="#DejaVuSans-6f" x="369.251953"/>
      <use xlink:href="#DejaVuSans-6e" x="430.433594"/>
     </g>
    </g>
    <g id="patch_35">
     <path d="M 829.726316 142.479391 
L 849.726316 142.479391 
L 849.726316 135.479391 
L 829.726316 135.479391 
z
" style="fill: #31a354; stroke: #ffffff; stroke-linejoin: miter"/>
    </g>
    <g id="text_27">
     <!-- Test -->
     <g transform="translate(857.726316 142.479391) scale(0.1 -0.1)">
      <use xlink:href="#DejaVuSans-54"/>
      <use xlink:href="#DejaVuSans-65" x="44.083984"/>
      <use xlink:href="#DejaVuSans-73" x="105.607422"/>
      <use xlink:href="#DejaVuSans-74" x="157.707031"/>
     </g>
    </g>
    <g id="patch_36">
     <path d="M 829.726316 157.157516 
L 849.726316 157.157516 
L 849.726316 150.157516 
L 829.726316 150.157516 
z
" style="fill: #6baed6; stroke: #ffffff; stroke-linejoin: miter"/>
    </g>
    <g id="text_28">
     <!-- Masked -->
     <g transform="translate(857.726316 157.157516) scale(0.1 -0.1)">
      <use xlink:href="#DejaVuSans-4d"/>
      <use xlink:href="#DejaVuSans-61" x="86.279297"/>
      <use xlink:href="#DejaVuSans-73" x="147.558594"/>
      <use xlink:href="#DejaVuSans-6b" x="199.658203"/>
      <use xlink:href="#DejaVuSans-65" x="253.943359"/>
      <use xlink:href="#DejaVuSans-64" x="315.466797"/>
     </g>
    </g>
    <g id="patch_37">
     <path d="M 829.726316 171.835641 
L 849.726316 171.835641 
L 849.726316 164.835641 
L 829.726316 164.835641 
z
" style="fill: #9ecae1; stroke: #ffffff; stroke-linejoin: miter"/>
    </g>
    <g id="text_29">
     <!-- Unmasked -->
     <g transform="translate(857.726316 171.835641) scale(0.1 -0.1)">
      <use xlink:href="#DejaVuSans-55"/>
      <use xlink:href="#DejaVuSans-6e" x="73.193359"/>
      <use xlink:href="#DejaVuSans-6d" x="136.572266"/>
      <use xlink:href="#DejaVuSans-61" x="233.984375"/>
      <use xlink:href="#DejaVuSans-73" x="295.263672"/>
      <use xlink:href="#DejaVuSans-6b" x="347.363281"/>
      <use xlink:href="#DejaVuSans-65" x="401.648438"/>
      <use xlink:href="#DejaVuSans-64" x="463.171875"/>
     </g>
    </g>
    <g id="patch_38">
     <path d="M 829.726316 186.513766 
L 849.726316 186.513766 
L 849.726316 179.513766 
L 829.726316 179.513766 
z
" style="fill: #fd8d3c; stroke: #ffffff; stroke-linejoin: miter"/>
    </g>
    <g id="text_30">
     <!-- Masked -->
     <g transform="translate(857.726316 186.513766) scale(0.1 -0.1)">
      <use xlink:href="#DejaVuSans-4d"/>
      <use xlink:href="#DejaVuSans-61" x="86.279297"/>
      <use xlink:href="#DejaVuSans-73" x="147.558594"/>
      <use xlink:href="#DejaVuSans-6b" x="199.658203"/>
      <use xlink:href="#DejaVuSans-65" x="253.943359"/>
      <use xlink:href="#DejaVuSans-64" x="315.466797"/>
     </g>
    </g>
    <g id="patch_39">
     <path d="M 829.726316 201.191891 
L 849.726316 201.191891 
L 849.726316 194.191891 
L 829.726316 194.191891 
z
" style="fill: #fdae6b; stroke: #ffffff; stroke-linejoin: miter"/>
    </g>
    <g id="text_31">
     <!-- Unmasked -->
     <g transform="translate(857.726316 201.191891) scale(0.1 -0.1)">
      <use xlink:href="#DejaVuSans-55"/>
      <use xlink:href="#DejaVuSans-6e" x="73.193359"/>
      <use xlink:href="#DejaVuSans-6d" x="136.572266"/>
      <use xlink:href="#DejaVuSans-61" x="233.984375"/>
      <use xlink:href="#DejaVuSans-73" x="295.263672"/>
      <use xlink:href="#DejaVuSans-6b" x="347.363281"/>
      <use xlink:href="#DejaVuSans-65" x="401.648438"/>
      <use xlink:href="#DejaVuSans-64" x="463.171875"/>
     </g>
    </g>
    <g id="patch_40">
     <path d="M 829.726316 215.870016 
L 849.726316 215.870016 
L 849.726316 208.870016 
L 829.726316 208.870016 
z
" style="fill: #74c476; stroke: #ffffff; stroke-linejoin: miter"/>
    </g>
    <g id="text_32">
     <!-- Masked -->
     <g transform="translate(857.726316 215.870016) scale(0.1 -0.1)">
      <use xlink:href="#DejaVuSans-4d"/>
      <use xlink:href="#DejaVuSans-61" x="86.279297"/>
      <use xlink:href="#DejaVuSans-73" x="147.558594"/>
      <use xlink:href="#DejaVuSans-6b" x="199.658203"/>
      <use xlink:href="#DejaVuSans-65" x="253.943359"/>
      <use xlink:href="#DejaVuSans-64" x="315.466797"/>
     </g>
    </g>
    <g id="patch_41">
     <path d="M 829.726316 230.548141 
L 849.726316 230.548141 
L 849.726316 223.548141 
L 829.726316 223.548141 
z
" style="fill: #a1d99b; stroke: #ffffff; stroke-linejoin: miter"/>
    </g>
    <g id="text_33">
     <!-- Unmasked -->
     <g transform="translate(857.726316 230.548141) scale(0.1 -0.1)">
      <use xlink:href="#DejaVuSans-55"/>
      <use xlink:href="#DejaVuSans-6e" x="73.193359"/>
      <use xlink:href="#DejaVuSans-6d" x="136.572266"/>
      <use xlink:href="#DejaVuSans-61" x="233.984375"/>
      <use xlink:href="#DejaVuSans-73" x="295.263672"/>
      <use xlink:href="#DejaVuSans-6b" x="347.363281"/>
      <use xlink:href="#DejaVuSans-65" x="401.648438"/>
      <use xlink:href="#DejaVuSans-64" x="463.171875"/>
     </g>
    </g>
   </g>
  </g>
 </g>
</svg>
