<?xml version="1.0" encoding="utf-8" standalone="no"?>
<!DOCTYPE svg PUBLIC "-//W3C//DTD SVG 1.1//EN"
  "http://www.w3.org/Graphics/SVG/1.1/DTD/svg11.dtd">
<svg xmlns:xlink="http://www.w3.org/1999/xlink" width="460.8pt" height="345.6pt" viewBox="0 0 460.8 345.6" xmlns="http://www.w3.org/2000/svg" version="1.1">
 <metadata>
  <rdf:RDF xmlns:dc="http://purl.org/dc/elements/1.1/" xmlns:cc="http://creativecommons.org/ns#" xmlns:rdf="http://www.w3.org/1999/02/22-rdf-syntax-ns#">
   <cc:Work>
    <dc:type rdf:resource="http://purl.org/dc/dcmitype/StillImage"/>
    <dc:date>2023-06-07T12:32:46.819524</dc:date>
    <dc:format>image/svg+xml</dc:format>
    <dc:creator>
     <cc:Agent>
      <dc:title>Matplotlib v3.7.1, https://matplotlib.org/</dc:title>
     </cc:Agent>
    </dc:creator>
   </cc:Work>
  </rdf:RDF>
 </metadata>
 <defs>
  <style type="text/css">*{stroke-linejoin: round; stroke-linecap: butt}</style>
 </defs>
 <g id="figure_1">
  <g id="patch_1">
   <path d="M 0 345.6 
L 460.8 345.6 
L 460.8 0 
L 0 0 
z
" style="fill: #ffffff"/>
  </g>
  <g id="axes_1">
   <g id="patch_2">
    <path d="M 144.303158 172.8 
C 144.303158 165.912104 142.672988 159.121003 139.54634 152.983644 
C 136.419692 146.846284 131.884442 141.535161 126.312534 137.485847 
C 120.740625 133.436534 114.288659 130.762837 107.485771 129.684032 
C 100.682883 128.605227 93.720272 129.151633 87.168952 131.27844 
C 80.617631 133.405246 74.66173 137.052678 69.7897 141.921603 
C 64.91767 146.790528 61.266443 152.744104 59.135461 159.294067 
C 57.004479 165.84403 56.453635 172.806292 57.528104 179.609866 
C 58.602572 186.413441 61.272156 192.867109 65.317917 198.441598 
L 75.917068 190.749118 
C 73.085035 186.846977 71.216327 182.329408 70.464199 177.566906 
C 69.712071 172.804404 70.097662 167.930821 71.589349 163.345847 
C 73.081037 158.760872 75.636896 154.59337 79.047316 151.185122 
C 82.457737 147.776875 86.626868 145.223672 91.212792 143.734908 
C 95.798717 142.246143 100.672545 141.863659 105.434566 142.618822 
C 110.196588 143.373986 114.712964 145.245574 118.6133 148.080093 
C 122.513636 150.914613 125.68831 154.632399 127.876964 158.92855 
C 130.065618 163.224702 131.206737 167.978473 131.206737 172.8 
z
" style="fill: #3182bd; stroke: #ffffff; stroke-linejoin: miter"/>
   </g>
   <g id="patch_3">
    <path d="M 65.317917 198.441598 
C 70.733166 205.903047 78.375368 211.460643 87.14249 214.31296 
C 95.909612 217.165278 105.358957 217.168289 114.127894 214.321559 
L 110.084052 201.865091 
C 103.945796 203.857802 97.331255 203.855694 91.194269 201.859072 
C 85.057284 199.86245 79.707742 195.972133 75.917068 190.749118 
z
" style="fill: #e6550d; stroke: #ffffff; stroke-linejoin: miter"/>
   </g>
   <g id="patch_4">
    <path d="M 114.127894 214.321559 
C 122.896832 211.474829 130.542574 205.922104 135.962577 198.464108 
C 141.38258 191.006111 144.30316 182.019435 144.303158 172.799992 
L 131.206737 172.799994 
C 131.206738 179.253605 129.162332 185.544278 125.36833 190.764875 
C 121.574328 195.985473 116.222309 199.87238 110.084052 201.865091 
z
" style="fill: #31a354; stroke: #ffffff; stroke-linejoin: miter"/>
   </g>
   <g id="patch_5">
    <path d="M 131.206737 172.8 
C 131.206737 168.464497 130.284078 164.178222 128.500225 160.226708 
C 126.716372 156.275195 124.111834 152.74818 120.860115 149.880618 
C 117.608396 147.013056 113.78334 144.870067 109.639757 143.594409 
C 105.496173 142.318751 101.12816 141.939392 96.826695 142.481605 
C 92.525231 143.023818 88.387999 144.475288 84.690605 146.739325 
C 80.993211 149.003362 77.819619 152.028552 75.381242 155.613368 
C 72.942865 159.198184 71.295076 163.261217 70.547644 167.531807 
C 69.800211 171.802397 69.97011 176.183559 71.046021 180.383441 
L 83.732764 177.133395 
C 83.117957 174.733462 83.020873 172.229941 83.447977 169.789604 
C 83.875081 167.349267 84.816675 165.027534 86.210033 162.979067 
C 87.603391 160.930601 89.416872 159.201921 91.529669 157.908186 
C 93.642466 156.61445 96.006598 155.785039 98.464578 155.475203 
C 100.922557 155.165367 103.418565 155.382143 105.786327 156.111091 
C 108.154089 156.840038 110.339835 158.064603 112.197961 159.70321 
C 114.056086 161.341817 115.544393 163.357254 116.563738 165.615262 
C 117.583082 167.873269 118.110316 170.322569 118.110316 172.8 
z
" style="fill: #6baed6; stroke: #ffffff; stroke-linejoin: miter"/>
   </g>
   <g id="patch_6">
    <path d="M 71.046021 180.383441 
C 71.522898 182.244958 72.174303 184.057351 72.991577 185.796524 
C 73.80885 187.535697 74.788354 189.19391 75.917067 190.749116 
L 86.516219 183.056638 
C 85.87124 182.167948 85.311524 181.220398 84.84451 180.226585 
C 84.377497 179.232772 84.005265 178.197119 83.732764 177.133395 
z
" style="fill: #9ecae1; stroke: #ffffff; stroke-linejoin: miter"/>
   </g>
   <g id="patch_7">
    <path d="M 75.917067 190.749116 
C 79.323082 195.442126 83.995571 199.070107 89.386114 201.207237 
C 94.776657 203.344367 100.665768 203.903627 106.36223 202.819378 
L 103.913455 189.95393 
C 100.658334 190.573501 97.293127 190.253924 94.212817 189.032707 
C 91.132507 187.81149 88.462513 185.738358 86.516219 183.056638 
z
" style="fill: #fd8d3c; stroke: #ffffff; stroke-linejoin: miter"/>
   </g>
   <g id="patch_8">
    <path d="M 106.36223 202.819378 
C 106.991772 202.699552 107.617389 202.559953 108.238153 202.400788 
C 108.858916 202.241622 109.474519 202.062969 110.084049 201.865092 
L 106.040208 189.408624 
C 105.691906 189.521696 105.340133 189.623784 104.985411 189.714736 
C 104.630689 189.805688 104.273193 189.885459 103.913455 189.95393 
z
" style="fill: #fdae6b; stroke: #ffffff; stroke-linejoin: miter"/>
   </g>
   <g id="patch_9">
    <path d="M 110.084049 201.865092 
C 115.599426 200.074592 120.492872 196.750651 124.190034 192.283406 
C 127.887196 187.816162 130.237535 182.387506 130.965189 176.634611 
L 117.972288 174.991206 
C 117.556486 178.278575 116.213435 181.380664 114.100771 183.933375 
C 111.988108 186.486086 109.191853 188.385481 106.040208 189.408624 
z
" style="fill: #74c476; stroke: #ffffff; stroke-linejoin: miter"/>
   </g>
   <g id="patch_10">
    <path d="M 130.965189 176.634611 
C 131.045605 175.998832 131.106002 175.360682 131.14629 174.721105 
C 131.186578 174.081529 131.206737 173.440843 131.206737 172.799999 
L 118.110316 172.8 
C 118.110316 173.166196 118.098796 173.532302 118.075775 173.897774 
C 118.052753 174.263247 118.018241 174.627904 117.972288 174.991206 
z
" style="fill: #a1d99b; stroke: #ffffff; stroke-linejoin: miter"/>
   </g>
   <g id="matplotlib.axis_1"/>
   <g id="matplotlib.axis_2"/>
   <g id="text_1">
    <!-- Train -->
    <g transform="translate(61.159531 127.809581) scale(0.1 -0.1)">
     <defs>
      <path id="DejaVuSans-54" d="M -19 4666 
L 3928 4666 
L 3928 4134 
L 2272 4134 
L 2272 0 
L 1638 0 
L 1638 4134 
L -19 4134 
L -19 4666 
z
" transform="scale(0.015625)"/>
      <path id="DejaVuSans-72" d="M 2631 2963 
Q 2534 3019 2420 3045 
Q 2306 3072 2169 3072 
Q 1681 3072 1420 2755 
Q 1159 2438 1159 1844 
L 1159 0 
L 581 0 
L 581 3500 
L 1159 3500 
L 1159 2956 
Q 1341 3275 1631 3429 
Q 1922 3584 2338 3584 
Q 2397 3584 2469 3576 
Q 2541 3569 2628 3553 
L 2631 2963 
z
" transform="scale(0.015625)"/>
      <path id="DejaVuSans-61" d="M 2194 1759 
Q 1497 1759 1228 1600 
Q 959 1441 959 1056 
Q 959 750 1161 570 
Q 1363 391 1709 391 
Q 2188 391 2477 730 
Q 2766 1069 2766 1631 
L 2766 1759 
L 2194 1759 
z
M 3341 1997 
L 3341 0 
L 2766 0 
L 2766 531 
Q 2569 213 2275 61 
Q 1981 -91 1556 -91 
Q 1019 -91 701 211 
Q 384 513 384 1019 
Q 384 1609 779 1909 
Q 1175 2209 1959 2209 
L 2766 2209 
L 2766 2266 
Q 2766 2663 2505 2880 
Q 2244 3097 1772 3097 
Q 1472 3097 1187 3025 
Q 903 2953 641 2809 
L 641 3341 
Q 956 3463 1253 3523 
Q 1550 3584 1831 3584 
Q 2591 3584 2966 3190 
Q 3341 2797 3341 1997 
z
" transform="scale(0.015625)"/>
      <path id="DejaVuSans-69" d="M 603 3500 
L 1178 3500 
L 1178 0 
L 603 0 
L 603 3500 
z
M 603 4863 
L 1178 4863 
L 1178 4134 
L 603 4134 
L 603 4863 
z
" transform="scale(0.015625)"/>
      <path id="DejaVuSans-6e" d="M 3513 2113 
L 3513 0 
L 2938 0 
L 2938 2094 
Q 2938 2591 2744 2837 
Q 2550 3084 2163 3084 
Q 1697 3084 1428 2787 
Q 1159 2491 1159 1978 
L 1159 0 
L 581 0 
L 581 3500 
L 1159 3500 
L 1159 2956 
Q 1366 3272 1645 3428 
Q 1925 3584 2291 3584 
Q 2894 3584 3203 3211 
Q 3513 2838 3513 2113 
z
" transform="scale(0.015625)"/>
     </defs>
     <use xlink:href="#DejaVuSans-54"/>
     <use xlink:href="#DejaVuSans-72" x="46.333984"/>
     <use xlink:href="#DejaVuSans-61" x="87.447266"/>
     <use xlink:href="#DejaVuSans-69" x="148.726562"/>
     <use xlink:href="#DejaVuSans-6e" x="176.509766"/>
    </g>
   </g>
   <g id="text_2">
    <!-- 60.0% -->
    <g transform="translate(73.307278 140.266049) scale(0.1 -0.1)">
     <defs>
      <path id="DejaVuSans-36" d="M 2113 2584 
Q 1688 2584 1439 2293 
Q 1191 2003 1191 1497 
Q 1191 994 1439 701 
Q 1688 409 2113 409 
Q 2538 409 2786 701 
Q 3034 994 3034 1497 
Q 3034 2003 2786 2293 
Q 2538 2584 2113 2584 
z
M 3366 4563 
L 3366 3988 
Q 3128 4100 2886 4159 
Q 2644 4219 2406 4219 
Q 1781 4219 1451 3797 
Q 1122 3375 1075 2522 
Q 1259 2794 1537 2939 
Q 1816 3084 2150 3084 
Q 2853 3084 3261 2657 
Q 3669 2231 3669 1497 
Q 3669 778 3244 343 
Q 2819 -91 2113 -91 
Q 1303 -91 875 529 
Q 447 1150 447 2328 
Q 447 3434 972 4092 
Q 1497 4750 2381 4750 
Q 2619 4750 2861 4703 
Q 3103 4656 3366 4563 
z
" transform="scale(0.015625)"/>
      <path id="DejaVuSans-30" d="M 2034 4250 
Q 1547 4250 1301 3770 
Q 1056 3291 1056 2328 
Q 1056 1369 1301 889 
Q 1547 409 2034 409 
Q 2525 409 2770 889 
Q 3016 1369 3016 2328 
Q 3016 3291 2770 3770 
Q 2525 4250 2034 4250 
z
M 2034 4750 
Q 2819 4750 3233 4129 
Q 3647 3509 3647 2328 
Q 3647 1150 3233 529 
Q 2819 -91 2034 -91 
Q 1250 -91 836 529 
Q 422 1150 422 2328 
Q 422 3509 836 4129 
Q 1250 4750 2034 4750 
z
" transform="scale(0.015625)"/>
      <path id="DejaVuSans-2e" d="M 684 794 
L 1344 794 
L 1344 0 
L 684 0 
L 684 794 
z
" transform="scale(0.015625)"/>
      <path id="DejaVuSans-25" d="M 4653 2053 
Q 4381 2053 4226 1822 
Q 4072 1591 4072 1178 
Q 4072 772 4226 539 
Q 4381 306 4653 306 
Q 4919 306 5073 539 
Q 5228 772 5228 1178 
Q 5228 1588 5073 1820 
Q 4919 2053 4653 2053 
z
M 4653 2450 
Q 5147 2450 5437 2106 
Q 5728 1763 5728 1178 
Q 5728 594 5436 251 
Q 5144 -91 4653 -91 
Q 4153 -91 3862 251 
Q 3572 594 3572 1178 
Q 3572 1766 3864 2108 
Q 4156 2450 4653 2450 
z
M 1428 4353 
Q 1159 4353 1004 4120 
Q 850 3888 850 3481 
Q 850 3069 1003 2837 
Q 1156 2606 1428 2606 
Q 1700 2606 1854 2837 
Q 2009 3069 2009 3481 
Q 2009 3884 1853 4118 
Q 1697 4353 1428 4353 
z
M 4250 4750 
L 4750 4750 
L 1831 -91 
L 1331 -91 
L 4250 4750 
z
M 1428 4750 
Q 1922 4750 2215 4408 
Q 2509 4066 2509 3481 
Q 2509 2891 2217 2550 
Q 1925 2209 1428 2209 
Q 931 2209 642 2551 
Q 353 2894 353 3481 
Q 353 4063 643 4406 
Q 934 4750 1428 4750 
z
" transform="scale(0.015625)"/>
     </defs>
     <use xlink:href="#DejaVuSans-36"/>
     <use xlink:href="#DejaVuSans-30" x="63.623047"/>
     <use xlink:href="#DejaVuSans-2e" x="127.246094"/>
     <use xlink:href="#DejaVuSans-30" x="159.033203"/>
     <use xlink:href="#DejaVuSans-25" x="222.65625"/>
    </g>
   </g>
   <g id="text_3">
    <!-- Validation -->
    <g transform="translate(35.73535 223.299279) scale(0.1 -0.1)">
     <defs>
      <path id="DejaVuSans-56" d="M 1831 0 
L 50 4666 
L 709 4666 
L 2188 738 
L 3669 4666 
L 4325 4666 
L 2547 0 
L 1831 0 
z
" transform="scale(0.015625)"/>
      <path id="DejaVuSans-6c" d="M 603 4863 
L 1178 4863 
L 1178 0 
L 603 0 
L 603 4863 
z
" transform="scale(0.015625)"/>
      <path id="DejaVuSans-64" d="M 2906 2969 
L 2906 4863 
L 3481 4863 
L 3481 0 
L 2906 0 
L 2906 525 
Q 2725 213 2448 61 
Q 2172 -91 1784 -91 
Q 1150 -91 751 415 
Q 353 922 353 1747 
Q 353 2572 751 3078 
Q 1150 3584 1784 3584 
Q 2172 3584 2448 3432 
Q 2725 3281 2906 2969 
z
M 947 1747 
Q 947 1113 1208 752 
Q 1469 391 1925 391 
Q 2381 391 2643 752 
Q 2906 1113 2906 1747 
Q 2906 2381 2643 2742 
Q 2381 3103 1925 3103 
Q 1469 3103 1208 2742 
Q 947 2381 947 1747 
z
" transform="scale(0.015625)"/>
      <path id="DejaVuSans-74" d="M 1172 4494 
L 1172 3500 
L 2356 3500 
L 2356 3053 
L 1172 3053 
L 1172 1153 
Q 1172 725 1289 603 
Q 1406 481 1766 481 
L 2356 481 
L 2356 0 
L 1766 0 
Q 1100 0 847 248 
Q 594 497 594 1153 
L 594 3053 
L 172 3053 
L 172 3500 
L 594 3500 
L 594 4494 
L 1172 4494 
z
" transform="scale(0.015625)"/>
      <path id="DejaVuSans-6f" d="M 1959 3097 
Q 1497 3097 1228 2736 
Q 959 2375 959 1747 
Q 959 1119 1226 758 
Q 1494 397 1959 397 
Q 2419 397 2687 759 
Q 2956 1122 2956 1747 
Q 2956 2369 2687 2733 
Q 2419 3097 1959 3097 
z
M 1959 3584 
Q 2709 3584 3137 3096 
Q 3566 2609 3566 1747 
Q 3566 888 3137 398 
Q 2709 -91 1959 -91 
Q 1206 -91 779 398 
Q 353 888 353 1747 
Q 353 2609 779 3096 
Q 1206 3584 1959 3584 
z
" transform="scale(0.015625)"/>
     </defs>
     <use xlink:href="#DejaVuSans-56"/>
     <use xlink:href="#DejaVuSans-61" x="60.658203"/>
     <use xlink:href="#DejaVuSans-6c" x="121.9375"/>
     <use xlink:href="#DejaVuSans-69" x="149.720703"/>
     <use xlink:href="#DejaVuSans-64" x="177.503906"/>
     <use xlink:href="#DejaVuSans-61" x="240.980469"/>
     <use xlink:href="#DejaVuSans-74" x="302.259766"/>
     <use xlink:href="#DejaVuSans-69" x="341.46875"/>
     <use xlink:href="#DejaVuSans-6f" x="369.251953"/>
     <use xlink:href="#DejaVuSans-6e" x="430.433594"/>
    </g>
   </g>
   <g id="text_4">
    <!-- 20.0% -->
    <g transform="translate(73.284786 210.845391) scale(0.1 -0.1)">
     <defs>
      <path id="DejaVuSans-32" d="M 1228 531 
L 3431 531 
L 3431 0 
L 469 0 
L 469 531 
Q 828 903 1448 1529 
Q 2069 2156 2228 2338 
Q 2531 2678 2651 2914 
Q 2772 3150 2772 3378 
Q 2772 3750 2511 3984 
Q 2250 4219 1831 4219 
Q 1534 4219 1204 4116 
Q 875 4013 500 3803 
L 500 4441 
Q 881 4594 1212 4672 
Q 1544 4750 1819 4750 
Q 2544 4750 2975 4387 
Q 3406 4025 3406 3419 
Q 3406 3131 3298 2873 
Q 3191 2616 2906 2266 
Q 2828 2175 2409 1742 
Q 1991 1309 1228 531 
z
" transform="scale(0.015625)"/>
     </defs>
     <use xlink:href="#DejaVuSans-32"/>
     <use xlink:href="#DejaVuSans-30" x="63.623047"/>
     <use xlink:href="#DejaVuSans-2e" x="127.246094"/>
     <use xlink:href="#DejaVuSans-30" x="159.033203"/>
     <use xlink:href="#DejaVuSans-25" x="222.65625"/>
    </g>
   </g>
   <g id="text_5">
    <!-- Test -->
    <g transform="translate(141.259701 205.073099) scale(0.1 -0.1)">
     <defs>
      <path id="DejaVuSans-65" d="M 3597 1894 
L 3597 1613 
L 953 1613 
Q 991 1019 1311 708 
Q 1631 397 2203 397 
Q 2534 397 2845 478 
Q 3156 559 3463 722 
L 3463 178 
Q 3153 47 2828 -22 
Q 2503 -91 2169 -91 
Q 1331 -91 842 396 
Q 353 884 353 1716 
Q 353 2575 817 3079 
Q 1281 3584 2069 3584 
Q 2775 3584 3186 3129 
Q 3597 2675 3597 1894 
z
M 3022 2063 
Q 3016 2534 2758 2815 
Q 2500 3097 2075 3097 
Q 1594 3097 1305 2825 
Q 1016 2553 972 2059 
L 3022 2063 
z
" transform="scale(0.015625)"/>
      <path id="DejaVuSans-73" d="M 2834 3397 
L 2834 2853 
Q 2591 2978 2328 3040 
Q 2066 3103 1784 3103 
Q 1356 3103 1142 2972 
Q 928 2841 928 2578 
Q 928 2378 1081 2264 
Q 1234 2150 1697 2047 
L 1894 2003 
Q 2506 1872 2764 1633 
Q 3022 1394 3022 966 
Q 3022 478 2636 193 
Q 2250 -91 1575 -91 
Q 1294 -91 989 -36 
Q 684 19 347 128 
L 347 722 
Q 666 556 975 473 
Q 1284 391 1588 391 
Q 1994 391 2212 530 
Q 2431 669 2431 922 
Q 2431 1156 2273 1281 
Q 2116 1406 1581 1522 
L 1381 1569 
Q 847 1681 609 1914 
Q 372 2147 372 2553 
Q 372 3047 722 3315 
Q 1072 3584 1716 3584 
Q 2034 3584 2315 3537 
Q 2597 3491 2834 3397 
z
" transform="scale(0.015625)"/>
     </defs>
     <use xlink:href="#DejaVuSans-54"/>
     <use xlink:href="#DejaVuSans-65" x="44.083984"/>
     <use xlink:href="#DejaVuSans-73" x="105.607422"/>
     <use xlink:href="#DejaVuSans-74" x="157.707031"/>
    </g>
   </g>
   <g id="text_6">
    <!-- 20.0% -->
    <g transform="translate(114.78186 197.373867) scale(0.1 -0.1)">
     <use xlink:href="#DejaVuSans-32"/>
     <use xlink:href="#DejaVuSans-30" x="63.623047"/>
     <use xlink:href="#DejaVuSans-2e" x="127.246094"/>
     <use xlink:href="#DejaVuSans-30" x="159.033203"/>
     <use xlink:href="#DejaVuSans-25" x="222.65625"/>
    </g>
   </g>
   <g id="text_7">
    <g id="patch_11">
     <path d="M 35.166316 284.257605 
L 154.263816 284.257605 
Q 156.663816 284.257605 156.663816 281.857605 
L 156.663816 238.282105 
Q 156.663816 235.882105 154.263816 235.882105 
L 35.166316 235.882105 
Q 32.766316 235.882105 32.766316 238.282105 
L 32.766316 281.857605 
Q 32.766316 284.257605 35.166316 284.257605 
z
" style="fill: #f5deb3; opacity: 0.5; stroke: #000000; stroke-linejoin: miter"/>
    </g>
    <!--        Masked  Unmasked  Total -->
    <g transform="translate(35.166316 244.360855) scale(0.08 -0.08)">
     <defs>
      <path id="DejaVuSans-20" transform="scale(0.015625)"/>
      <path id="DejaVuSans-4d" d="M 628 4666 
L 1569 4666 
L 2759 1491 
L 3956 4666 
L 4897 4666 
L 4897 0 
L 4281 0 
L 4281 4097 
L 3078 897 
L 2444 897 
L 1241 4097 
L 1241 0 
L 628 0 
L 628 4666 
z
" transform="scale(0.015625)"/>
      <path id="DejaVuSans-6b" d="M 581 4863 
L 1159 4863 
L 1159 1991 
L 2875 3500 
L 3609 3500 
L 1753 1863 
L 3688 0 
L 2938 0 
L 1159 1709 
L 1159 0 
L 581 0 
L 581 4863 
z
" transform="scale(0.015625)"/>
      <path id="DejaVuSans-55" d="M 556 4666 
L 1191 4666 
L 1191 1831 
Q 1191 1081 1462 751 
Q 1734 422 2344 422 
Q 2950 422 3222 751 
Q 3494 1081 3494 1831 
L 3494 4666 
L 4128 4666 
L 4128 1753 
Q 4128 841 3676 375 
Q 3225 -91 2344 -91 
Q 1459 -91 1007 375 
Q 556 841 556 1753 
L 556 4666 
z
" transform="scale(0.015625)"/>
      <path id="DejaVuSans-6d" d="M 3328 2828 
Q 3544 3216 3844 3400 
Q 4144 3584 4550 3584 
Q 5097 3584 5394 3201 
Q 5691 2819 5691 2113 
L 5691 0 
L 5113 0 
L 5113 2094 
Q 5113 2597 4934 2840 
Q 4756 3084 4391 3084 
Q 3944 3084 3684 2787 
Q 3425 2491 3425 1978 
L 3425 0 
L 2847 0 
L 2847 2094 
Q 2847 2600 2669 2842 
Q 2491 3084 2119 3084 
Q 1678 3084 1418 2786 
Q 1159 2488 1159 1978 
L 1159 0 
L 581 0 
L 581 3500 
L 1159 3500 
L 1159 2956 
Q 1356 3278 1631 3431 
Q 1906 3584 2284 3584 
Q 2666 3584 2933 3390 
Q 3200 3197 3328 2828 
z
" transform="scale(0.015625)"/>
     </defs>
     <use xlink:href="#DejaVuSans-20"/>
     <use xlink:href="#DejaVuSans-20" x="31.787109"/>
     <use xlink:href="#DejaVuSans-20" x="63.574219"/>
     <use xlink:href="#DejaVuSans-20" x="95.361328"/>
     <use xlink:href="#DejaVuSans-20" x="127.148438"/>
     <use xlink:href="#DejaVuSans-20" x="158.935547"/>
     <use xlink:href="#DejaVuSans-20" x="190.722656"/>
     <use xlink:href="#DejaVuSans-4d" x="222.509766"/>
     <use xlink:href="#DejaVuSans-61" x="308.789062"/>
     <use xlink:href="#DejaVuSans-73" x="370.068359"/>
     <use xlink:href="#DejaVuSans-6b" x="422.167969"/>
     <use xlink:href="#DejaVuSans-65" x="476.453125"/>
     <use xlink:href="#DejaVuSans-64" x="537.976562"/>
     <use xlink:href="#DejaVuSans-20" x="601.453125"/>
     <use xlink:href="#DejaVuSans-20" x="633.240234"/>
     <use xlink:href="#DejaVuSans-55" x="665.027344"/>
     <use xlink:href="#DejaVuSans-6e" x="738.220703"/>
     <use xlink:href="#DejaVuSans-6d" x="801.599609"/>
     <use xlink:href="#DejaVuSans-61" x="899.011719"/>
     <use xlink:href="#DejaVuSans-73" x="960.291016"/>
     <use xlink:href="#DejaVuSans-6b" x="1012.390625"/>
     <use xlink:href="#DejaVuSans-65" x="1066.675781"/>
     <use xlink:href="#DejaVuSans-64" x="1128.199219"/>
     <use xlink:href="#DejaVuSans-20" x="1191.675781"/>
     <use xlink:href="#DejaVuSans-20" x="1223.462891"/>
     <use xlink:href="#DejaVuSans-54" x="1255.25"/>
     <use xlink:href="#DejaVuSans-6f" x="1299.333984"/>
     <use xlink:href="#DejaVuSans-74" x="1360.515625"/>
     <use xlink:href="#DejaVuSans-61" x="1399.724609"/>
     <use xlink:href="#DejaVuSans-6c" x="1461.003906"/>
    </g>
    <!-- Train    7981       887   8868 -->
    <g transform="translate(35.166316 253.319105) scale(0.08 -0.08)">
     <defs>
      <path id="DejaVuSans-37" d="M 525 4666 
L 3525 4666 
L 3525 4397 
L 1831 0 
L 1172 0 
L 2766 4134 
L 525 4134 
L 525 4666 
z
" transform="scale(0.015625)"/>
      <path id="DejaVuSans-39" d="M 703 97 
L 703 672 
Q 941 559 1184 500 
Q 1428 441 1663 441 
Q 2288 441 2617 861 
Q 2947 1281 2994 2138 
Q 2813 1869 2534 1725 
Q 2256 1581 1919 1581 
Q 1219 1581 811 2004 
Q 403 2428 403 3163 
Q 403 3881 828 4315 
Q 1253 4750 1959 4750 
Q 2769 4750 3195 4129 
Q 3622 3509 3622 2328 
Q 3622 1225 3098 567 
Q 2575 -91 1691 -91 
Q 1453 -91 1209 -44 
Q 966 3 703 97 
z
M 1959 2075 
Q 2384 2075 2632 2365 
Q 2881 2656 2881 3163 
Q 2881 3666 2632 3958 
Q 2384 4250 1959 4250 
Q 1534 4250 1286 3958 
Q 1038 3666 1038 3163 
Q 1038 2656 1286 2365 
Q 1534 2075 1959 2075 
z
" transform="scale(0.015625)"/>
      <path id="DejaVuSans-38" d="M 2034 2216 
Q 1584 2216 1326 1975 
Q 1069 1734 1069 1313 
Q 1069 891 1326 650 
Q 1584 409 2034 409 
Q 2484 409 2743 651 
Q 3003 894 3003 1313 
Q 3003 1734 2745 1975 
Q 2488 2216 2034 2216 
z
M 1403 2484 
Q 997 2584 770 2862 
Q 544 3141 544 3541 
Q 544 4100 942 4425 
Q 1341 4750 2034 4750 
Q 2731 4750 3128 4425 
Q 3525 4100 3525 3541 
Q 3525 3141 3298 2862 
Q 3072 2584 2669 2484 
Q 3125 2378 3379 2068 
Q 3634 1759 3634 1313 
Q 3634 634 3220 271 
Q 2806 -91 2034 -91 
Q 1263 -91 848 271 
Q 434 634 434 1313 
Q 434 1759 690 2068 
Q 947 2378 1403 2484 
z
M 1172 3481 
Q 1172 3119 1398 2916 
Q 1625 2713 2034 2713 
Q 2441 2713 2670 2916 
Q 2900 3119 2900 3481 
Q 2900 3844 2670 4047 
Q 2441 4250 2034 4250 
Q 1625 4250 1398 4047 
Q 1172 3844 1172 3481 
z
" transform="scale(0.015625)"/>
      <path id="DejaVuSans-31" d="M 794 531 
L 1825 531 
L 1825 4091 
L 703 3866 
L 703 4441 
L 1819 4666 
L 2450 4666 
L 2450 531 
L 3481 531 
L 3481 0 
L 794 0 
L 794 531 
z
" transform="scale(0.015625)"/>
     </defs>
     <use xlink:href="#DejaVuSans-54"/>
     <use xlink:href="#DejaVuSans-72" x="46.333984"/>
     <use xlink:href="#DejaVuSans-61" x="87.447266"/>
     <use xlink:href="#DejaVuSans-69" x="148.726562"/>
     <use xlink:href="#DejaVuSans-6e" x="176.509766"/>
     <use xlink:href="#DejaVuSans-20" x="239.888672"/>
     <use xlink:href="#DejaVuSans-20" x="271.675781"/>
     <use xlink:href="#DejaVuSans-20" x="303.462891"/>
     <use xlink:href="#DejaVuSans-20" x="335.25"/>
     <use xlink:href="#DejaVuSans-37" x="367.037109"/>
     <use xlink:href="#DejaVuSans-39" x="430.660156"/>
     <use xlink:href="#DejaVuSans-38" x="494.283203"/>
     <use xlink:href="#DejaVuSans-31" x="557.90625"/>
     <use xlink:href="#DejaVuSans-20" x="621.529297"/>
     <use xlink:href="#DejaVuSans-20" x="653.316406"/>
     <use xlink:href="#DejaVuSans-20" x="685.103516"/>
     <use xlink:href="#DejaVuSans-20" x="716.890625"/>
     <use xlink:href="#DejaVuSans-20" x="748.677734"/>
     <use xlink:href="#DejaVuSans-20" x="780.464844"/>
     <use xlink:href="#DejaVuSans-20" x="812.251953"/>
     <use xlink:href="#DejaVuSans-38" x="844.039062"/>
     <use xlink:href="#DejaVuSans-38" x="907.662109"/>
     <use xlink:href="#DejaVuSans-37" x="971.285156"/>
     <use xlink:href="#DejaVuSans-20" x="1034.908203"/>
     <use xlink:href="#DejaVuSans-20" x="1066.695312"/>
     <use xlink:href="#DejaVuSans-20" x="1098.482422"/>
     <use xlink:href="#DejaVuSans-38" x="1130.269531"/>
     <use xlink:href="#DejaVuSans-38" x="1193.892578"/>
     <use xlink:href="#DejaVuSans-36" x="1257.515625"/>
     <use xlink:href="#DejaVuSans-38" x="1321.138672"/>
    </g>
    <!-- Val      2661       296   2957 -->
    <g transform="translate(35.166316 262.277355) scale(0.08 -0.08)">
     <defs>
      <path id="DejaVuSans-35" d="M 691 4666 
L 3169 4666 
L 3169 4134 
L 1269 4134 
L 1269 2991 
Q 1406 3038 1543 3061 
Q 1681 3084 1819 3084 
Q 2600 3084 3056 2656 
Q 3513 2228 3513 1497 
Q 3513 744 3044 326 
Q 2575 -91 1722 -91 
Q 1428 -91 1123 -41 
Q 819 9 494 109 
L 494 744 
Q 775 591 1075 516 
Q 1375 441 1709 441 
Q 2250 441 2565 725 
Q 2881 1009 2881 1497 
Q 2881 1984 2565 2268 
Q 2250 2553 1709 2553 
Q 1456 2553 1204 2497 
Q 953 2441 691 2322 
L 691 4666 
z
" transform="scale(0.015625)"/>
     </defs>
     <use xlink:href="#DejaVuSans-56"/>
     <use xlink:href="#DejaVuSans-61" x="60.658203"/>
     <use xlink:href="#DejaVuSans-6c" x="121.9375"/>
     <use xlink:href="#DejaVuSans-20" x="149.720703"/>
     <use xlink:href="#DejaVuSans-20" x="181.507812"/>
     <use xlink:href="#DejaVuSans-20" x="213.294922"/>
     <use xlink:href="#DejaVuSans-20" x="245.082031"/>
     <use xlink:href="#DejaVuSans-20" x="276.869141"/>
     <use xlink:href="#DejaVuSans-20" x="308.65625"/>
     <use xlink:href="#DejaVuSans-32" x="340.443359"/>
     <use xlink:href="#DejaVuSans-36" x="404.066406"/>
     <use xlink:href="#DejaVuSans-36" x="467.689453"/>
     <use xlink:href="#DejaVuSans-31" x="531.3125"/>
     <use xlink:href="#DejaVuSans-20" x="594.935547"/>
     <use xlink:href="#DejaVuSans-20" x="626.722656"/>
     <use xlink:href="#DejaVuSans-20" x="658.509766"/>
     <use xlink:href="#DejaVuSans-20" x="690.296875"/>
     <use xlink:href="#DejaVuSans-20" x="722.083984"/>
     <use xlink:href="#DejaVuSans-20" x="753.871094"/>
     <use xlink:href="#DejaVuSans-20" x="785.658203"/>
     <use xlink:href="#DejaVuSans-32" x="817.445312"/>
     <use xlink:href="#DejaVuSans-39" x="881.068359"/>
     <use xlink:href="#DejaVuSans-36" x="944.691406"/>
     <use xlink:href="#DejaVuSans-20" x="1008.314453"/>
     <use xlink:href="#DejaVuSans-20" x="1040.101562"/>
     <use xlink:href="#DejaVuSans-20" x="1071.888672"/>
     <use xlink:href="#DejaVuSans-32" x="1103.675781"/>
     <use xlink:href="#DejaVuSans-39" x="1167.298828"/>
     <use xlink:href="#DejaVuSans-35" x="1230.921875"/>
     <use xlink:href="#DejaVuSans-37" x="1294.544922"/>
    </g>
    <!-- Test     2661       296   2957 -->
    <g transform="translate(35.166316 271.235605) scale(0.08 -0.08)">
     <use xlink:href="#DejaVuSans-54"/>
     <use xlink:href="#DejaVuSans-65" x="44.083984"/>
     <use xlink:href="#DejaVuSans-73" x="105.607422"/>
     <use xlink:href="#DejaVuSans-74" x="157.707031"/>
     <use xlink:href="#DejaVuSans-20" x="196.916016"/>
     <use xlink:href="#DejaVuSans-20" x="228.703125"/>
     <use xlink:href="#DejaVuSans-20" x="260.490234"/>
     <use xlink:href="#DejaVuSans-20" x="292.277344"/>
     <use xlink:href="#DejaVuSans-20" x="324.064453"/>
     <use xlink:href="#DejaVuSans-32" x="355.851562"/>
     <use xlink:href="#DejaVuSans-36" x="419.474609"/>
     <use xlink:href="#DejaVuSans-36" x="483.097656"/>
     <use xlink:href="#DejaVuSans-31" x="546.720703"/>
     <use xlink:href="#DejaVuSans-20" x="610.34375"/>
     <use xlink:href="#DejaVuSans-20" x="642.130859"/>
     <use xlink:href="#DejaVuSans-20" x="673.917969"/>
     <use xlink:href="#DejaVuSans-20" x="705.705078"/>
     <use xlink:href="#DejaVuSans-20" x="737.492188"/>
     <use xlink:href="#DejaVuSans-20" x="769.279297"/>
     <use xlink:href="#DejaVuSans-20" x="801.066406"/>
     <use xlink:href="#DejaVuSans-32" x="832.853516"/>
     <use xlink:href="#DejaVuSans-39" x="896.476562"/>
     <use xlink:href="#DejaVuSans-36" x="960.099609"/>
     <use xlink:href="#DejaVuSans-20" x="1023.722656"/>
     <use xlink:href="#DejaVuSans-20" x="1055.509766"/>
     <use xlink:href="#DejaVuSans-20" x="1087.296875"/>
     <use xlink:href="#DejaVuSans-32" x="1119.083984"/>
     <use xlink:href="#DejaVuSans-39" x="1182.707031"/>
     <use xlink:href="#DejaVuSans-35" x="1246.330078"/>
     <use xlink:href="#DejaVuSans-37" x="1309.953125"/>
    </g>
    <!-- Total   13303      1479  14782 -->
    <g transform="translate(35.166316 280.193855) scale(0.08 -0.08)">
     <defs>
      <path id="DejaVuSans-33" d="M 2597 2516 
Q 3050 2419 3304 2112 
Q 3559 1806 3559 1356 
Q 3559 666 3084 287 
Q 2609 -91 1734 -91 
Q 1441 -91 1130 -33 
Q 819 25 488 141 
L 488 750 
Q 750 597 1062 519 
Q 1375 441 1716 441 
Q 2309 441 2620 675 
Q 2931 909 2931 1356 
Q 2931 1769 2642 2001 
Q 2353 2234 1838 2234 
L 1294 2234 
L 1294 2753 
L 1863 2753 
Q 2328 2753 2575 2939 
Q 2822 3125 2822 3475 
Q 2822 3834 2567 4026 
Q 2313 4219 1838 4219 
Q 1578 4219 1281 4162 
Q 984 4106 628 3988 
L 628 4550 
Q 988 4650 1302 4700 
Q 1616 4750 1894 4750 
Q 2613 4750 3031 4423 
Q 3450 4097 3450 3541 
Q 3450 3153 3228 2886 
Q 3006 2619 2597 2516 
z
" transform="scale(0.015625)"/>
      <path id="DejaVuSans-34" d="M 2419 4116 
L 825 1625 
L 2419 1625 
L 2419 4116 
z
M 2253 4666 
L 3047 4666 
L 3047 1625 
L 3713 1625 
L 3713 1100 
L 3047 1100 
L 3047 0 
L 2419 0 
L 2419 1100 
L 313 1100 
L 313 1709 
L 2253 4666 
z
" transform="scale(0.015625)"/>
     </defs>
     <use xlink:href="#DejaVuSans-54"/>
     <use xlink:href="#DejaVuSans-6f" x="44.083984"/>
     <use xlink:href="#DejaVuSans-74" x="105.265625"/>
     <use xlink:href="#DejaVuSans-61" x="144.474609"/>
     <use xlink:href="#DejaVuSans-6c" x="205.753906"/>
     <use xlink:href="#DejaVuSans-20" x="233.537109"/>
     <use xlink:href="#DejaVuSans-20" x="265.324219"/>
     <use xlink:href="#DejaVuSans-20" x="297.111328"/>
     <use xlink:href="#DejaVuSans-31" x="328.898438"/>
     <use xlink:href="#DejaVuSans-33" x="392.521484"/>
     <use xlink:href="#DejaVuSans-33" x="456.144531"/>
     <use xlink:href="#DejaVuSans-30" x="519.767578"/>
     <use xlink:href="#DejaVuSans-33" x="583.390625"/>
     <use xlink:href="#DejaVuSans-20" x="647.013672"/>
     <use xlink:href="#DejaVuSans-20" x="678.800781"/>
     <use xlink:href="#DejaVuSans-20" x="710.587891"/>
     <use xlink:href="#DejaVuSans-20" x="742.375"/>
     <use xlink:href="#DejaVuSans-20" x="774.162109"/>
     <use xlink:href="#DejaVuSans-20" x="805.949219"/>
     <use xlink:href="#DejaVuSans-31" x="837.736328"/>
     <use xlink:href="#DejaVuSans-34" x="901.359375"/>
     <use xlink:href="#DejaVuSans-37" x="964.982422"/>
     <use xlink:href="#DejaVuSans-39" x="1028.605469"/>
     <use xlink:href="#DejaVuSans-20" x="1092.228516"/>
     <use xlink:href="#DejaVuSans-20" x="1124.015625"/>
     <use xlink:href="#DejaVuSans-31" x="1155.802734"/>
     <use xlink:href="#DejaVuSans-34" x="1219.425781"/>
     <use xlink:href="#DejaVuSans-37" x="1283.048828"/>
     <use xlink:href="#DejaVuSans-38" x="1346.671875"/>
     <use xlink:href="#DejaVuSans-32" x="1410.294922"/>
    </g>
   </g>
   <g id="text_8">
    <!-- Masked: 90 % -->
    <g transform="translate(65.724984 101.033766) scale(0.1 -0.1)">
     <defs>
      <path id="DejaVuSans-3a" d="M 750 794 
L 1409 794 
L 1409 0 
L 750 0 
L 750 794 
z
M 750 3309 
L 1409 3309 
L 1409 2516 
L 750 2516 
L 750 3309 
z
" transform="scale(0.015625)"/>
     </defs>
     <use xlink:href="#DejaVuSans-4d"/>
     <use xlink:href="#DejaVuSans-61" x="86.279297"/>
     <use xlink:href="#DejaVuSans-73" x="147.558594"/>
     <use xlink:href="#DejaVuSans-6b" x="199.658203"/>
     <use xlink:href="#DejaVuSans-65" x="253.943359"/>
     <use xlink:href="#DejaVuSans-64" x="315.466797"/>
     <use xlink:href="#DejaVuSans-3a" x="378.943359"/>
     <use xlink:href="#DejaVuSans-20" x="412.634766"/>
     <use xlink:href="#DejaVuSans-39" x="444.421875"/>
     <use xlink:href="#DejaVuSans-30" x="508.044922"/>
     <use xlink:href="#DejaVuSans-20" x="571.667969"/>
     <use xlink:href="#DejaVuSans-25" x="603.455078"/>
    </g>
    <!-- Unmasked: 10 % -->
    <g transform="translate(58.340609 112.231579) scale(0.1 -0.1)">
     <use xlink:href="#DejaVuSans-55"/>
     <use xlink:href="#DejaVuSans-6e" x="73.193359"/>
     <use xlink:href="#DejaVuSans-6d" x="136.572266"/>
     <use xlink:href="#DejaVuSans-61" x="233.984375"/>
     <use xlink:href="#DejaVuSans-73" x="295.263672"/>
     <use xlink:href="#DejaVuSans-6b" x="347.363281"/>
     <use xlink:href="#DejaVuSans-65" x="401.648438"/>
     <use xlink:href="#DejaVuSans-64" x="463.171875"/>
     <use xlink:href="#DejaVuSans-3a" x="526.648438"/>
     <use xlink:href="#DejaVuSans-20" x="560.339844"/>
     <use xlink:href="#DejaVuSans-31" x="592.126953"/>
     <use xlink:href="#DejaVuSans-30" x="655.75"/>
     <use xlink:href="#DejaVuSans-20" x="719.373047"/>
     <use xlink:href="#DejaVuSans-25" x="751.160156"/>
    </g>
   </g>
  </g>
  <g id="axes_2">
   <g id="patch_12">
    <path d="M 297.094737 172.8 
C 297.094737 165.91214 295.464583 159.121072 292.337966 152.983736 
C 289.211349 146.846401 284.676142 141.53529 279.104281 137.48597 
C 273.532421 133.43665 267.080505 130.762929 260.277659 129.684081 
C 253.474814 128.605233 246.512234 129.151578 239.960927 131.278311 
C 233.40962 133.405044 227.453711 137.052393 222.581648 141.921235 
C 217.709585 146.790077 214.058299 152.743573 211.927234 159.293472 
C 209.796169 165.843372 209.245219 172.805588 210.319569 179.609146 
C 211.393918 186.412703 214.063372 192.866386 218.109006 198.440923 
L 228.708304 190.748646 
C 225.87636 186.84647 224.007743 182.328892 223.255698 177.566402 
C 222.503654 172.803912 222.889318 167.93036 224.381064 163.345431 
C 225.872809 158.760501 228.428709 154.593054 231.839153 151.184864 
C 235.249597 147.776675 239.418734 145.223531 244.004649 143.734818 
C 248.590564 142.246105 253.46437 141.863663 258.226361 142.618857 
C 262.988353 143.374051 267.504694 145.245655 271.404997 148.080179 
C 275.305299 150.914703 278.479944 154.632481 280.668576 158.928616 
C 282.857208 163.22475 283.998316 167.978498 283.998316 172.8 
z
" style="fill: #3182bd; stroke: #ffffff; stroke-linejoin: miter"/>
   </g>
   <g id="patch_13">
    <path d="M 218.109006 198.440923 
C 223.523327 205.901393 231.164011 211.458632 239.929551 214.31149 
C 248.69509 217.164348 258.142997 217.16881 266.911228 214.324235 
L 262.869859 201.866964 
C 256.732098 203.858167 250.118563 203.855043 243.982685 201.858043 
C 237.846808 199.861043 232.498329 195.970975 228.708304 190.748646 
z
" style="fill: #e6550d; stroke: #ffffff; stroke-linejoin: miter"/>
   </g>
   <g id="patch_14">
    <path d="M 266.911228 214.324235 
C 275.682137 211.47879 283.329992 205.926271 288.751605 198.467617 
C 294.173219 191.008964 297.094737 182.020922 297.094737 172.8 
L 283.998316 172.8 
C 283.998316 179.254646 281.953253 185.546274 278.158124 190.767332 
C 274.362994 195.98839 269.009496 199.875153 262.869859 201.866964 
z
" style="fill: #31a354; stroke: #ffffff; stroke-linejoin: miter"/>
   </g>
   <g id="patch_15">
    <path d="M 283.998316 172.8 
C 283.998316 165.031028 281.035607 157.547129 275.717871 151.883329 
C 270.400136 146.21953 263.11763 142.791483 255.364073 142.302318 
C 247.610516 141.813153 239.954923 144.298767 233.967536 149.249336 
C 227.980149 154.199904 224.100368 161.252116 223.123979 168.959489 
L 236.116559 170.605422 
C 236.674496 166.201209 238.891513 162.171374 242.312877 159.342477 
C 245.734241 156.513581 250.108866 155.09323 254.53947 155.372753 
C 258.970075 155.652276 263.131506 157.61116 266.170212 160.847617 
C 269.208918 164.084073 270.901895 168.360587 270.901895 172.8 
z
" style="fill: #6baed6; stroke: #ffffff; stroke-linejoin: miter"/>
   </g>
   <g id="patch_16">
    <path d="M 223.123979 168.959489 
C 222.640059 172.779432 222.882463 176.656648 223.838402 180.386571 
C 224.794341 184.116494 226.446702 187.632352 228.708305 190.748647 
L 239.307603 183.05637 
C 238.015258 181.27563 237.071052 179.266568 236.524801 177.135183 
C 235.97855 175.003799 235.840034 172.788247 236.116559 170.605422 
z
" style="fill: #9ecae1; stroke: #ffffff; stroke-linejoin: miter"/>
   </g>
   <g id="patch_17">
    <path d="M 228.708305 190.748647 
C 231.731783 194.91474 235.759484 198.250104 240.416157 200.44399 
C 245.072831 202.637877 250.209223 203.619969 255.346788 203.298768 
L 254.529593 190.227867 
C 251.593842 190.411411 248.65876 189.850215 245.997804 188.596566 
C 243.336848 187.342916 241.035304 185.436994 239.307603 183.05637 
z
" style="fill: #fd8d3c; stroke: #ffffff; stroke-linejoin: miter"/>
   </g>
   <g id="patch_18">
    <path d="M 255.346788 203.298768 
C 256.62443 203.218889 257.895791 203.058806 259.153354 202.819465 
C 260.410917 202.580123 261.652199 202.261996 262.86986 201.866964 
L 258.828491 189.409694 
C 258.132685 189.635426 257.423381 189.817213 256.704774 189.95398 
C 255.986166 190.090746 255.259674 190.182222 254.529593 190.227867 
z
" style="fill: #fdae6b; stroke: #ffffff; stroke-linejoin: miter"/>
   </g>
   <g id="patch_19">
    <path d="M 262.86986 201.866964 
C 267.766235 200.27849 272.182772 197.478268 275.707989 193.727191 
C 279.233207 189.976113 281.754119 185.394407 283.035856 180.408939 
L 270.351918 177.147965 
C 269.619497 179.996804 268.178976 182.614922 266.164565 184.758395 
C 264.150155 186.901868 261.62642 188.501994 258.828491 189.409694 
z
" style="fill: #74c476; stroke: #ffffff; stroke-linejoin: miter"/>
   </g>
   <g id="patch_20">
    <path d="M 283.035856 180.408939 
C 283.355087 179.167255 283.595859 177.906712 283.756746 176.634784 
C 283.917633 175.362857 283.998316 174.082063 283.998316 172.800001 
L 270.901895 172.8 
C 270.901895 173.532608 270.85579 174.264489 270.763855 174.991305 
C 270.671919 175.718121 270.534335 176.438432 270.351918 177.147965 
z
" style="fill: #a1d99b; stroke: #ffffff; stroke-linejoin: miter"/>
   </g>
   <g id="matplotlib.axis_3"/>
   <g id="matplotlib.axis_4"/>
   <g id="text_9">
    <!-- Train -->
    <g transform="translate(213.951566 127.809433) scale(0.1 -0.1)">
     <use xlink:href="#DejaVuSans-54"/>
     <use xlink:href="#DejaVuSans-72" x="46.333984"/>
     <use xlink:href="#DejaVuSans-61" x="87.447266"/>
     <use xlink:href="#DejaVuSans-69" x="148.726562"/>
     <use xlink:href="#DejaVuSans-6e" x="176.509766"/>
    </g>
   </g>
   <g id="text_10">
    <!-- 60.0% -->
    <g transform="translate(226.099194 140.26594) scale(0.1 -0.1)">
     <use xlink:href="#DejaVuSans-36"/>
     <use xlink:href="#DejaVuSans-30" x="63.623047"/>
     <use xlink:href="#DejaVuSans-2e" x="127.246094"/>
     <use xlink:href="#DejaVuSans-30" x="159.033203"/>
     <use xlink:href="#DejaVuSans-25" x="222.65625"/>
    </g>
   </g>
   <g id="text_11">
    <!-- Validation -->
    <g transform="translate(188.521733 223.297589) scale(0.1 -0.1)">
     <use xlink:href="#DejaVuSans-56"/>
     <use xlink:href="#DejaVuSans-61" x="60.658203"/>
     <use xlink:href="#DejaVuSans-6c" x="121.9375"/>
     <use xlink:href="#DejaVuSans-69" x="149.720703"/>
     <use xlink:href="#DejaVuSans-64" x="177.503906"/>
     <use xlink:href="#DejaVuSans-61" x="240.980469"/>
     <use xlink:href="#DejaVuSans-74" x="302.259766"/>
     <use xlink:href="#DejaVuSans-69" x="341.46875"/>
     <use xlink:href="#DejaVuSans-6f" x="369.251953"/>
     <use xlink:href="#DejaVuSans-6e" x="430.433594"/>
    </g>
   </g>
   <g id="text_12">
    <!-- 20.0% -->
    <g transform="translate(226.072524 210.844142) scale(0.1 -0.1)">
     <use xlink:href="#DejaVuSans-32"/>
     <use xlink:href="#DejaVuSans-30" x="63.623047"/>
     <use xlink:href="#DejaVuSans-2e" x="127.246094"/>
     <use xlink:href="#DejaVuSans-30" x="159.033203"/>
     <use xlink:href="#DejaVuSans-25" x="222.65625"/>
    </g>
   </g>
   <g id="text_13">
    <!-- Test -->
    <g transform="translate(294.048346 205.077135) scale(0.1 -0.1)">
     <use xlink:href="#DejaVuSans-54"/>
     <use xlink:href="#DejaVuSans-65" x="44.083984"/>
     <use xlink:href="#DejaVuSans-73" x="105.607422"/>
     <use xlink:href="#DejaVuSans-74" x="157.707031"/>
    </g>
   </g>
   <g id="text_14">
    <!-- 20.0% -->
    <g transform="translate(267.571271 197.37685) scale(0.1 -0.1)">
     <use xlink:href="#DejaVuSans-32"/>
     <use xlink:href="#DejaVuSans-30" x="63.623047"/>
     <use xlink:href="#DejaVuSans-2e" x="127.246094"/>
     <use xlink:href="#DejaVuSans-30" x="159.033203"/>
     <use xlink:href="#DejaVuSans-25" x="222.65625"/>
    </g>
   </g>
   <g id="text_15">
    <g id="patch_21">
     <path d="M 187.957895 284.257605 
L 307.055395 284.257605 
Q 309.455395 284.257605 309.455395 281.857605 
L 309.455395 238.282105 
Q 309.455395 235.882105 307.055395 235.882105 
L 187.957895 235.882105 
Q 185.557895 235.882105 185.557895 238.282105 
L 185.557895 281.857605 
Q 185.557895 284.257605 187.957895 284.257605 
z
" style="fill: #f5deb3; opacity: 0.5; stroke: #000000; stroke-linejoin: miter"/>
    </g>
    <!--        Masked  Unmasked  Total -->
    <g transform="translate(187.957895 244.360855) scale(0.08 -0.08)">
     <use xlink:href="#DejaVuSans-20"/>
     <use xlink:href="#DejaVuSans-20" x="31.787109"/>
     <use xlink:href="#DejaVuSans-20" x="63.574219"/>
     <use xlink:href="#DejaVuSans-20" x="95.361328"/>
     <use xlink:href="#DejaVuSans-20" x="127.148438"/>
     <use xlink:href="#DejaVuSans-20" x="158.935547"/>
     <use xlink:href="#DejaVuSans-20" x="190.722656"/>
     <use xlink:href="#DejaVuSans-4d" x="222.509766"/>
     <use xlink:href="#DejaVuSans-61" x="308.789062"/>
     <use xlink:href="#DejaVuSans-73" x="370.068359"/>
     <use xlink:href="#DejaVuSans-6b" x="422.167969"/>
     <use xlink:href="#DejaVuSans-65" x="476.453125"/>
     <use xlink:href="#DejaVuSans-64" x="537.976562"/>
     <use xlink:href="#DejaVuSans-20" x="601.453125"/>
     <use xlink:href="#DejaVuSans-20" x="633.240234"/>
     <use xlink:href="#DejaVuSans-55" x="665.027344"/>
     <use xlink:href="#DejaVuSans-6e" x="738.220703"/>
     <use xlink:href="#DejaVuSans-6d" x="801.599609"/>
     <use xlink:href="#DejaVuSans-61" x="899.011719"/>
     <use xlink:href="#DejaVuSans-73" x="960.291016"/>
     <use xlink:href="#DejaVuSans-6b" x="1012.390625"/>
     <use xlink:href="#DejaVuSans-65" x="1066.675781"/>
     <use xlink:href="#DejaVuSans-64" x="1128.199219"/>
     <use xlink:href="#DejaVuSans-20" x="1191.675781"/>
     <use xlink:href="#DejaVuSans-20" x="1223.462891"/>
     <use xlink:href="#DejaVuSans-54" x="1255.25"/>
     <use xlink:href="#DejaVuSans-6f" x="1299.333984"/>
     <use xlink:href="#DejaVuSans-74" x="1360.515625"/>
     <use xlink:href="#DejaVuSans-61" x="1399.724609"/>
     <use xlink:href="#DejaVuSans-6c" x="1461.003906"/>
    </g>
    <!-- Train    7981      1995   9976 -->
    <g transform="translate(187.957895 253.319105) scale(0.08 -0.08)">
     <use xlink:href="#DejaVuSans-54"/>
     <use xlink:href="#DejaVuSans-72" x="46.333984"/>
     <use xlink:href="#DejaVuSans-61" x="87.447266"/>
     <use xlink:href="#DejaVuSans-69" x="148.726562"/>
     <use xlink:href="#DejaVuSans-6e" x="176.509766"/>
     <use xlink:href="#DejaVuSans-20" x="239.888672"/>
     <use xlink:href="#DejaVuSans-20" x="271.675781"/>
     <use xlink:href="#DejaVuSans-20" x="303.462891"/>
     <use xlink:href="#DejaVuSans-20" x="335.25"/>
     <use xlink:href="#DejaVuSans-37" x="367.037109"/>
     <use xlink:href="#DejaVuSans-39" x="430.660156"/>
     <use xlink:href="#DejaVuSans-38" x="494.283203"/>
     <use xlink:href="#DejaVuSans-31" x="557.90625"/>
     <use xlink:href="#DejaVuSans-20" x="621.529297"/>
     <use xlink:href="#DejaVuSans-20" x="653.316406"/>
     <use xlink:href="#DejaVuSans-20" x="685.103516"/>
     <use xlink:href="#DejaVuSans-20" x="716.890625"/>
     <use xlink:href="#DejaVuSans-20" x="748.677734"/>
     <use xlink:href="#DejaVuSans-20" x="780.464844"/>
     <use xlink:href="#DejaVuSans-31" x="812.251953"/>
     <use xlink:href="#DejaVuSans-39" x="875.875"/>
     <use xlink:href="#DejaVuSans-39" x="939.498047"/>
     <use xlink:href="#DejaVuSans-35" x="1003.121094"/>
     <use xlink:href="#DejaVuSans-20" x="1066.744141"/>
     <use xlink:href="#DejaVuSans-20" x="1098.53125"/>
     <use xlink:href="#DejaVuSans-20" x="1130.318359"/>
     <use xlink:href="#DejaVuSans-39" x="1162.105469"/>
     <use xlink:href="#DejaVuSans-39" x="1225.728516"/>
     <use xlink:href="#DejaVuSans-37" x="1289.351562"/>
     <use xlink:href="#DejaVuSans-36" x="1352.974609"/>
    </g>
    <!-- Val      2661       665   3326 -->
    <g transform="translate(187.957895 262.277355) scale(0.08 -0.08)">
     <use xlink:href="#DejaVuSans-56"/>
     <use xlink:href="#DejaVuSans-61" x="60.658203"/>
     <use xlink:href="#DejaVuSans-6c" x="121.9375"/>
     <use xlink:href="#DejaVuSans-20" x="149.720703"/>
     <use xlink:href="#DejaVuSans-20" x="181.507812"/>
     <use xlink:href="#DejaVuSans-20" x="213.294922"/>
     <use xlink:href="#DejaVuSans-20" x="245.082031"/>
     <use xlink:href="#DejaVuSans-20" x="276.869141"/>
     <use xlink:href="#DejaVuSans-20" x="308.65625"/>
     <use xlink:href="#DejaVuSans-32" x="340.443359"/>
     <use xlink:href="#DejaVuSans-36" x="404.066406"/>
     <use xlink:href="#DejaVuSans-36" x="467.689453"/>
     <use xlink:href="#DejaVuSans-31" x="531.3125"/>
     <use xlink:href="#DejaVuSans-20" x="594.935547"/>
     <use xlink:href="#DejaVuSans-20" x="626.722656"/>
     <use xlink:href="#DejaVuSans-20" x="658.509766"/>
     <use xlink:href="#DejaVuSans-20" x="690.296875"/>
     <use xlink:href="#DejaVuSans-20" x="722.083984"/>
     <use xlink:href="#DejaVuSans-20" x="753.871094"/>
     <use xlink:href="#DejaVuSans-20" x="785.658203"/>
     <use xlink:href="#DejaVuSans-36" x="817.445312"/>
     <use xlink:href="#DejaVuSans-36" x="881.068359"/>
     <use xlink:href="#DejaVuSans-35" x="944.691406"/>
     <use xlink:href="#DejaVuSans-20" x="1008.314453"/>
     <use xlink:href="#DejaVuSans-20" x="1040.101562"/>
     <use xlink:href="#DejaVuSans-20" x="1071.888672"/>
     <use xlink:href="#DejaVuSans-33" x="1103.675781"/>
     <use xlink:href="#DejaVuSans-33" x="1167.298828"/>
     <use xlink:href="#DejaVuSans-32" x="1230.921875"/>
     <use xlink:href="#DejaVuSans-36" x="1294.544922"/>
    </g>
    <!-- Test     2661       666   3327 -->
    <g transform="translate(187.957895 271.235605) scale(0.08 -0.08)">
     <use xlink:href="#DejaVuSans-54"/>
     <use xlink:href="#DejaVuSans-65" x="44.083984"/>
     <use xlink:href="#DejaVuSans-73" x="105.607422"/>
     <use xlink:href="#DejaVuSans-74" x="157.707031"/>
     <use xlink:href="#DejaVuSans-20" x="196.916016"/>
     <use xlink:href="#DejaVuSans-20" x="228.703125"/>
     <use xlink:href="#DejaVuSans-20" x="260.490234"/>
     <use xlink:href="#DejaVuSans-20" x="292.277344"/>
     <use xlink:href="#DejaVuSans-20" x="324.064453"/>
     <use xlink:href="#DejaVuSans-32" x="355.851562"/>
     <use xlink:href="#DejaVuSans-36" x="419.474609"/>
     <use xlink:href="#DejaVuSans-36" x="483.097656"/>
     <use xlink:href="#DejaVuSans-31" x="546.720703"/>
     <use xlink:href="#DejaVuSans-20" x="610.34375"/>
     <use xlink:href="#DejaVuSans-20" x="642.130859"/>
     <use xlink:href="#DejaVuSans-20" x="673.917969"/>
     <use xlink:href="#DejaVuSans-20" x="705.705078"/>
     <use xlink:href="#DejaVuSans-20" x="737.492188"/>
     <use xlink:href="#DejaVuSans-20" x="769.279297"/>
     <use xlink:href="#DejaVuSans-20" x="801.066406"/>
     <use xlink:href="#DejaVuSans-36" x="832.853516"/>
     <use xlink:href="#DejaVuSans-36" x="896.476562"/>
     <use xlink:href="#DejaVuSans-36" x="960.099609"/>
     <use xlink:href="#DejaVuSans-20" x="1023.722656"/>
     <use xlink:href="#DejaVuSans-20" x="1055.509766"/>
     <use xlink:href="#DejaVuSans-20" x="1087.296875"/>
     <use xlink:href="#DejaVuSans-33" x="1119.083984"/>
     <use xlink:href="#DejaVuSans-33" x="1182.707031"/>
     <use xlink:href="#DejaVuSans-32" x="1246.330078"/>
     <use xlink:href="#DejaVuSans-37" x="1309.953125"/>
    </g>
    <!-- Total   13303      3326  16629 -->
    <g transform="translate(187.957895 280.193855) scale(0.08 -0.08)">
     <use xlink:href="#DejaVuSans-54"/>
     <use xlink:href="#DejaVuSans-6f" x="44.083984"/>
     <use xlink:href="#DejaVuSans-74" x="105.265625"/>
     <use xlink:href="#DejaVuSans-61" x="144.474609"/>
     <use xlink:href="#DejaVuSans-6c" x="205.753906"/>
     <use xlink:href="#DejaVuSans-20" x="233.537109"/>
     <use xlink:href="#DejaVuSans-20" x="265.324219"/>
     <use xlink:href="#DejaVuSans-20" x="297.111328"/>
     <use xlink:href="#DejaVuSans-31" x="328.898438"/>
     <use xlink:href="#DejaVuSans-33" x="392.521484"/>
     <use xlink:href="#DejaVuSans-33" x="456.144531"/>
     <use xlink:href="#DejaVuSans-30" x="519.767578"/>
     <use xlink:href="#DejaVuSans-33" x="583.390625"/>
     <use xlink:href="#DejaVuSans-20" x="647.013672"/>
     <use xlink:href="#DejaVuSans-20" x="678.800781"/>
     <use xlink:href="#DejaVuSans-20" x="710.587891"/>
     <use xlink:href="#DejaVuSans-20" x="742.375"/>
     <use xlink:href="#DejaVuSans-20" x="774.162109"/>
     <use xlink:href="#DejaVuSans-20" x="805.949219"/>
     <use xlink:href="#DejaVuSans-33" x="837.736328"/>
     <use xlink:href="#DejaVuSans-33" x="901.359375"/>
     <use xlink:href="#DejaVuSans-32" x="964.982422"/>
     <use xlink:href="#DejaVuSans-36" x="1028.605469"/>
     <use xlink:href="#DejaVuSans-20" x="1092.228516"/>
     <use xlink:href="#DejaVuSans-20" x="1124.015625"/>
     <use xlink:href="#DejaVuSans-31" x="1155.802734"/>
     <use xlink:href="#DejaVuSans-36" x="1219.425781"/>
     <use xlink:href="#DejaVuSans-36" x="1283.048828"/>
     <use xlink:href="#DejaVuSans-32" x="1346.671875"/>
     <use xlink:href="#DejaVuSans-39" x="1410.294922"/>
    </g>
   </g>
   <g id="text_16">
    <!-- Masked: 80 % -->
    <g transform="translate(218.516562 101.033766) scale(0.1 -0.1)">
     <use xlink:href="#DejaVuSans-4d"/>
     <use xlink:href="#DejaVuSans-61" x="86.279297"/>
     <use xlink:href="#DejaVuSans-73" x="147.558594"/>
     <use xlink:href="#DejaVuSans-6b" x="199.658203"/>
     <use xlink:href="#DejaVuSans-65" x="253.943359"/>
     <use xlink:href="#DejaVuSans-64" x="315.466797"/>
     <use xlink:href="#DejaVuSans-3a" x="378.943359"/>
     <use xlink:href="#DejaVuSans-20" x="412.634766"/>
     <use xlink:href="#DejaVuSans-38" x="444.421875"/>
     <use xlink:href="#DejaVuSans-30" x="508.044922"/>
     <use xlink:href="#DejaVuSans-20" x="571.667969"/>
     <use xlink:href="#DejaVuSans-25" x="603.455078"/>
    </g>
    <!-- Unmasked: 20 % -->
    <g transform="translate(211.132187 112.231579) scale(0.1 -0.1)">
     <use xlink:href="#DejaVuSans-55"/>
     <use xlink:href="#DejaVuSans-6e" x="73.193359"/>
     <use xlink:href="#DejaVuSans-6d" x="136.572266"/>
     <use xlink:href="#DejaVuSans-61" x="233.984375"/>
     <use xlink:href="#DejaVuSans-73" x="295.263672"/>
     <use xlink:href="#DejaVuSans-6b" x="347.363281"/>
     <use xlink:href="#DejaVuSans-65" x="401.648438"/>
     <use xlink:href="#DejaVuSans-64" x="463.171875"/>
     <use xlink:href="#DejaVuSans-3a" x="526.648438"/>
     <use xlink:href="#DejaVuSans-20" x="560.339844"/>
     <use xlink:href="#DejaVuSans-32" x="592.126953"/>
     <use xlink:href="#DejaVuSans-30" x="655.75"/>
     <use xlink:href="#DejaVuSans-20" x="719.373047"/>
     <use xlink:href="#DejaVuSans-25" x="751.160156"/>
    </g>
   </g>
  </g>
  <g id="axes_3">
   <g id="patch_22">
    <path d="M 449.886316 172.8 
C 449.886316 165.912383 448.256277 159.121549 445.129872 152.984379 
C 442.003467 146.847209 437.468557 141.536179 431.897027 137.486818 
C 426.325498 133.437458 419.873927 130.763568 413.071376 129.68442 
C 406.268824 128.605273 399.306467 129.151196 392.755251 131.27742 
C 386.204035 133.403645 380.248071 137.050418 375.375778 141.918685 
C 370.503485 146.786952 366.851791 152.7399 364.720152 159.289356 
C 362.588513 165.838813 362.036836 172.800717 363.11036 179.604158 
C 364.183885 186.407598 366.852442 192.861377 370.897196 198.436252 
L 381.497511 190.745376 
C 378.666183 186.842964 376.798193 182.325319 376.046726 177.56291 
C 375.295259 172.800502 375.681433 167.927169 377.17358 163.342549 
C 378.665727 158.75793 381.221913 154.590867 384.632518 151.18308 
C 388.043123 147.775293 392.212298 145.222552 396.798149 143.734194 
C 401.384 142.245837 406.257651 141.863691 411.019437 142.619094 
C 415.781222 143.374497 420.297322 145.24622 424.197393 148.080773 
C 428.097463 150.915325 431.271901 154.633047 433.460384 158.929065 
C 435.648868 163.225084 436.789895 167.978668 436.789895 172.8 
z
" style="fill: #3182bd; stroke: #ffffff; stroke-linejoin: miter"/>
   </g>
   <g id="patch_23">
    <path d="M 370.897196 198.436252 
C 376.311646 205.898976 383.953602 211.45794 392.720935 214.311427 
C 401.488269 217.164914 410.938218 217.168819 419.707907 214.32258 
L 415.665009 201.865806 
C 409.526227 203.858173 402.911262 203.85544 396.774128 201.857999 
C 390.636995 199.860558 385.287626 195.969283 381.497511 190.745376 
z
" style="fill: #e6550d; stroke: #ffffff; stroke-linejoin: miter"/>
   </g>
   <g id="patch_24">
    <path d="M 419.707907 214.32258 
C 428.477596 211.47634 436.124144 205.923695 441.544761 198.465448 
C 446.965378 191.007202 449.886316 182.020007 449.886316 172.8 
L 436.789895 172.8 
C 436.789895 179.254005 434.745238 185.545042 430.950806 190.765814 
C 427.156374 195.986586 421.803791 199.873438 415.665009 201.865806 
z
" style="fill: #31a354; stroke: #ffffff; stroke-linejoin: miter"/>
   </g>
   <g id="patch_25">
    <path d="M 436.789895 172.8 
C 436.789895 166.020503 434.533803 159.43002 430.379088 154.072788 
C 426.224374 148.715557 420.402706 144.890299 413.836506 143.203112 
C 407.270306 141.515926 400.325708 142.060889 394.103059 144.751655 
C 387.88041 147.44242 382.726687 152.12895 379.458479 158.06868 
L 390.932665 164.382103 
C 392.800212 160.987971 395.745197 158.309954 399.300996 156.772374 
C 402.856796 155.234794 406.825137 154.923386 410.577251 155.887493 
C 414.329366 156.851599 417.656033 159.037461 420.030156 162.098736 
C 422.404278 165.160011 423.693474 168.926002 423.693474 172.8 
z
" style="fill: #6baed6; stroke: #ffffff; stroke-linejoin: miter"/>
   </g>
   <g id="patch_26">
    <path d="M 379.458479 158.06868 
C 376.664071 163.147312 375.371573 168.917739 375.732584 174.703143 
C 376.093594 180.488546 378.093423 186.053531 381.497511 190.745376 
L 392.097826 183.054501 
C 390.152633 180.373446 389.009873 177.193455 388.803582 173.88751 
C 388.59729 170.581565 389.33586 167.284178 390.932665 164.382103 
z
" style="fill: #9ecae1; stroke: #ffffff; stroke-linejoin: miter"/>
   </g>
   <g id="patch_27">
    <path d="M 381.497511 190.745376 
C 384.139297 194.386544 387.55282 197.399833 391.493622 199.569447 
C 395.434423 201.739061 399.80613 203.011942 404.295665 203.296933 
L 405.125342 190.226819 
C 402.559894 190.063967 400.061776 189.336606 397.809889 188.096827 
C 395.558003 186.857047 393.607418 185.135168 392.097826 183.054501 
z
" style="fill: #fd8d3c; stroke: #ffffff; stroke-linejoin: miter"/>
   </g>
   <g id="patch_28">
    <path d="M 404.295665 203.296933 
C 406.214439 203.418735 408.140435 203.35918 410.048018 203.119061 
C 411.955602 202.878942 413.836275 202.459329 415.665007 201.865806 
L 411.62211 189.409032 
C 410.577119 189.748188 409.502449 189.987967 408.412401 190.125178 
C 407.322354 190.262388 406.221785 190.29642 405.125342 190.226819 
z
" style="fill: #fdae6b; stroke: #ffffff; stroke-linejoin: miter"/>
   </g>
   <g id="patch_29">
    <path d="M 415.665007 201.865806 
C 419.943862 200.477086 423.863741 198.160494 427.143923 195.081933 
C 430.424106 192.003371 432.984375 188.238126 434.641377 184.055844 
L 422.465749 179.231911 
C 421.518891 181.621786 420.05588 183.773355 418.18149 185.532533 
C 416.3071 187.291711 414.067169 188.615478 411.62211 189.409032 
z
" style="fill: #74c476; stroke: #ffffff; stroke-linejoin: miter"/>
   </g>
   <g id="patch_30">
    <path d="M 434.641377 184.055844 
C 435.349561 182.268385 435.887475 180.418073 436.24796 178.529533 
C 436.608445 176.640993 436.789895 174.72264 436.789895 172.800003 
L 423.693474 172.800002 
C 423.693474 173.898651 423.589788 174.994853 423.383797 176.074019 
C 423.177805 177.153185 422.870426 178.210506 422.465749 179.231911 
z
" style="fill: #a1d99b; stroke: #ffffff; stroke-linejoin: miter"/>
   </g>
   <g id="matplotlib.axis_5"/>
   <g id="matplotlib.axis_6"/>
   <g id="text_17">
    <!-- Train -->
    <g transform="translate(366.746301 127.808408) scale(0.1 -0.1)">
     <use xlink:href="#DejaVuSans-54"/>
     <use xlink:href="#DejaVuSans-72" x="46.333984"/>
     <use xlink:href="#DejaVuSans-61" x="87.447266"/>
     <use xlink:href="#DejaVuSans-69" x="148.726562"/>
     <use xlink:href="#DejaVuSans-6e" x="176.509766"/>
    </g>
   </g>
   <g id="text_18">
    <!-- 60.0% -->
    <g transform="translate(378.893106 140.265182) scale(0.1 -0.1)">
     <use xlink:href="#DejaVuSans-36"/>
     <use xlink:href="#DejaVuSans-30" x="63.623047"/>
     <use xlink:href="#DejaVuSans-2e" x="127.246094"/>
     <use xlink:href="#DejaVuSans-30" x="159.033203"/>
     <use xlink:href="#DejaVuSans-25" x="222.65625"/>
    </g>
   </g>
   <g id="text_19">
    <!-- Validation -->
    <g transform="translate(341.313089 223.297516) scale(0.1 -0.1)">
     <use xlink:href="#DejaVuSans-56"/>
     <use xlink:href="#DejaVuSans-61" x="60.658203"/>
     <use xlink:href="#DejaVuSans-6c" x="121.9375"/>
     <use xlink:href="#DejaVuSans-69" x="149.720703"/>
     <use xlink:href="#DejaVuSans-64" x="177.503906"/>
     <use xlink:href="#DejaVuSans-61" x="240.980469"/>
     <use xlink:href="#DejaVuSans-74" x="302.259766"/>
     <use xlink:href="#DejaVuSans-69" x="341.46875"/>
     <use xlink:href="#DejaVuSans-6f" x="369.251953"/>
     <use xlink:href="#DejaVuSans-6e" x="430.433594"/>
    </g>
   </g>
   <g id="text_20">
    <!-- 20.0% -->
    <g transform="translate(378.863938 210.844088) scale(0.1 -0.1)">
     <use xlink:href="#DejaVuSans-32"/>
     <use xlink:href="#DejaVuSans-30" x="63.623047"/>
     <use xlink:href="#DejaVuSans-2e" x="127.246094"/>
     <use xlink:href="#DejaVuSans-30" x="159.033203"/>
     <use xlink:href="#DejaVuSans-25" x="222.65625"/>
    </g>
   </g>
   <g id="text_21">
    <!-- Test -->
    <g transform="translate(446.841738 205.074641) scale(0.1 -0.1)">
     <use xlink:href="#DejaVuSans-54"/>
     <use xlink:href="#DejaVuSans-65" x="44.083984"/>
     <use xlink:href="#DejaVuSans-73" x="105.607422"/>
     <use xlink:href="#DejaVuSans-74" x="157.707031"/>
    </g>
   </g>
   <g id="text_22">
    <!-- 20.0% -->
    <g transform="translate(420.36419 197.375006) scale(0.1 -0.1)">
     <use xlink:href="#DejaVuSans-32"/>
     <use xlink:href="#DejaVuSans-30" x="63.623047"/>
     <use xlink:href="#DejaVuSans-2e" x="127.246094"/>
     <use xlink:href="#DejaVuSans-30" x="159.033203"/>
     <use xlink:href="#DejaVuSans-25" x="222.65625"/>
    </g>
   </g>
   <g id="text_23">
    <g id="patch_31">
     <path d="M 340.749474 284.257605 
L 459.846974 284.257605 
Q 462.246974 284.257605 462.246974 281.857605 
L 462.246974 238.282105 
Q 462.246974 235.882105 459.846974 235.882105 
L 340.749474 235.882105 
Q 338.349474 235.882105 338.349474 238.282105 
L 338.349474 281.857605 
Q 338.349474 284.257605 340.749474 284.257605 
z
" style="fill: #f5deb3; opacity: 0.5; stroke: #000000; stroke-linejoin: miter"/>
    </g>
    <!--        Masked  Unmasked  Total -->
    <g transform="translate(340.749474 244.360855) scale(0.08 -0.08)">
     <use xlink:href="#DejaVuSans-20"/>
     <use xlink:href="#DejaVuSans-20" x="31.787109"/>
     <use xlink:href="#DejaVuSans-20" x="63.574219"/>
     <use xlink:href="#DejaVuSans-20" x="95.361328"/>
     <use xlink:href="#DejaVuSans-20" x="127.148438"/>
     <use xlink:href="#DejaVuSans-20" x="158.935547"/>
     <use xlink:href="#DejaVuSans-20" x="190.722656"/>
     <use xlink:href="#DejaVuSans-4d" x="222.509766"/>
     <use xlink:href="#DejaVuSans-61" x="308.789062"/>
     <use xlink:href="#DejaVuSans-73" x="370.068359"/>
     <use xlink:href="#DejaVuSans-6b" x="422.167969"/>
     <use xlink:href="#DejaVuSans-65" x="476.453125"/>
     <use xlink:href="#DejaVuSans-64" x="537.976562"/>
     <use xlink:href="#DejaVuSans-20" x="601.453125"/>
     <use xlink:href="#DejaVuSans-20" x="633.240234"/>
     <use xlink:href="#DejaVuSans-55" x="665.027344"/>
     <use xlink:href="#DejaVuSans-6e" x="738.220703"/>
     <use xlink:href="#DejaVuSans-6d" x="801.599609"/>
     <use xlink:href="#DejaVuSans-61" x="899.011719"/>
     <use xlink:href="#DejaVuSans-73" x="960.291016"/>
     <use xlink:href="#DejaVuSans-6b" x="1012.390625"/>
     <use xlink:href="#DejaVuSans-65" x="1066.675781"/>
     <use xlink:href="#DejaVuSans-64" x="1128.199219"/>
     <use xlink:href="#DejaVuSans-20" x="1191.675781"/>
     <use xlink:href="#DejaVuSans-20" x="1223.462891"/>
     <use xlink:href="#DejaVuSans-54" x="1255.25"/>
     <use xlink:href="#DejaVuSans-6f" x="1299.333984"/>
     <use xlink:href="#DejaVuSans-74" x="1360.515625"/>
     <use xlink:href="#DejaVuSans-61" x="1399.724609"/>
     <use xlink:href="#DejaVuSans-6c" x="1461.003906"/>
    </g>
    <!-- Train    7981      3420  11401 -->
    <g transform="translate(340.749474 253.319105) scale(0.08 -0.08)">
     <use xlink:href="#DejaVuSans-54"/>
     <use xlink:href="#DejaVuSans-72" x="46.333984"/>
     <use xlink:href="#DejaVuSans-61" x="87.447266"/>
     <use xlink:href="#DejaVuSans-69" x="148.726562"/>
     <use xlink:href="#DejaVuSans-6e" x="176.509766"/>
     <use xlink:href="#DejaVuSans-20" x="239.888672"/>
     <use xlink:href="#DejaVuSans-20" x="271.675781"/>
     <use xlink:href="#DejaVuSans-20" x="303.462891"/>
     <use xlink:href="#DejaVuSans-20" x="335.25"/>
     <use xlink:href="#DejaVuSans-37" x="367.037109"/>
     <use xlink:href="#DejaVuSans-39" x="430.660156"/>
     <use xlink:href="#DejaVuSans-38" x="494.283203"/>
     <use xlink:href="#DejaVuSans-31" x="557.90625"/>
     <use xlink:href="#DejaVuSans-20" x="621.529297"/>
     <use xlink:href="#DejaVuSans-20" x="653.316406"/>
     <use xlink:href="#DejaVuSans-20" x="685.103516"/>
     <use xlink:href="#DejaVuSans-20" x="716.890625"/>
     <use xlink:href="#DejaVuSans-20" x="748.677734"/>
     <use xlink:href="#DejaVuSans-20" x="780.464844"/>
     <use xlink:href="#DejaVuSans-33" x="812.251953"/>
     <use xlink:href="#DejaVuSans-34" x="875.875"/>
     <use xlink:href="#DejaVuSans-32" x="939.498047"/>
     <use xlink:href="#DejaVuSans-30" x="1003.121094"/>
     <use xlink:href="#DejaVuSans-20" x="1066.744141"/>
     <use xlink:href="#DejaVuSans-20" x="1098.53125"/>
     <use xlink:href="#DejaVuSans-31" x="1130.318359"/>
     <use xlink:href="#DejaVuSans-31" x="1193.941406"/>
     <use xlink:href="#DejaVuSans-34" x="1257.564453"/>
     <use xlink:href="#DejaVuSans-30" x="1321.1875"/>
     <use xlink:href="#DejaVuSans-31" x="1384.810547"/>
    </g>
    <!-- Val      2661      1141   3802 -->
    <g transform="translate(340.749474 262.277355) scale(0.08 -0.08)">
     <use xlink:href="#DejaVuSans-56"/>
     <use xlink:href="#DejaVuSans-61" x="60.658203"/>
     <use xlink:href="#DejaVuSans-6c" x="121.9375"/>
     <use xlink:href="#DejaVuSans-20" x="149.720703"/>
     <use xlink:href="#DejaVuSans-20" x="181.507812"/>
     <use xlink:href="#DejaVuSans-20" x="213.294922"/>
     <use xlink:href="#DejaVuSans-20" x="245.082031"/>
     <use xlink:href="#DejaVuSans-20" x="276.869141"/>
     <use xlink:href="#DejaVuSans-20" x="308.65625"/>
     <use xlink:href="#DejaVuSans-32" x="340.443359"/>
     <use xlink:href="#DejaVuSans-36" x="404.066406"/>
     <use xlink:href="#DejaVuSans-36" x="467.689453"/>
     <use xlink:href="#DejaVuSans-31" x="531.3125"/>
     <use xlink:href="#DejaVuSans-20" x="594.935547"/>
     <use xlink:href="#DejaVuSans-20" x="626.722656"/>
     <use xlink:href="#DejaVuSans-20" x="658.509766"/>
     <use xlink:href="#DejaVuSans-20" x="690.296875"/>
     <use xlink:href="#DejaVuSans-20" x="722.083984"/>
     <use xlink:href="#DejaVuSans-20" x="753.871094"/>
     <use xlink:href="#DejaVuSans-31" x="785.658203"/>
     <use xlink:href="#DejaVuSans-31" x="849.28125"/>
     <use xlink:href="#DejaVuSans-34" x="912.904297"/>
     <use xlink:href="#DejaVuSans-31" x="976.527344"/>
     <use xlink:href="#DejaVuSans-20" x="1040.150391"/>
     <use xlink:href="#DejaVuSans-20" x="1071.9375"/>
     <use xlink:href="#DejaVuSans-20" x="1103.724609"/>
     <use xlink:href="#DejaVuSans-33" x="1135.511719"/>
     <use xlink:href="#DejaVuSans-38" x="1199.134766"/>
     <use xlink:href="#DejaVuSans-30" x="1262.757812"/>
     <use xlink:href="#DejaVuSans-32" x="1326.380859"/>
    </g>
    <!-- Test     2661      1141   3802 -->
    <g transform="translate(340.749474 271.235605) scale(0.08 -0.08)">
     <use xlink:href="#DejaVuSans-54"/>
     <use xlink:href="#DejaVuSans-65" x="44.083984"/>
     <use xlink:href="#DejaVuSans-73" x="105.607422"/>
     <use xlink:href="#DejaVuSans-74" x="157.707031"/>
     <use xlink:href="#DejaVuSans-20" x="196.916016"/>
     <use xlink:href="#DejaVuSans-20" x="228.703125"/>
     <use xlink:href="#DejaVuSans-20" x="260.490234"/>
     <use xlink:href="#DejaVuSans-20" x="292.277344"/>
     <use xlink:href="#DejaVuSans-20" x="324.064453"/>
     <use xlink:href="#DejaVuSans-32" x="355.851562"/>
     <use xlink:href="#DejaVuSans-36" x="419.474609"/>
     <use xlink:href="#DejaVuSans-36" x="483.097656"/>
     <use xlink:href="#DejaVuSans-31" x="546.720703"/>
     <use xlink:href="#DejaVuSans-20" x="610.34375"/>
     <use xlink:href="#DejaVuSans-20" x="642.130859"/>
     <use xlink:href="#DejaVuSans-20" x="673.917969"/>
     <use xlink:href="#DejaVuSans-20" x="705.705078"/>
     <use xlink:href="#DejaVuSans-20" x="737.492188"/>
     <use xlink:href="#DejaVuSans-20" x="769.279297"/>
     <use xlink:href="#DejaVuSans-31" x="801.066406"/>
     <use xlink:href="#DejaVuSans-31" x="864.689453"/>
     <use xlink:href="#DejaVuSans-34" x="928.3125"/>
     <use xlink:href="#DejaVuSans-31" x="991.935547"/>
     <use xlink:href="#DejaVuSans-20" x="1055.558594"/>
     <use xlink:href="#DejaVuSans-20" x="1087.345703"/>
     <use xlink:href="#DejaVuSans-20" x="1119.132812"/>
     <use xlink:href="#DejaVuSans-33" x="1150.919922"/>
     <use xlink:href="#DejaVuSans-38" x="1214.542969"/>
     <use xlink:href="#DejaVuSans-30" x="1278.166016"/>
     <use xlink:href="#DejaVuSans-32" x="1341.789062"/>
    </g>
    <!-- Total   13303      5702  19005 -->
    <g transform="translate(340.749474 280.193855) scale(0.08 -0.08)">
     <use xlink:href="#DejaVuSans-54"/>
     <use xlink:href="#DejaVuSans-6f" x="44.083984"/>
     <use xlink:href="#DejaVuSans-74" x="105.265625"/>
     <use xlink:href="#DejaVuSans-61" x="144.474609"/>
     <use xlink:href="#DejaVuSans-6c" x="205.753906"/>
     <use xlink:href="#DejaVuSans-20" x="233.537109"/>
     <use xlink:href="#DejaVuSans-20" x="265.324219"/>
     <use xlink:href="#DejaVuSans-20" x="297.111328"/>
     <use xlink:href="#DejaVuSans-31" x="328.898438"/>
     <use xlink:href="#DejaVuSans-33" x="392.521484"/>
     <use xlink:href="#DejaVuSans-33" x="456.144531"/>
     <use xlink:href="#DejaVuSans-30" x="519.767578"/>
     <use xlink:href="#DejaVuSans-33" x="583.390625"/>
     <use xlink:href="#DejaVuSans-20" x="647.013672"/>
     <use xlink:href="#DejaVuSans-20" x="678.800781"/>
     <use xlink:href="#DejaVuSans-20" x="710.587891"/>
     <use xlink:href="#DejaVuSans-20" x="742.375"/>
     <use xlink:href="#DejaVuSans-20" x="774.162109"/>
     <use xlink:href="#DejaVuSans-20" x="805.949219"/>
     <use xlink:href="#DejaVuSans-35" x="837.736328"/>
     <use xlink:href="#DejaVuSans-37" x="901.359375"/>
     <use xlink:href="#DejaVuSans-30" x="964.982422"/>
     <use xlink:href="#DejaVuSans-32" x="1028.605469"/>
     <use xlink:href="#DejaVuSans-20" x="1092.228516"/>
     <use xlink:href="#DejaVuSans-20" x="1124.015625"/>
     <use xlink:href="#DejaVuSans-31" x="1155.802734"/>
     <use xlink:href="#DejaVuSans-39" x="1219.425781"/>
     <use xlink:href="#DejaVuSans-30" x="1283.048828"/>
     <use xlink:href="#DejaVuSans-30" x="1346.671875"/>
     <use xlink:href="#DejaVuSans-35" x="1410.294922"/>
    </g>
   </g>
   <g id="text_24">
    <!-- Masked: 70 % -->
    <g transform="translate(371.308141 101.033766) scale(0.1 -0.1)">
     <use xlink:href="#DejaVuSans-4d"/>
     <use xlink:href="#DejaVuSans-61" x="86.279297"/>
     <use xlink:href="#DejaVuSans-73" x="147.558594"/>
     <use xlink:href="#DejaVuSans-6b" x="199.658203"/>
     <use xlink:href="#DejaVuSans-65" x="253.943359"/>
     <use xlink:href="#DejaVuSans-64" x="315.466797"/>
     <use xlink:href="#DejaVuSans-3a" x="378.943359"/>
     <use xlink:href="#DejaVuSans-20" x="412.634766"/>
     <use xlink:href="#DejaVuSans-37" x="444.421875"/>
     <use xlink:href="#DejaVuSans-30" x="508.044922"/>
     <use xlink:href="#DejaVuSans-20" x="571.667969"/>
     <use xlink:href="#DejaVuSans-25" x="603.455078"/>
    </g>
    <!-- Unmasked: 30 % -->
    <g transform="translate(363.923766 112.231579) scale(0.1 -0.1)">
     <use xlink:href="#DejaVuSans-55"/>
     <use xlink:href="#DejaVuSans-6e" x="73.193359"/>
     <use xlink:href="#DejaVuSans-6d" x="136.572266"/>
     <use xlink:href="#DejaVuSans-61" x="233.984375"/>
     <use xlink:href="#DejaVuSans-73" x="295.263672"/>
     <use xlink:href="#DejaVuSans-6b" x="347.363281"/>
     <use xlink:href="#DejaVuSans-65" x="401.648438"/>
     <use xlink:href="#DejaVuSans-64" x="463.171875"/>
     <use xlink:href="#DejaVuSans-3a" x="526.648438"/>
     <use xlink:href="#DejaVuSans-20" x="560.339844"/>
     <use xlink:href="#DejaVuSans-33" x="592.126953"/>
     <use xlink:href="#DejaVuSans-30" x="655.75"/>
     <use xlink:href="#DejaVuSans-20" x="719.373047"/>
     <use xlink:href="#DejaVuSans-25" x="751.160156"/>
    </g>
   </g>
   <g id="legend_1">
    <g id="patch_32">
     <path d="M 484.627368 227.368421 
L 569.291431 227.368421 
Q 571.291431 227.368421 571.291431 225.368421 
L 571.291431 94.265296 
Q 571.291431 92.265296 569.291431 92.265296 
L 484.627368 92.265296 
Q 482.627368 92.265296 482.627368 94.265296 
L 482.627368 225.368421 
Q 482.627368 227.368421 484.627368 227.368421 
z
" style="fill: #ffffff; opacity: 0.8; stroke: #cccccc; stroke-linejoin: miter"/>
    </g>
    <g id="patch_33">
     <path d="M 486.627368 103.863734 
L 506.627368 103.863734 
L 506.627368 96.863734 
L 486.627368 96.863734 
z
" style="fill: #3182bd; stroke: #ffffff; stroke-linejoin: miter"/>
    </g>
    <g id="text_25">
     <!-- Train -->
     <g transform="translate(514.627368 103.863734) scale(0.1 -0.1)">
      <use xlink:href="#DejaVuSans-54"/>
      <use xlink:href="#DejaVuSans-72" x="46.333984"/>
      <use xlink:href="#DejaVuSans-61" x="87.447266"/>
      <use xlink:href="#DejaVuSans-69" x="148.726562"/>
      <use xlink:href="#DejaVuSans-6e" x="176.509766"/>
     </g>
    </g>
    <g id="patch_34">
     <path d="M 486.627368 118.541859 
L 506.627368 118.541859 
L 506.627368 111.541859 
L 486.627368 111.541859 
z
" style="fill: #e6550d; stroke: #ffffff; stroke-linejoin: miter"/>
    </g>
    <g id="text_26">
     <!-- Validation -->
     <g transform="translate(514.627368 118.541859) scale(0.1 -0.1)">
      <use xlink:href="#DejaVuSans-56"/>
      <use xlink:href="#DejaVuSans-61" x="60.658203"/>
      <use xlink:href="#DejaVuSans-6c" x="121.9375"/>
      <use xlink:href="#DejaVuSans-69" x="149.720703"/>
      <use xlink:href="#DejaVuSans-64" x="177.503906"/>
      <use xlink:href="#DejaVuSans-61" x="240.980469"/>
      <use xlink:href="#DejaVuSans-74" x="302.259766"/>
      <use xlink:href="#DejaVuSans-69" x="341.46875"/>
      <use xlink:href="#DejaVuSans-6f" x="369.251953"/>
      <use xlink:href="#DejaVuSans-6e" x="430.433594"/>
     </g>
    </g>
    <g id="patch_35">
     <path d="M 486.627368 133.219984 
L 506.627368 133.219984 
L 506.627368 126.219984 
L 486.627368 126.219984 
z
" style="fill: #31a354; stroke: #ffffff; stroke-linejoin: miter"/>
    </g>
    <g id="text_27">
     <!-- Test -->
     <g transform="translate(514.627368 133.219984) scale(0.1 -0.1)">
      <use xlink:href="#DejaVuSans-54"/>
      <use xlink:href="#DejaVuSans-65" x="44.083984"/>
      <use xlink:href="#DejaVuSans-73" x="105.607422"/>
      <use xlink:href="#DejaVuSans-74" x="157.707031"/>
     </g>
    </g>
    <g id="patch_36">
     <path d="M 486.627368 147.898109 
L 506.627368 147.898109 
L 506.627368 140.898109 
L 486.627368 140.898109 
z
" style="fill: #6baed6; stroke: #ffffff; stroke-linejoin: miter"/>
    </g>
    <g id="text_28">
     <!-- Masked -->
     <g transform="translate(514.627368 147.898109) scale(0.1 -0.1)">
      <use xlink:href="#DejaVuSans-4d"/>
      <use xlink:href="#DejaVuSans-61" x="86.279297"/>
      <use xlink:href="#DejaVuSans-73" x="147.558594"/>
      <use xlink:href="#DejaVuSans-6b" x="199.658203"/>
      <use xlink:href="#DejaVuSans-65" x="253.943359"/>
      <use xlink:href="#DejaVuSans-64" x="315.466797"/>
     </g>
    </g>
    <g id="patch_37">
     <path d="M 486.627368 162.576234 
L 506.627368 162.576234 
L 506.627368 155.576234 
L 486.627368 155.576234 
z
" style="fill: #9ecae1; stroke: #ffffff; stroke-linejoin: miter"/>
    </g>
    <g id="text_29">
     <!-- Unmasked -->
     <g transform="translate(514.627368 162.576234) scale(0.1 -0.1)">
      <use xlink:href="#DejaVuSans-55"/>
      <use xlink:href="#DejaVuSans-6e" x="73.193359"/>
      <use xlink:href="#DejaVuSans-6d" x="136.572266"/>
      <use xlink:href="#DejaVuSans-61" x="233.984375"/>
      <use xlink:href="#DejaVuSans-73" x="295.263672"/>
      <use xlink:href="#DejaVuSans-6b" x="347.363281"/>
      <use xlink:href="#DejaVuSans-65" x="401.648438"/>
      <use xlink:href="#DejaVuSans-64" x="463.171875"/>
     </g>
    </g>
    <g id="patch_38">
     <path d="M 486.627368 177.254359 
L 506.627368 177.254359 
L 506.627368 170.254359 
L 486.627368 170.254359 
z
" style="fill: #fd8d3c; stroke: #ffffff; stroke-linejoin: miter"/>
    </g>
    <g id="text_30">
     <!-- Masked -->
     <g transform="translate(514.627368 177.254359) scale(0.1 -0.1)">
      <use xlink:href="#DejaVuSans-4d"/>
      <use xlink:href="#DejaVuSans-61" x="86.279297"/>
      <use xlink:href="#DejaVuSans-73" x="147.558594"/>
      <use xlink:href="#DejaVuSans-6b" x="199.658203"/>
      <use xlink:href="#DejaVuSans-65" x="253.943359"/>
      <use xlink:href="#DejaVuSans-64" x="315.466797"/>
     </g>
    </g>
    <g id="patch_39">
     <path d="M 486.627368 191.932484 
L 506.627368 191.932484 
L 506.627368 184.932484 
L 486.627368 184.932484 
z
" style="fill: #fdae6b; stroke: #ffffff; stroke-linejoin: miter"/>
    </g>
    <g id="text_31">
     <!-- Unmasked -->
     <g transform="translate(514.627368 191.932484) scale(0.1 -0.1)">
      <use xlink:href="#DejaVuSans-55"/>
      <use xlink:href="#DejaVuSans-6e" x="73.193359"/>
      <use xlink:href="#DejaVuSans-6d" x="136.572266"/>
      <use xlink:href="#DejaVuSans-61" x="233.984375"/>
      <use xlink:href="#DejaVuSans-73" x="295.263672"/>
      <use xlink:href="#DejaVuSans-6b" x="347.363281"/>
      <use xlink:href="#DejaVuSans-65" x="401.648438"/>
      <use xlink:href="#DejaVuSans-64" x="463.171875"/>
     </g>
    </g>
    <g id="patch_40">
     <path d="M 486.627368 206.610609 
L 506.627368 206.610609 
L 506.627368 199.610609 
L 486.627368 199.610609 
z
" style="fill: #74c476; stroke: #ffffff; stroke-linejoin: miter"/>
    </g>
    <g id="text_32">
     <!-- Masked -->
     <g transform="translate(514.627368 206.610609) scale(0.1 -0.1)">
      <use xlink:href="#DejaVuSans-4d"/>
      <use xlink:href="#DejaVuSans-61" x="86.279297"/>
      <use xlink:href="#DejaVuSans-73" x="147.558594"/>
      <use xlink:href="#DejaVuSans-6b" x="199.658203"/>
      <use xlink:href="#DejaVuSans-65" x="253.943359"/>
      <use xlink:href="#DejaVuSans-64" x="315.466797"/>
     </g>
    </g>
    <g id="patch_41">
     <path d="M 486.627368 221.288734 
L 506.627368 221.288734 
L 506.627368 214.288734 
L 486.627368 214.288734 
z
" style="fill: #a1d99b; stroke: #ffffff; stroke-linejoin: miter"/>
    </g>
    <g id="text_33">
     <!-- Unmasked -->
     <g transform="translate(514.627368 221.288734) scale(0.1 -0.1)">
      <use xlink:href="#DejaVuSans-55"/>
      <use xlink:href="#DejaVuSans-6e" x="73.193359"/>
      <use xlink:href="#DejaVuSans-6d" x="136.572266"/>
      <use xlink:href="#DejaVuSans-61" x="233.984375"/>
      <use xlink:href="#DejaVuSans-73" x="295.263672"/>
      <use xlink:href="#DejaVuSans-6b" x="347.363281"/>
      <use xlink:href="#DejaVuSans-65" x="401.648438"/>
      <use xlink:href="#DejaVuSans-64" x="463.171875"/>
     </g>
    </g>
   </g>
  </g>
 </g>
</svg>
