<?xml version="1.0" encoding="utf-8" standalone="no"?>
<!DOCTYPE svg PUBLIC "-//W3C//DTD SVG 1.1//EN"
  "http://www.w3.org/Graphics/SVG/1.1/DTD/svg11.dtd">
<svg xmlns:xlink="http://www.w3.org/1999/xlink" width="720pt" height="432pt" viewBox="0 0 720 432" xmlns="http://www.w3.org/2000/svg" version="1.1">
 <metadata>
  <rdf:RDF xmlns:dc="http://purl.org/dc/elements/1.1/" xmlns:cc="http://creativecommons.org/ns#" xmlns:rdf="http://www.w3.org/1999/02/22-rdf-syntax-ns#">
   <cc:Work>
    <dc:type rdf:resource="http://purl.org/dc/dcmitype/StillImage"/>
    <dc:date>2023-06-07T13:35:51.787522</dc:date>
    <dc:format>image/svg+xml</dc:format>
    <dc:creator>
     <cc:Agent>
      <dc:title>Matplotlib v3.7.1, https://matplotlib.org/</dc:title>
     </cc:Agent>
    </dc:creator>
   </cc:Work>
  </rdf:RDF>
 </metadata>
 <defs>
  <style type="text/css">*{stroke-linejoin: round; stroke-linecap: butt}</style>
 </defs>
 <g id="figure_1">
  <g id="patch_1">
   <path d="M 0 432 
L 720 432 
L 720 0 
L 0 0 
z
" style="fill: #ffffff"/>
  </g>
  <g id="axes_1">
   <g id="patch_2">
    <path d="M 225.473684 216 
C 225.473684 205.237663 222.926543 194.626567 218.041156 185.036943 
C 213.155768 175.447319 206.069441 167.148689 197.363334 160.821637 
C 188.657227 154.494584 178.57603 150.316933 167.946518 148.6313 
C 157.317005 146.945667 146.437925 147.799427 136.201487 151.122562 
C 125.965049 154.445698 116.658953 160.144809 109.046406 167.752505 
C 101.43386 175.3602 95.728818 184.662662 92.399158 194.89698 
C 89.069499 205.131298 88.208805 216.009831 89.887662 226.640416 
C 91.566519 237.271001 95.737743 247.354859 102.059245 256.064997 
L 118.620419 244.045498 
C 114.195368 237.948401 111.275511 230.889701 110.100311 223.448291 
C 108.925111 216.006882 109.527597 208.391908 111.858358 201.227886 
C 114.18912 194.063863 118.182649 187.55214 123.511432 182.226753 
C 128.840214 176.901367 135.354481 172.911988 142.519988 170.585794 
C 149.685495 168.259599 157.300851 167.661967 164.74151 168.84191 
C 172.182169 170.021853 179.239006 172.946209 185.333281 177.375146 
C 191.427556 181.804083 196.387985 187.613124 199.807756 194.32586 
C 203.227527 201.038597 205.010526 208.466364 205.010526 216 
z
" style="fill: #3182bd; stroke: #ffffff; stroke-linejoin: miter"/>
   </g>
   <g id="patch_3">
    <path d="M 102.059245 256.064997 
C 110.520572 267.72351 122.461513 276.407254 136.160141 280.864 
C 149.858768 285.320747 164.62337 285.325451 178.324835 280.877436 
L 172.006332 261.414205 
C 162.415306 264.527816 152.080085 264.524523 142.491046 261.4048 
C 132.902006 258.285078 124.543348 252.206457 118.620419 244.045498 
z
" style="fill: #e6550d; stroke: #ffffff; stroke-linejoin: miter"/>
   </g>
   <g id="patch_4">
    <path d="M 178.324835 280.877436 
C 192.0263 276.42942 203.972773 267.753288 212.441527 256.100168 
C 220.910281 244.447049 225.473687 230.405368 225.473684 215.999987 
L 205.010526 215.999991 
C 205.010528 226.083757 201.816144 235.912934 195.888016 244.070118 
C 189.959888 252.227301 181.597358 258.300594 172.006332 261.414205 
z
" style="fill: #31a354; stroke: #ffffff; stroke-linejoin: miter"/>
   </g>
   <g id="patch_5">
    <path d="M 205.010526 216 
C 205.010526 209.225776 203.568873 202.528471 200.781602 196.354232 
C 197.994331 190.179992 193.924741 184.669031 188.84393 180.188465 
C 183.763119 175.707899 177.786469 172.35948 171.31212 170.366264 
C 164.83777 168.373048 158.01275 167.780301 151.291711 168.627508 
C 144.570673 169.474715 138.106249 171.742637 132.32907 175.280196 
C 126.551892 178.817754 121.593155 183.544612 117.783191 189.145887 
C 113.973226 194.747162 111.398556 201.095652 110.230693 207.768449 
C 109.06283 214.441245 109.328297 221.286811 111.009408 227.849126 
L 130.832444 222.770929 
C 129.871809 219.021035 129.720114 215.109283 130.387464 211.296256 
C 131.054814 207.48323 132.526054 203.855521 134.703177 200.654793 
C 136.880299 197.454064 139.713863 194.753002 143.015108 192.73154 
C 146.316353 190.710078 150.01031 189.414123 153.850903 188.930004 
C 157.691496 188.445886 161.591508 188.784599 165.291136 189.923579 
C 168.990764 191.06256 172.405993 192.975943 175.309313 195.536266 
C 178.212634 198.096589 180.538114 201.24571 182.13084 204.773847 
C 183.723566 208.301984 184.547368 212.129015 184.547368 216 
z
" style="fill: #6baed6; stroke: #ffffff; stroke-linejoin: miter"/>
   </g>
   <g id="patch_6">
    <path d="M 111.009408 227.849126 
C 111.754528 230.757747 112.772349 233.589611 114.049339 236.307069 
C 115.326329 239.024527 116.856804 241.615484 118.620417 244.045494 
L 135.181591 232.025997 
C 134.173813 230.637419 133.299256 229.156872 132.569547 227.604039 
C 131.839839 226.051206 131.258227 224.432998 130.832444 222.770929 
z
" style="fill: #9ecae1; stroke: #ffffff; stroke-linejoin: miter"/>
   </g>
   <g id="patch_7">
    <path d="M 118.620417 244.045494 
C 123.942316 251.378321 131.243079 257.047042 139.665803 260.386308 
C 148.088527 263.725573 157.290263 264.599418 166.190985 262.905278 
L 162.364773 242.803016 
C 157.278646 243.771096 152.020512 243.271756 147.207527 241.363604 
C 142.394542 239.455453 138.222677 236.216184 135.181591 232.025997 
z
" style="fill: #fd8d3c; stroke: #ffffff; stroke-linejoin: miter"/>
   </g>
   <g id="patch_8">
    <path d="M 166.190985 262.905278 
C 167.174644 262.718051 168.152171 262.499927 169.122114 262.251231 
C 170.092057 262.002535 171.053936 261.723389 172.006326 261.414207 
L 165.687825 241.950975 
C 165.143603 242.127651 164.593957 242.287163 164.039704 242.429275 
C 163.485451 242.571387 162.926864 242.696029 162.364773 242.803016 
z
" style="fill: #fdae6b; stroke: #ffffff; stroke-linejoin: miter"/>
   </g>
   <g id="patch_9">
    <path d="M 172.006326 261.414207 
C 180.624103 258.616551 188.270113 253.422893 194.046928 246.442823 
C 199.823743 239.462752 203.496149 230.980478 204.633108 221.99158 
L 184.331701 219.42376 
C 183.68201 224.560273 181.583492 229.407287 178.282455 233.395899 
C 174.981418 237.38451 170.61227 240.352315 165.687825 241.950975 
z
" style="fill: #74c476; stroke: #ffffff; stroke-linejoin: miter"/>
   </g>
   <g id="patch_10">
    <path d="M 204.633108 221.99158 
C 204.758758 220.998176 204.853129 220.001065 204.916078 219.001727 
C 204.979028 218.002389 205.010526 217.001318 205.010526 215.999999 
L 184.547368 215.999999 
C 184.547368 216.572182 184.529369 217.144222 184.493398 217.715272 
C 184.457427 218.286323 184.403501 218.8561 184.331701 219.42376 
z
" style="fill: #a1d99b; stroke: #ffffff; stroke-linejoin: miter"/>
   </g>
   <g id="matplotlib.axis_1"/>
   <g id="matplotlib.axis_2"/>
   <g id="text_1">
    <!-- Train -->
    <g transform="translate(109.054736 144.150322) scale(0.1 -0.1)">
     <defs>
      <path id="DejaVuSans-54" d="M -19 4666 
L 3928 4666 
L 3928 4134 
L 2272 4134 
L 2272 0 
L 1638 0 
L 1638 4134 
L -19 4134 
L -19 4666 
z
" transform="scale(0.015625)"/>
      <path id="DejaVuSans-72" d="M 2631 2963 
Q 2534 3019 2420 3045 
Q 2306 3072 2169 3072 
Q 1681 3072 1420 2755 
Q 1159 2438 1159 1844 
L 1159 0 
L 581 0 
L 581 3500 
L 1159 3500 
L 1159 2956 
Q 1341 3275 1631 3429 
Q 1922 3584 2338 3584 
Q 2397 3584 2469 3576 
Q 2541 3569 2628 3553 
L 2631 2963 
z
" transform="scale(0.015625)"/>
      <path id="DejaVuSans-61" d="M 2194 1759 
Q 1497 1759 1228 1600 
Q 959 1441 959 1056 
Q 959 750 1161 570 
Q 1363 391 1709 391 
Q 2188 391 2477 730 
Q 2766 1069 2766 1631 
L 2766 1759 
L 2194 1759 
z
M 3341 1997 
L 3341 0 
L 2766 0 
L 2766 531 
Q 2569 213 2275 61 
Q 1981 -91 1556 -91 
Q 1019 -91 701 211 
Q 384 513 384 1019 
Q 384 1609 779 1909 
Q 1175 2209 1959 2209 
L 2766 2209 
L 2766 2266 
Q 2766 2663 2505 2880 
Q 2244 3097 1772 3097 
Q 1472 3097 1187 3025 
Q 903 2953 641 2809 
L 641 3341 
Q 956 3463 1253 3523 
Q 1550 3584 1831 3584 
Q 2591 3584 2966 3190 
Q 3341 2797 3341 1997 
z
" transform="scale(0.015625)"/>
      <path id="DejaVuSans-69" d="M 603 3500 
L 1178 3500 
L 1178 0 
L 603 0 
L 603 3500 
z
M 603 4863 
L 1178 4863 
L 1178 4134 
L 603 4134 
L 603 4863 
z
" transform="scale(0.015625)"/>
      <path id="DejaVuSans-6e" d="M 3513 2113 
L 3513 0 
L 2938 0 
L 2938 2094 
Q 2938 2591 2744 2837 
Q 2550 3084 2163 3084 
Q 1697 3084 1428 2787 
Q 1159 2491 1159 1978 
L 1159 0 
L 581 0 
L 581 3500 
L 1159 3500 
L 1159 2956 
Q 1366 3272 1645 3428 
Q 1925 3584 2291 3584 
Q 2894 3584 3203 3211 
Q 3513 2838 3513 2113 
z
" transform="scale(0.015625)"/>
     </defs>
     <use xlink:href="#DejaVuSans-54"/>
     <use xlink:href="#DejaVuSans-72" x="46.333984"/>
     <use xlink:href="#DejaVuSans-61" x="87.447266"/>
     <use xlink:href="#DejaVuSans-69" x="148.726562"/>
     <use xlink:href="#DejaVuSans-6e" x="176.509766"/>
    </g>
   </g>
   <g id="text_2">
    <!-- 60.0% -->
    <g transform="translate(123.477144 163.613553) scale(0.1 -0.1)">
     <defs>
      <path id="DejaVuSans-36" d="M 2113 2584 
Q 1688 2584 1439 2293 
Q 1191 2003 1191 1497 
Q 1191 994 1439 701 
Q 1688 409 2113 409 
Q 2538 409 2786 701 
Q 3034 994 3034 1497 
Q 3034 2003 2786 2293 
Q 2538 2584 2113 2584 
z
M 3366 4563 
L 3366 3988 
Q 3128 4100 2886 4159 
Q 2644 4219 2406 4219 
Q 1781 4219 1451 3797 
Q 1122 3375 1075 2522 
Q 1259 2794 1537 2939 
Q 1816 3084 2150 3084 
Q 2853 3084 3261 2657 
Q 3669 2231 3669 1497 
Q 3669 778 3244 343 
Q 2819 -91 2113 -91 
Q 1303 -91 875 529 
Q 447 1150 447 2328 
Q 447 3434 972 4092 
Q 1497 4750 2381 4750 
Q 2619 4750 2861 4703 
Q 3103 4656 3366 4563 
z
" transform="scale(0.015625)"/>
      <path id="DejaVuSans-30" d="M 2034 4250 
Q 1547 4250 1301 3770 
Q 1056 3291 1056 2328 
Q 1056 1369 1301 889 
Q 1547 409 2034 409 
Q 2525 409 2770 889 
Q 3016 1369 3016 2328 
Q 3016 3291 2770 3770 
Q 2525 4250 2034 4250 
z
M 2034 4750 
Q 2819 4750 3233 4129 
Q 3647 3509 3647 2328 
Q 3647 1150 3233 529 
Q 2819 -91 2034 -91 
Q 1250 -91 836 529 
Q 422 1150 422 2328 
Q 422 3509 836 4129 
Q 1250 4750 2034 4750 
z
" transform="scale(0.015625)"/>
      <path id="DejaVuSans-2e" d="M 684 794 
L 1344 794 
L 1344 0 
L 684 0 
L 684 794 
z
" transform="scale(0.015625)"/>
      <path id="DejaVuSans-25" d="M 4653 2053 
Q 4381 2053 4226 1822 
Q 4072 1591 4072 1178 
Q 4072 772 4226 539 
Q 4381 306 4653 306 
Q 4919 306 5073 539 
Q 5228 772 5228 1178 
Q 5228 1588 5073 1820 
Q 4919 2053 4653 2053 
z
M 4653 2450 
Q 5147 2450 5437 2106 
Q 5728 1763 5728 1178 
Q 5728 594 5436 251 
Q 5144 -91 4653 -91 
Q 4153 -91 3862 251 
Q 3572 594 3572 1178 
Q 3572 1766 3864 2108 
Q 4156 2450 4653 2450 
z
M 1428 4353 
Q 1159 4353 1004 4120 
Q 850 3888 850 3481 
Q 850 3069 1003 2837 
Q 1156 2606 1428 2606 
Q 1700 2606 1854 2837 
Q 2009 3069 2009 3481 
Q 2009 3884 1853 4118 
Q 1697 4353 1428 4353 
z
M 4250 4750 
L 4750 4750 
L 1831 -91 
L 1331 -91 
L 4250 4750 
z
M 1428 4750 
Q 1922 4750 2215 4408 
Q 2509 4066 2509 3481 
Q 2509 2891 2217 2550 
Q 1925 2209 1428 2209 
Q 931 2209 642 2551 
Q 353 2894 353 3481 
Q 353 4063 643 4406 
Q 934 4750 1428 4750 
z
" transform="scale(0.015625)"/>
     </defs>
     <use xlink:href="#DejaVuSans-36"/>
     <use xlink:href="#DejaVuSans-30" x="63.623047"/>
     <use xlink:href="#DejaVuSans-2e" x="127.246094"/>
     <use xlink:href="#DejaVuSans-30" x="159.033203"/>
     <use xlink:href="#DejaVuSans-25" x="222.65625"/>
    </g>
   </g>
   <g id="text_3">
    <!-- Validation -->
    <g transform="translate(83.613438 293.352976) scale(0.1 -0.1)">
     <defs>
      <path id="DejaVuSans-56" d="M 1831 0 
L 50 4666 
L 709 4666 
L 2188 738 
L 3669 4666 
L 4325 4666 
L 2547 0 
L 1831 0 
z
" transform="scale(0.015625)"/>
      <path id="DejaVuSans-6c" d="M 603 4863 
L 1178 4863 
L 1178 0 
L 603 0 
L 603 4863 
z
" transform="scale(0.015625)"/>
      <path id="DejaVuSans-64" d="M 2906 2969 
L 2906 4863 
L 3481 4863 
L 3481 0 
L 2906 0 
L 2906 525 
Q 2725 213 2448 61 
Q 2172 -91 1784 -91 
Q 1150 -91 751 415 
Q 353 922 353 1747 
Q 353 2572 751 3078 
Q 1150 3584 1784 3584 
Q 2172 3584 2448 3432 
Q 2725 3281 2906 2969 
z
M 947 1747 
Q 947 1113 1208 752 
Q 1469 391 1925 391 
Q 2381 391 2643 752 
Q 2906 1113 2906 1747 
Q 2906 2381 2643 2742 
Q 2381 3103 1925 3103 
Q 1469 3103 1208 2742 
Q 947 2381 947 1747 
z
" transform="scale(0.015625)"/>
      <path id="DejaVuSans-74" d="M 1172 4494 
L 1172 3500 
L 2356 3500 
L 2356 3053 
L 1172 3053 
L 1172 1153 
Q 1172 725 1289 603 
Q 1406 481 1766 481 
L 2356 481 
L 2356 0 
L 1766 0 
Q 1100 0 847 248 
Q 594 497 594 1153 
L 594 3053 
L 172 3053 
L 172 3500 
L 594 3500 
L 594 4494 
L 1172 4494 
z
" transform="scale(0.015625)"/>
      <path id="DejaVuSans-6f" d="M 1959 3097 
Q 1497 3097 1228 2736 
Q 959 2375 959 1747 
Q 959 1119 1226 758 
Q 1494 397 1959 397 
Q 2419 397 2687 759 
Q 2956 1122 2956 1747 
Q 2956 2369 2687 2733 
Q 2419 3097 1959 3097 
z
M 1959 3584 
Q 2709 3584 3137 3096 
Q 3566 2609 3566 1747 
Q 3566 888 3137 398 
Q 2709 -91 1959 -91 
Q 1206 -91 779 398 
Q 353 888 353 1747 
Q 353 2609 779 3096 
Q 1206 3584 1959 3584 
z
" transform="scale(0.015625)"/>
     </defs>
     <use xlink:href="#DejaVuSans-56"/>
     <use xlink:href="#DejaVuSans-61" x="60.658203"/>
     <use xlink:href="#DejaVuSans-6c" x="121.9375"/>
     <use xlink:href="#DejaVuSans-69" x="149.720703"/>
     <use xlink:href="#DejaVuSans-64" x="177.503906"/>
     <use xlink:href="#DejaVuSans-61" x="240.980469"/>
     <use xlink:href="#DejaVuSans-74" x="302.259766"/>
     <use xlink:href="#DejaVuSans-69" x="341.46875"/>
     <use xlink:href="#DejaVuSans-6f" x="369.251953"/>
     <use xlink:href="#DejaVuSans-6e" x="430.433594"/>
    </g>
   </g>
   <g id="text_4">
    <!-- 20.0% -->
    <g transform="translate(123.441999 273.893775) scale(0.1 -0.1)">
     <defs>
      <path id="DejaVuSans-32" d="M 1228 531 
L 3431 531 
L 3431 0 
L 469 0 
L 469 531 
Q 828 903 1448 1529 
Q 2069 2156 2228 2338 
Q 2531 2678 2651 2914 
Q 2772 3150 2772 3378 
Q 2772 3750 2511 3984 
Q 2250 4219 1831 4219 
Q 1534 4219 1204 4116 
Q 875 4013 500 3803 
L 500 4441 
Q 881 4594 1212 4672 
Q 1544 4750 1819 4750 
Q 2544 4750 2975 4387 
Q 3406 4025 3406 3419 
Q 3406 3131 3298 2873 
Q 3191 2616 2906 2266 
Q 2828 2175 2409 1742 
Q 1991 1309 1228 531 
z
" transform="scale(0.015625)"/>
     </defs>
     <use xlink:href="#DejaVuSans-32"/>
     <use xlink:href="#DejaVuSans-30" x="63.623047"/>
     <use xlink:href="#DejaVuSans-2e" x="127.246094"/>
     <use xlink:href="#DejaVuSans-30" x="159.033203"/>
     <use xlink:href="#DejaVuSans-25" x="222.65625"/>
    </g>
   </g>
   <g id="text_5">
    <!-- Test -->
    <g transform="translate(220.718282 264.874568) scale(0.1 -0.1)">
     <defs>
      <path id="DejaVuSans-65" d="M 3597 1894 
L 3597 1613 
L 953 1613 
Q 991 1019 1311 708 
Q 1631 397 2203 397 
Q 2534 397 2845 478 
Q 3156 559 3463 722 
L 3463 178 
Q 3153 47 2828 -22 
Q 2503 -91 2169 -91 
Q 1331 -91 842 396 
Q 353 884 353 1716 
Q 353 2575 817 3079 
Q 1281 3584 2069 3584 
Q 2775 3584 3186 3129 
Q 3597 2675 3597 1894 
z
M 3022 2063 
Q 3016 2534 2758 2815 
Q 2500 3097 2075 3097 
Q 1594 3097 1305 2825 
Q 1016 2553 972 2059 
L 3022 2063 
z
" transform="scale(0.015625)"/>
      <path id="DejaVuSans-73" d="M 2834 3397 
L 2834 2853 
Q 2591 2978 2328 3040 
Q 2066 3103 1784 3103 
Q 1356 3103 1142 2972 
Q 928 2841 928 2578 
Q 928 2378 1081 2264 
Q 1234 2150 1697 2047 
L 1894 2003 
Q 2506 1872 2764 1633 
Q 3022 1394 3022 966 
Q 3022 478 2636 193 
Q 2250 -91 1575 -91 
Q 1294 -91 989 -36 
Q 684 19 347 128 
L 347 722 
Q 666 556 975 473 
Q 1284 391 1588 391 
Q 1994 391 2212 530 
Q 2431 669 2431 922 
Q 2431 1156 2273 1281 
Q 2116 1406 1581 1522 
L 1381 1569 
Q 847 1681 609 1914 
Q 372 2147 372 2553 
Q 372 3047 722 3315 
Q 1072 3584 1716 3584 
Q 2034 3584 2315 3537 
Q 2597 3491 2834 3397 
z
" transform="scale(0.015625)"/>
     </defs>
     <use xlink:href="#DejaVuSans-54"/>
     <use xlink:href="#DejaVuSans-65" x="44.083984"/>
     <use xlink:href="#DejaVuSans-73" x="105.607422"/>
     <use xlink:href="#DejaVuSans-74" x="157.707031"/>
    </g>
   </g>
   <g id="text_6">
    <!-- 20.0% -->
    <g transform="translate(188.281178 252.844518) scale(0.1 -0.1)">
     <use xlink:href="#DejaVuSans-32"/>
     <use xlink:href="#DejaVuSans-30" x="63.623047"/>
     <use xlink:href="#DejaVuSans-2e" x="127.246094"/>
     <use xlink:href="#DejaVuSans-30" x="159.033203"/>
     <use xlink:href="#DejaVuSans-25" x="222.65625"/>
    </g>
   </g>
   <g id="text_7">
    <g id="patch_11">
     <path d="M 89.052632 364.291289 
L 208.150132 364.291289 
Q 210.550132 364.291289 210.550132 361.891289 
L 210.550132 318.315789 
Q 210.550132 315.915789 208.150132 315.915789 
L 89.052632 315.915789 
Q 86.652632 315.915789 86.652632 318.315789 
L 86.652632 361.891289 
Q 86.652632 364.291289 89.052632 364.291289 
z
" style="fill: #f5deb3; opacity: 0.5; stroke: #000000; stroke-linejoin: miter"/>
    </g>
    <!--        Masked  Unmasked  Total -->
    <g transform="translate(89.052632 324.394539) scale(0.08 -0.08)">
     <defs>
      <path id="DejaVuSans-20" transform="scale(0.015625)"/>
      <path id="DejaVuSans-4d" d="M 628 4666 
L 1569 4666 
L 2759 1491 
L 3956 4666 
L 4897 4666 
L 4897 0 
L 4281 0 
L 4281 4097 
L 3078 897 
L 2444 897 
L 1241 4097 
L 1241 0 
L 628 0 
L 628 4666 
z
" transform="scale(0.015625)"/>
      <path id="DejaVuSans-6b" d="M 581 4863 
L 1159 4863 
L 1159 1991 
L 2875 3500 
L 3609 3500 
L 1753 1863 
L 3688 0 
L 2938 0 
L 1159 1709 
L 1159 0 
L 581 0 
L 581 4863 
z
" transform="scale(0.015625)"/>
      <path id="DejaVuSans-55" d="M 556 4666 
L 1191 4666 
L 1191 1831 
Q 1191 1081 1462 751 
Q 1734 422 2344 422 
Q 2950 422 3222 751 
Q 3494 1081 3494 1831 
L 3494 4666 
L 4128 4666 
L 4128 1753 
Q 4128 841 3676 375 
Q 3225 -91 2344 -91 
Q 1459 -91 1007 375 
Q 556 841 556 1753 
L 556 4666 
z
" transform="scale(0.015625)"/>
      <path id="DejaVuSans-6d" d="M 3328 2828 
Q 3544 3216 3844 3400 
Q 4144 3584 4550 3584 
Q 5097 3584 5394 3201 
Q 5691 2819 5691 2113 
L 5691 0 
L 5113 0 
L 5113 2094 
Q 5113 2597 4934 2840 
Q 4756 3084 4391 3084 
Q 3944 3084 3684 2787 
Q 3425 2491 3425 1978 
L 3425 0 
L 2847 0 
L 2847 2094 
Q 2847 2600 2669 2842 
Q 2491 3084 2119 3084 
Q 1678 3084 1418 2786 
Q 1159 2488 1159 1978 
L 1159 0 
L 581 0 
L 581 3500 
L 1159 3500 
L 1159 2956 
Q 1356 3278 1631 3431 
Q 1906 3584 2284 3584 
Q 2666 3584 2933 3390 
Q 3200 3197 3328 2828 
z
" transform="scale(0.015625)"/>
     </defs>
     <use xlink:href="#DejaVuSans-20"/>
     <use xlink:href="#DejaVuSans-20" x="31.787109"/>
     <use xlink:href="#DejaVuSans-20" x="63.574219"/>
     <use xlink:href="#DejaVuSans-20" x="95.361328"/>
     <use xlink:href="#DejaVuSans-20" x="127.148438"/>
     <use xlink:href="#DejaVuSans-20" x="158.935547"/>
     <use xlink:href="#DejaVuSans-20" x="190.722656"/>
     <use xlink:href="#DejaVuSans-4d" x="222.509766"/>
     <use xlink:href="#DejaVuSans-61" x="308.789062"/>
     <use xlink:href="#DejaVuSans-73" x="370.068359"/>
     <use xlink:href="#DejaVuSans-6b" x="422.167969"/>
     <use xlink:href="#DejaVuSans-65" x="476.453125"/>
     <use xlink:href="#DejaVuSans-64" x="537.976562"/>
     <use xlink:href="#DejaVuSans-20" x="601.453125"/>
     <use xlink:href="#DejaVuSans-20" x="633.240234"/>
     <use xlink:href="#DejaVuSans-55" x="665.027344"/>
     <use xlink:href="#DejaVuSans-6e" x="738.220703"/>
     <use xlink:href="#DejaVuSans-6d" x="801.599609"/>
     <use xlink:href="#DejaVuSans-61" x="899.011719"/>
     <use xlink:href="#DejaVuSans-73" x="960.291016"/>
     <use xlink:href="#DejaVuSans-6b" x="1012.390625"/>
     <use xlink:href="#DejaVuSans-65" x="1066.675781"/>
     <use xlink:href="#DejaVuSans-64" x="1128.199219"/>
     <use xlink:href="#DejaVuSans-20" x="1191.675781"/>
     <use xlink:href="#DejaVuSans-20" x="1223.462891"/>
     <use xlink:href="#DejaVuSans-54" x="1255.25"/>
     <use xlink:href="#DejaVuSans-6f" x="1299.333984"/>
     <use xlink:href="#DejaVuSans-74" x="1360.515625"/>
     <use xlink:href="#DejaVuSans-61" x="1399.724609"/>
     <use xlink:href="#DejaVuSans-6c" x="1461.003906"/>
    </g>
    <!-- Train    7981       887   8868 -->
    <g transform="translate(89.052632 333.352789) scale(0.08 -0.08)">
     <defs>
      <path id="DejaVuSans-37" d="M 525 4666 
L 3525 4666 
L 3525 4397 
L 1831 0 
L 1172 0 
L 2766 4134 
L 525 4134 
L 525 4666 
z
" transform="scale(0.015625)"/>
      <path id="DejaVuSans-39" d="M 703 97 
L 703 672 
Q 941 559 1184 500 
Q 1428 441 1663 441 
Q 2288 441 2617 861 
Q 2947 1281 2994 2138 
Q 2813 1869 2534 1725 
Q 2256 1581 1919 1581 
Q 1219 1581 811 2004 
Q 403 2428 403 3163 
Q 403 3881 828 4315 
Q 1253 4750 1959 4750 
Q 2769 4750 3195 4129 
Q 3622 3509 3622 2328 
Q 3622 1225 3098 567 
Q 2575 -91 1691 -91 
Q 1453 -91 1209 -44 
Q 966 3 703 97 
z
M 1959 2075 
Q 2384 2075 2632 2365 
Q 2881 2656 2881 3163 
Q 2881 3666 2632 3958 
Q 2384 4250 1959 4250 
Q 1534 4250 1286 3958 
Q 1038 3666 1038 3163 
Q 1038 2656 1286 2365 
Q 1534 2075 1959 2075 
z
" transform="scale(0.015625)"/>
      <path id="DejaVuSans-38" d="M 2034 2216 
Q 1584 2216 1326 1975 
Q 1069 1734 1069 1313 
Q 1069 891 1326 650 
Q 1584 409 2034 409 
Q 2484 409 2743 651 
Q 3003 894 3003 1313 
Q 3003 1734 2745 1975 
Q 2488 2216 2034 2216 
z
M 1403 2484 
Q 997 2584 770 2862 
Q 544 3141 544 3541 
Q 544 4100 942 4425 
Q 1341 4750 2034 4750 
Q 2731 4750 3128 4425 
Q 3525 4100 3525 3541 
Q 3525 3141 3298 2862 
Q 3072 2584 2669 2484 
Q 3125 2378 3379 2068 
Q 3634 1759 3634 1313 
Q 3634 634 3220 271 
Q 2806 -91 2034 -91 
Q 1263 -91 848 271 
Q 434 634 434 1313 
Q 434 1759 690 2068 
Q 947 2378 1403 2484 
z
M 1172 3481 
Q 1172 3119 1398 2916 
Q 1625 2713 2034 2713 
Q 2441 2713 2670 2916 
Q 2900 3119 2900 3481 
Q 2900 3844 2670 4047 
Q 2441 4250 2034 4250 
Q 1625 4250 1398 4047 
Q 1172 3844 1172 3481 
z
" transform="scale(0.015625)"/>
      <path id="DejaVuSans-31" d="M 794 531 
L 1825 531 
L 1825 4091 
L 703 3866 
L 703 4441 
L 1819 4666 
L 2450 4666 
L 2450 531 
L 3481 531 
L 3481 0 
L 794 0 
L 794 531 
z
" transform="scale(0.015625)"/>
     </defs>
     <use xlink:href="#DejaVuSans-54"/>
     <use xlink:href="#DejaVuSans-72" x="46.333984"/>
     <use xlink:href="#DejaVuSans-61" x="87.447266"/>
     <use xlink:href="#DejaVuSans-69" x="148.726562"/>
     <use xlink:href="#DejaVuSans-6e" x="176.509766"/>
     <use xlink:href="#DejaVuSans-20" x="239.888672"/>
     <use xlink:href="#DejaVuSans-20" x="271.675781"/>
     <use xlink:href="#DejaVuSans-20" x="303.462891"/>
     <use xlink:href="#DejaVuSans-20" x="335.25"/>
     <use xlink:href="#DejaVuSans-37" x="367.037109"/>
     <use xlink:href="#DejaVuSans-39" x="430.660156"/>
     <use xlink:href="#DejaVuSans-38" x="494.283203"/>
     <use xlink:href="#DejaVuSans-31" x="557.90625"/>
     <use xlink:href="#DejaVuSans-20" x="621.529297"/>
     <use xlink:href="#DejaVuSans-20" x="653.316406"/>
     <use xlink:href="#DejaVuSans-20" x="685.103516"/>
     <use xlink:href="#DejaVuSans-20" x="716.890625"/>
     <use xlink:href="#DejaVuSans-20" x="748.677734"/>
     <use xlink:href="#DejaVuSans-20" x="780.464844"/>
     <use xlink:href="#DejaVuSans-20" x="812.251953"/>
     <use xlink:href="#DejaVuSans-38" x="844.039062"/>
     <use xlink:href="#DejaVuSans-38" x="907.662109"/>
     <use xlink:href="#DejaVuSans-37" x="971.285156"/>
     <use xlink:href="#DejaVuSans-20" x="1034.908203"/>
     <use xlink:href="#DejaVuSans-20" x="1066.695312"/>
     <use xlink:href="#DejaVuSans-20" x="1098.482422"/>
     <use xlink:href="#DejaVuSans-38" x="1130.269531"/>
     <use xlink:href="#DejaVuSans-38" x="1193.892578"/>
     <use xlink:href="#DejaVuSans-36" x="1257.515625"/>
     <use xlink:href="#DejaVuSans-38" x="1321.138672"/>
    </g>
    <!-- Val      2661       296   2957 -->
    <g transform="translate(89.052632 342.311039) scale(0.08 -0.08)">
     <defs>
      <path id="DejaVuSans-35" d="M 691 4666 
L 3169 4666 
L 3169 4134 
L 1269 4134 
L 1269 2991 
Q 1406 3038 1543 3061 
Q 1681 3084 1819 3084 
Q 2600 3084 3056 2656 
Q 3513 2228 3513 1497 
Q 3513 744 3044 326 
Q 2575 -91 1722 -91 
Q 1428 -91 1123 -41 
Q 819 9 494 109 
L 494 744 
Q 775 591 1075 516 
Q 1375 441 1709 441 
Q 2250 441 2565 725 
Q 2881 1009 2881 1497 
Q 2881 1984 2565 2268 
Q 2250 2553 1709 2553 
Q 1456 2553 1204 2497 
Q 953 2441 691 2322 
L 691 4666 
z
" transform="scale(0.015625)"/>
     </defs>
     <use xlink:href="#DejaVuSans-56"/>
     <use xlink:href="#DejaVuSans-61" x="60.658203"/>
     <use xlink:href="#DejaVuSans-6c" x="121.9375"/>
     <use xlink:href="#DejaVuSans-20" x="149.720703"/>
     <use xlink:href="#DejaVuSans-20" x="181.507812"/>
     <use xlink:href="#DejaVuSans-20" x="213.294922"/>
     <use xlink:href="#DejaVuSans-20" x="245.082031"/>
     <use xlink:href="#DejaVuSans-20" x="276.869141"/>
     <use xlink:href="#DejaVuSans-20" x="308.65625"/>
     <use xlink:href="#DejaVuSans-32" x="340.443359"/>
     <use xlink:href="#DejaVuSans-36" x="404.066406"/>
     <use xlink:href="#DejaVuSans-36" x="467.689453"/>
     <use xlink:href="#DejaVuSans-31" x="531.3125"/>
     <use xlink:href="#DejaVuSans-20" x="594.935547"/>
     <use xlink:href="#DejaVuSans-20" x="626.722656"/>
     <use xlink:href="#DejaVuSans-20" x="658.509766"/>
     <use xlink:href="#DejaVuSans-20" x="690.296875"/>
     <use xlink:href="#DejaVuSans-20" x="722.083984"/>
     <use xlink:href="#DejaVuSans-20" x="753.871094"/>
     <use xlink:href="#DejaVuSans-20" x="785.658203"/>
     <use xlink:href="#DejaVuSans-32" x="817.445312"/>
     <use xlink:href="#DejaVuSans-39" x="881.068359"/>
     <use xlink:href="#DejaVuSans-36" x="944.691406"/>
     <use xlink:href="#DejaVuSans-20" x="1008.314453"/>
     <use xlink:href="#DejaVuSans-20" x="1040.101562"/>
     <use xlink:href="#DejaVuSans-20" x="1071.888672"/>
     <use xlink:href="#DejaVuSans-32" x="1103.675781"/>
     <use xlink:href="#DejaVuSans-39" x="1167.298828"/>
     <use xlink:href="#DejaVuSans-35" x="1230.921875"/>
     <use xlink:href="#DejaVuSans-37" x="1294.544922"/>
    </g>
    <!-- Test     2661       296   2957 -->
    <g transform="translate(89.052632 351.269289) scale(0.08 -0.08)">
     <use xlink:href="#DejaVuSans-54"/>
     <use xlink:href="#DejaVuSans-65" x="44.083984"/>
     <use xlink:href="#DejaVuSans-73" x="105.607422"/>
     <use xlink:href="#DejaVuSans-74" x="157.707031"/>
     <use xlink:href="#DejaVuSans-20" x="196.916016"/>
     <use xlink:href="#DejaVuSans-20" x="228.703125"/>
     <use xlink:href="#DejaVuSans-20" x="260.490234"/>
     <use xlink:href="#DejaVuSans-20" x="292.277344"/>
     <use xlink:href="#DejaVuSans-20" x="324.064453"/>
     <use xlink:href="#DejaVuSans-32" x="355.851562"/>
     <use xlink:href="#DejaVuSans-36" x="419.474609"/>
     <use xlink:href="#DejaVuSans-36" x="483.097656"/>
     <use xlink:href="#DejaVuSans-31" x="546.720703"/>
     <use xlink:href="#DejaVuSans-20" x="610.34375"/>
     <use xlink:href="#DejaVuSans-20" x="642.130859"/>
     <use xlink:href="#DejaVuSans-20" x="673.917969"/>
     <use xlink:href="#DejaVuSans-20" x="705.705078"/>
     <use xlink:href="#DejaVuSans-20" x="737.492188"/>
     <use xlink:href="#DejaVuSans-20" x="769.279297"/>
     <use xlink:href="#DejaVuSans-20" x="801.066406"/>
     <use xlink:href="#DejaVuSans-32" x="832.853516"/>
     <use xlink:href="#DejaVuSans-39" x="896.476562"/>
     <use xlink:href="#DejaVuSans-36" x="960.099609"/>
     <use xlink:href="#DejaVuSans-20" x="1023.722656"/>
     <use xlink:href="#DejaVuSans-20" x="1055.509766"/>
     <use xlink:href="#DejaVuSans-20" x="1087.296875"/>
     <use xlink:href="#DejaVuSans-32" x="1119.083984"/>
     <use xlink:href="#DejaVuSans-39" x="1182.707031"/>
     <use xlink:href="#DejaVuSans-35" x="1246.330078"/>
     <use xlink:href="#DejaVuSans-37" x="1309.953125"/>
    </g>
    <!-- Total   13303      1479  14782 -->
    <g transform="translate(89.052632 360.227539) scale(0.08 -0.08)">
     <defs>
      <path id="DejaVuSans-33" d="M 2597 2516 
Q 3050 2419 3304 2112 
Q 3559 1806 3559 1356 
Q 3559 666 3084 287 
Q 2609 -91 1734 -91 
Q 1441 -91 1130 -33 
Q 819 25 488 141 
L 488 750 
Q 750 597 1062 519 
Q 1375 441 1716 441 
Q 2309 441 2620 675 
Q 2931 909 2931 1356 
Q 2931 1769 2642 2001 
Q 2353 2234 1838 2234 
L 1294 2234 
L 1294 2753 
L 1863 2753 
Q 2328 2753 2575 2939 
Q 2822 3125 2822 3475 
Q 2822 3834 2567 4026 
Q 2313 4219 1838 4219 
Q 1578 4219 1281 4162 
Q 984 4106 628 3988 
L 628 4550 
Q 988 4650 1302 4700 
Q 1616 4750 1894 4750 
Q 2613 4750 3031 4423 
Q 3450 4097 3450 3541 
Q 3450 3153 3228 2886 
Q 3006 2619 2597 2516 
z
" transform="scale(0.015625)"/>
      <path id="DejaVuSans-34" d="M 2419 4116 
L 825 1625 
L 2419 1625 
L 2419 4116 
z
M 2253 4666 
L 3047 4666 
L 3047 1625 
L 3713 1625 
L 3713 1100 
L 3047 1100 
L 3047 0 
L 2419 0 
L 2419 1100 
L 313 1100 
L 313 1709 
L 2253 4666 
z
" transform="scale(0.015625)"/>
     </defs>
     <use xlink:href="#DejaVuSans-54"/>
     <use xlink:href="#DejaVuSans-6f" x="44.083984"/>
     <use xlink:href="#DejaVuSans-74" x="105.265625"/>
     <use xlink:href="#DejaVuSans-61" x="144.474609"/>
     <use xlink:href="#DejaVuSans-6c" x="205.753906"/>
     <use xlink:href="#DejaVuSans-20" x="233.537109"/>
     <use xlink:href="#DejaVuSans-20" x="265.324219"/>
     <use xlink:href="#DejaVuSans-20" x="297.111328"/>
     <use xlink:href="#DejaVuSans-31" x="328.898438"/>
     <use xlink:href="#DejaVuSans-33" x="392.521484"/>
     <use xlink:href="#DejaVuSans-33" x="456.144531"/>
     <use xlink:href="#DejaVuSans-30" x="519.767578"/>
     <use xlink:href="#DejaVuSans-33" x="583.390625"/>
     <use xlink:href="#DejaVuSans-20" x="647.013672"/>
     <use xlink:href="#DejaVuSans-20" x="678.800781"/>
     <use xlink:href="#DejaVuSans-20" x="710.587891"/>
     <use xlink:href="#DejaVuSans-20" x="742.375"/>
     <use xlink:href="#DejaVuSans-20" x="774.162109"/>
     <use xlink:href="#DejaVuSans-20" x="805.949219"/>
     <use xlink:href="#DejaVuSans-31" x="837.736328"/>
     <use xlink:href="#DejaVuSans-34" x="901.359375"/>
     <use xlink:href="#DejaVuSans-37" x="964.982422"/>
     <use xlink:href="#DejaVuSans-39" x="1028.605469"/>
     <use xlink:href="#DejaVuSans-20" x="1092.228516"/>
     <use xlink:href="#DejaVuSans-20" x="1124.015625"/>
     <use xlink:href="#DejaVuSans-31" x="1155.802734"/>
     <use xlink:href="#DejaVuSans-34" x="1219.425781"/>
     <use xlink:href="#DejaVuSans-37" x="1283.048828"/>
     <use xlink:href="#DejaVuSans-38" x="1346.671875"/>
     <use xlink:href="#DejaVuSans-32" x="1410.294922"/>
    </g>
   </g>
   <g id="text_8">
    <!-- Masked: 90 % -->
    <g transform="translate(122.33972 113.53903) scale(0.1 -0.1)">
     <defs>
      <path id="DejaVuSans-3a" d="M 750 794 
L 1409 794 
L 1409 0 
L 750 0 
L 750 794 
z
M 750 3309 
L 1409 3309 
L 1409 2516 
L 750 2516 
L 750 3309 
z
" transform="scale(0.015625)"/>
     </defs>
     <use xlink:href="#DejaVuSans-4d"/>
     <use xlink:href="#DejaVuSans-61" x="86.279297"/>
     <use xlink:href="#DejaVuSans-73" x="147.558594"/>
     <use xlink:href="#DejaVuSans-6b" x="199.658203"/>
     <use xlink:href="#DejaVuSans-65" x="253.943359"/>
     <use xlink:href="#DejaVuSans-64" x="315.466797"/>
     <use xlink:href="#DejaVuSans-3a" x="378.943359"/>
     <use xlink:href="#DejaVuSans-20" x="412.634766"/>
     <use xlink:href="#DejaVuSans-39" x="444.421875"/>
     <use xlink:href="#DejaVuSans-30" x="508.044922"/>
     <use xlink:href="#DejaVuSans-20" x="571.667969"/>
     <use xlink:href="#DejaVuSans-25" x="603.455078"/>
    </g>
    <!-- Unmasked: 10 % -->
    <g transform="translate(114.955345 124.736842) scale(0.1 -0.1)">
     <use xlink:href="#DejaVuSans-55"/>
     <use xlink:href="#DejaVuSans-6e" x="73.193359"/>
     <use xlink:href="#DejaVuSans-6d" x="136.572266"/>
     <use xlink:href="#DejaVuSans-61" x="233.984375"/>
     <use xlink:href="#DejaVuSans-73" x="295.263672"/>
     <use xlink:href="#DejaVuSans-6b" x="347.363281"/>
     <use xlink:href="#DejaVuSans-65" x="401.648438"/>
     <use xlink:href="#DejaVuSans-64" x="463.171875"/>
     <use xlink:href="#DejaVuSans-3a" x="526.648438"/>
     <use xlink:href="#DejaVuSans-20" x="560.339844"/>
     <use xlink:href="#DejaVuSans-31" x="592.126953"/>
     <use xlink:href="#DejaVuSans-30" x="655.75"/>
     <use xlink:href="#DejaVuSans-20" x="719.373047"/>
     <use xlink:href="#DejaVuSans-25" x="751.160156"/>
    </g>
   </g>
  </g>
  <g id="axes_2">
   <g id="patch_12">
    <path d="M 464.210526 216 
C 464.210526 205.237718 461.663411 194.626675 456.778072 185.037088 
C 451.892732 175.447502 444.806472 167.14889 436.100439 160.821828 
C 427.394407 154.494766 417.313288 150.317077 406.683842 148.631377 
C 396.054396 146.945676 385.175366 147.799341 374.938949 151.122361 
C 364.702531 154.445382 355.396423 160.144364 347.783825 167.751929 
C 340.171226 175.359495 334.466092 184.661833 331.136303 194.89605 
C 327.806514 205.130268 326.945655 216.008732 328.624326 226.63929 
C 330.302997 237.269849 334.474019 247.353728 340.795322 256.063942 
L 357.356726 244.04476 
C 352.931813 237.94761 350.012098 230.888894 348.837028 223.447503 
C 347.661959 216.006112 348.26456 208.391188 350.595412 201.227235 
C 352.926264 194.063283 356.919858 187.551647 362.248677 182.226351 
C 367.577496 176.901054 374.091772 172.911767 381.257264 170.585653 
C 388.422756 168.259539 396.038077 167.661973 403.47869 168.841964 
C 410.919302 170.021954 417.976085 172.946336 424.070308 177.37528 
C 430.16453 181.804223 435.124912 187.613251 438.54465 194.325962 
C 441.964388 201.038672 443.747368 208.466403 443.747368 216 
z
" style="fill: #3182bd; stroke: #ffffff; stroke-linejoin: miter"/>
   </g>
   <g id="patch_13">
    <path d="M 340.795322 256.063942 
C 349.255198 267.720926 361.193768 276.404113 374.889923 280.861703 
C 388.586078 285.319293 403.348433 285.326266 417.048793 280.881617 
L 410.734155 261.417132 
C 401.143903 264.528386 390.810255 264.523505 381.222946 261.403192 
C 371.635637 258.282879 363.278639 252.204648 357.356726 244.04476 
z
" style="fill: #e6550d; stroke: #ffffff; stroke-linejoin: miter"/>
   </g>
   <g id="patch_14">
    <path d="M 417.048793 280.881617 
C 430.753339 276.435609 442.703113 267.759798 451.174383 256.105652 
C 459.645654 244.451506 464.210526 230.407691 464.210526 216 
L 443.747368 216 
C 443.747368 226.085384 440.551958 235.916054 434.622068 244.073956 
C 428.692179 252.231859 420.327337 258.304927 410.734155 261.417132 
z
" style="fill: #31a354; stroke: #ffffff; stroke-linejoin: miter"/>
   </g>
   <g id="patch_15">
    <path d="M 443.747368 216 
C 443.747368 203.860981 439.118136 192.167388 430.809174 183.317702 
C 422.500212 174.468016 411.121298 169.111693 399.006364 168.347372 
C 386.891431 167.583051 374.929567 171.466823 365.574274 179.202087 
C 356.218982 186.93735 350.156826 197.956432 348.631217 209.999202 
L 368.932124 212.570972 
C 369.8039 205.68939 373.26799 199.392772 378.613871 194.972621 
C 383.959752 190.552471 390.795104 188.333172 397.717923 188.769927 
C 404.640741 189.206682 411.142978 192.267437 415.890957 197.324401 
C 420.638935 202.381365 423.284211 209.063417 423.284211 216 
z
" style="fill: #6baed6; stroke: #ffffff; stroke-linejoin: miter"/>
   </g>
   <g id="patch_16">
    <path d="M 348.631217 209.999202 
C 347.875092 215.967863 348.253848 222.026012 349.747503 227.854017 
C 351.241158 233.682021 353.822972 239.17555 357.356727 244.044761 
L 373.91813 232.025578 
C 371.898841 229.243172 370.423519 226.104012 369.570002 222.773724 
C 368.716485 219.443435 368.500052 215.981636 368.932124 212.570972 
z
" style="fill: #9ecae1; stroke: #ffffff; stroke-linejoin: miter"/>
   </g>
   <g id="patch_17">
    <path d="M 357.356727 244.044761 
C 362.080911 250.554281 368.374194 255.765787 375.650246 259.193735 
C 382.926298 262.621682 390.951911 264.156201 398.979356 263.654324 
L 397.702489 243.231042 
C 393.115378 243.517829 388.529313 242.640961 384.371569 240.682134 
C 380.213825 238.723307 376.617663 235.745303 373.91813 232.025578 
z
" style="fill: #fd8d3c; stroke: #ffffff; stroke-linejoin: miter"/>
   </g>
   <g id="patch_18">
    <path d="M 398.979356 263.654324 
C 400.975671 263.529514 402.962173 263.279384 404.927115 262.905413 
C 406.892058 262.531442 408.83156 262.034369 410.734156 261.417131 
L 404.419518 241.952647 
C 403.33232 242.305354 402.224033 242.589396 401.101209 242.803093 
C 399.978384 243.016791 398.843241 243.159723 397.702489 243.231042 
z
" style="fill: #fdae6b; stroke: #ffffff; stroke-linejoin: miter"/>
   </g>
   <g id="patch_19">
    <path d="M 410.734156 261.417131 
C 418.384743 258.93514 425.285581 254.559794 430.793733 248.698736 
C 436.301886 242.837677 440.240811 235.67876 442.243526 227.888967 
L 422.424872 222.793695 
C 421.280463 227.245006 419.029649 231.335815 415.882133 234.684992 
C 412.734617 238.034168 408.791282 240.534366 404.419518 241.952647 
z
" style="fill: #74c476; stroke: #ffffff; stroke-linejoin: miter"/>
   </g>
   <g id="patch_20">
    <path d="M 442.243526 227.888967 
C 442.742323 225.948837 443.11853 223.979238 443.369916 221.991851 
C 443.621302 220.004463 443.747368 218.003224 443.747368 216.000001 
L 423.284211 216.000001 
C 423.28421 217.1447 423.212172 218.288265 423.068523 219.423915 
C 422.924874 220.559564 422.709899 221.685049 422.424872 222.793695 
z
" style="fill: #a1d99b; stroke: #ffffff; stroke-linejoin: miter"/>
   </g>
   <g id="matplotlib.axis_3"/>
   <g id="matplotlib.axis_4"/>
   <g id="text_9">
    <!-- Train -->
    <g transform="translate(347.792291 144.15009) scale(0.1 -0.1)">
     <use xlink:href="#DejaVuSans-54"/>
     <use xlink:href="#DejaVuSans-72" x="46.333984"/>
     <use xlink:href="#DejaVuSans-61" x="87.447266"/>
     <use xlink:href="#DejaVuSans-69" x="148.726562"/>
     <use xlink:href="#DejaVuSans-6e" x="176.509766"/>
    </g>
   </g>
   <g id="text_10">
    <!-- 60.0% -->
    <g transform="translate(362.214512 163.613382) scale(0.1 -0.1)">
     <use xlink:href="#DejaVuSans-36"/>
     <use xlink:href="#DejaVuSans-30" x="63.623047"/>
     <use xlink:href="#DejaVuSans-2e" x="127.246094"/>
     <use xlink:href="#DejaVuSans-30" x="159.033203"/>
     <use xlink:href="#DejaVuSans-25" x="222.65625"/>
    </g>
   </g>
   <g id="text_11">
    <!-- Validation -->
    <g transform="translate(322.342161 293.350334) scale(0.1 -0.1)">
     <use xlink:href="#DejaVuSans-56"/>
     <use xlink:href="#DejaVuSans-61" x="60.658203"/>
     <use xlink:href="#DejaVuSans-6c" x="121.9375"/>
     <use xlink:href="#DejaVuSans-69" x="149.720703"/>
     <use xlink:href="#DejaVuSans-64" x="177.503906"/>
     <use xlink:href="#DejaVuSans-61" x="240.980469"/>
     <use xlink:href="#DejaVuSans-74" x="302.259766"/>
     <use xlink:href="#DejaVuSans-69" x="341.46875"/>
     <use xlink:href="#DejaVuSans-6f" x="369.251953"/>
     <use xlink:href="#DejaVuSans-6e" x="430.433594"/>
    </g>
   </g>
   <g id="text_12">
    <!-- 20.0% -->
    <g transform="translate(362.172841 273.891823) scale(0.1 -0.1)">
     <use xlink:href="#DejaVuSans-32"/>
     <use xlink:href="#DejaVuSans-30" x="63.623047"/>
     <use xlink:href="#DejaVuSans-2e" x="127.246094"/>
     <use xlink:href="#DejaVuSans-30" x="159.033203"/>
     <use xlink:href="#DejaVuSans-25" x="222.65625"/>
    </g>
   </g>
   <g id="text_13">
    <!-- Test -->
    <g transform="translate(459.450541 264.880875) scale(0.1 -0.1)">
     <use xlink:href="#DejaVuSans-54"/>
     <use xlink:href="#DejaVuSans-65" x="44.083984"/>
     <use xlink:href="#DejaVuSans-73" x="105.607422"/>
     <use xlink:href="#DejaVuSans-74" x="157.707031"/>
    </g>
   </g>
   <g id="text_14">
    <!-- 20.0% -->
    <g transform="translate(427.014632 252.849179) scale(0.1 -0.1)">
     <use xlink:href="#DejaVuSans-32"/>
     <use xlink:href="#DejaVuSans-30" x="63.623047"/>
     <use xlink:href="#DejaVuSans-2e" x="127.246094"/>
     <use xlink:href="#DejaVuSans-30" x="159.033203"/>
     <use xlink:href="#DejaVuSans-25" x="222.65625"/>
    </g>
   </g>
   <g id="text_15">
    <g id="patch_21">
     <path d="M 327.789474 364.291289 
L 446.886974 364.291289 
Q 449.286974 364.291289 449.286974 361.891289 
L 449.286974 318.315789 
Q 449.286974 315.915789 446.886974 315.915789 
L 327.789474 315.915789 
Q 325.389474 315.915789 325.389474 318.315789 
L 325.389474 361.891289 
Q 325.389474 364.291289 327.789474 364.291289 
z
" style="fill: #f5deb3; opacity: 0.5; stroke: #000000; stroke-linejoin: miter"/>
    </g>
    <!--        Masked  Unmasked  Total -->
    <g transform="translate(327.789474 324.394539) scale(0.08 -0.08)">
     <use xlink:href="#DejaVuSans-20"/>
     <use xlink:href="#DejaVuSans-20" x="31.787109"/>
     <use xlink:href="#DejaVuSans-20" x="63.574219"/>
     <use xlink:href="#DejaVuSans-20" x="95.361328"/>
     <use xlink:href="#DejaVuSans-20" x="127.148438"/>
     <use xlink:href="#DejaVuSans-20" x="158.935547"/>
     <use xlink:href="#DejaVuSans-20" x="190.722656"/>
     <use xlink:href="#DejaVuSans-4d" x="222.509766"/>
     <use xlink:href="#DejaVuSans-61" x="308.789062"/>
     <use xlink:href="#DejaVuSans-73" x="370.068359"/>
     <use xlink:href="#DejaVuSans-6b" x="422.167969"/>
     <use xlink:href="#DejaVuSans-65" x="476.453125"/>
     <use xlink:href="#DejaVuSans-64" x="537.976562"/>
     <use xlink:href="#DejaVuSans-20" x="601.453125"/>
     <use xlink:href="#DejaVuSans-20" x="633.240234"/>
     <use xlink:href="#DejaVuSans-55" x="665.027344"/>
     <use xlink:href="#DejaVuSans-6e" x="738.220703"/>
     <use xlink:href="#DejaVuSans-6d" x="801.599609"/>
     <use xlink:href="#DejaVuSans-61" x="899.011719"/>
     <use xlink:href="#DejaVuSans-73" x="960.291016"/>
     <use xlink:href="#DejaVuSans-6b" x="1012.390625"/>
     <use xlink:href="#DejaVuSans-65" x="1066.675781"/>
     <use xlink:href="#DejaVuSans-64" x="1128.199219"/>
     <use xlink:href="#DejaVuSans-20" x="1191.675781"/>
     <use xlink:href="#DejaVuSans-20" x="1223.462891"/>
     <use xlink:href="#DejaVuSans-54" x="1255.25"/>
     <use xlink:href="#DejaVuSans-6f" x="1299.333984"/>
     <use xlink:href="#DejaVuSans-74" x="1360.515625"/>
     <use xlink:href="#DejaVuSans-61" x="1399.724609"/>
     <use xlink:href="#DejaVuSans-6c" x="1461.003906"/>
    </g>
    <!-- Train    7981      1995   9976 -->
    <g transform="translate(327.789474 333.352789) scale(0.08 -0.08)">
     <use xlink:href="#DejaVuSans-54"/>
     <use xlink:href="#DejaVuSans-72" x="46.333984"/>
     <use xlink:href="#DejaVuSans-61" x="87.447266"/>
     <use xlink:href="#DejaVuSans-69" x="148.726562"/>
     <use xlink:href="#DejaVuSans-6e" x="176.509766"/>
     <use xlink:href="#DejaVuSans-20" x="239.888672"/>
     <use xlink:href="#DejaVuSans-20" x="271.675781"/>
     <use xlink:href="#DejaVuSans-20" x="303.462891"/>
     <use xlink:href="#DejaVuSans-20" x="335.25"/>
     <use xlink:href="#DejaVuSans-37" x="367.037109"/>
     <use xlink:href="#DejaVuSans-39" x="430.660156"/>
     <use xlink:href="#DejaVuSans-38" x="494.283203"/>
     <use xlink:href="#DejaVuSans-31" x="557.90625"/>
     <use xlink:href="#DejaVuSans-20" x="621.529297"/>
     <use xlink:href="#DejaVuSans-20" x="653.316406"/>
     <use xlink:href="#DejaVuSans-20" x="685.103516"/>
     <use xlink:href="#DejaVuSans-20" x="716.890625"/>
     <use xlink:href="#DejaVuSans-20" x="748.677734"/>
     <use xlink:href="#DejaVuSans-20" x="780.464844"/>
     <use xlink:href="#DejaVuSans-31" x="812.251953"/>
     <use xlink:href="#DejaVuSans-39" x="875.875"/>
     <use xlink:href="#DejaVuSans-39" x="939.498047"/>
     <use xlink:href="#DejaVuSans-35" x="1003.121094"/>
     <use xlink:href="#DejaVuSans-20" x="1066.744141"/>
     <use xlink:href="#DejaVuSans-20" x="1098.53125"/>
     <use xlink:href="#DejaVuSans-20" x="1130.318359"/>
     <use xlink:href="#DejaVuSans-39" x="1162.105469"/>
     <use xlink:href="#DejaVuSans-39" x="1225.728516"/>
     <use xlink:href="#DejaVuSans-37" x="1289.351562"/>
     <use xlink:href="#DejaVuSans-36" x="1352.974609"/>
    </g>
    <!-- Val      2661       665   3326 -->
    <g transform="translate(327.789474 342.311039) scale(0.08 -0.08)">
     <use xlink:href="#DejaVuSans-56"/>
     <use xlink:href="#DejaVuSans-61" x="60.658203"/>
     <use xlink:href="#DejaVuSans-6c" x="121.9375"/>
     <use xlink:href="#DejaVuSans-20" x="149.720703"/>
     <use xlink:href="#DejaVuSans-20" x="181.507812"/>
     <use xlink:href="#DejaVuSans-20" x="213.294922"/>
     <use xlink:href="#DejaVuSans-20" x="245.082031"/>
     <use xlink:href="#DejaVuSans-20" x="276.869141"/>
     <use xlink:href="#DejaVuSans-20" x="308.65625"/>
     <use xlink:href="#DejaVuSans-32" x="340.443359"/>
     <use xlink:href="#DejaVuSans-36" x="404.066406"/>
     <use xlink:href="#DejaVuSans-36" x="467.689453"/>
     <use xlink:href="#DejaVuSans-31" x="531.3125"/>
     <use xlink:href="#DejaVuSans-20" x="594.935547"/>
     <use xlink:href="#DejaVuSans-20" x="626.722656"/>
     <use xlink:href="#DejaVuSans-20" x="658.509766"/>
     <use xlink:href="#DejaVuSans-20" x="690.296875"/>
     <use xlink:href="#DejaVuSans-20" x="722.083984"/>
     <use xlink:href="#DejaVuSans-20" x="753.871094"/>
     <use xlink:href="#DejaVuSans-20" x="785.658203"/>
     <use xlink:href="#DejaVuSans-36" x="817.445312"/>
     <use xlink:href="#DejaVuSans-36" x="881.068359"/>
     <use xlink:href="#DejaVuSans-35" x="944.691406"/>
     <use xlink:href="#DejaVuSans-20" x="1008.314453"/>
     <use xlink:href="#DejaVuSans-20" x="1040.101562"/>
     <use xlink:href="#DejaVuSans-20" x="1071.888672"/>
     <use xlink:href="#DejaVuSans-33" x="1103.675781"/>
     <use xlink:href="#DejaVuSans-33" x="1167.298828"/>
     <use xlink:href="#DejaVuSans-32" x="1230.921875"/>
     <use xlink:href="#DejaVuSans-36" x="1294.544922"/>
    </g>
    <!-- Test     2661       666   3327 -->
    <g transform="translate(327.789474 351.269289) scale(0.08 -0.08)">
     <use xlink:href="#DejaVuSans-54"/>
     <use xlink:href="#DejaVuSans-65" x="44.083984"/>
     <use xlink:href="#DejaVuSans-73" x="105.607422"/>
     <use xlink:href="#DejaVuSans-74" x="157.707031"/>
     <use xlink:href="#DejaVuSans-20" x="196.916016"/>
     <use xlink:href="#DejaVuSans-20" x="228.703125"/>
     <use xlink:href="#DejaVuSans-20" x="260.490234"/>
     <use xlink:href="#DejaVuSans-20" x="292.277344"/>
     <use xlink:href="#DejaVuSans-20" x="324.064453"/>
     <use xlink:href="#DejaVuSans-32" x="355.851562"/>
     <use xlink:href="#DejaVuSans-36" x="419.474609"/>
     <use xlink:href="#DejaVuSans-36" x="483.097656"/>
     <use xlink:href="#DejaVuSans-31" x="546.720703"/>
     <use xlink:href="#DejaVuSans-20" x="610.34375"/>
     <use xlink:href="#DejaVuSans-20" x="642.130859"/>
     <use xlink:href="#DejaVuSans-20" x="673.917969"/>
     <use xlink:href="#DejaVuSans-20" x="705.705078"/>
     <use xlink:href="#DejaVuSans-20" x="737.492188"/>
     <use xlink:href="#DejaVuSans-20" x="769.279297"/>
     <use xlink:href="#DejaVuSans-20" x="801.066406"/>
     <use xlink:href="#DejaVuSans-36" x="832.853516"/>
     <use xlink:href="#DejaVuSans-36" x="896.476562"/>
     <use xlink:href="#DejaVuSans-36" x="960.099609"/>
     <use xlink:href="#DejaVuSans-20" x="1023.722656"/>
     <use xlink:href="#DejaVuSans-20" x="1055.509766"/>
     <use xlink:href="#DejaVuSans-20" x="1087.296875"/>
     <use xlink:href="#DejaVuSans-33" x="1119.083984"/>
     <use xlink:href="#DejaVuSans-33" x="1182.707031"/>
     <use xlink:href="#DejaVuSans-32" x="1246.330078"/>
     <use xlink:href="#DejaVuSans-37" x="1309.953125"/>
    </g>
    <!-- Total   13303      3326  16629 -->
    <g transform="translate(327.789474 360.227539) scale(0.08 -0.08)">
     <use xlink:href="#DejaVuSans-54"/>
     <use xlink:href="#DejaVuSans-6f" x="44.083984"/>
     <use xlink:href="#DejaVuSans-74" x="105.265625"/>
     <use xlink:href="#DejaVuSans-61" x="144.474609"/>
     <use xlink:href="#DejaVuSans-6c" x="205.753906"/>
     <use xlink:href="#DejaVuSans-20" x="233.537109"/>
     <use xlink:href="#DejaVuSans-20" x="265.324219"/>
     <use xlink:href="#DejaVuSans-20" x="297.111328"/>
     <use xlink:href="#DejaVuSans-31" x="328.898438"/>
     <use xlink:href="#DejaVuSans-33" x="392.521484"/>
     <use xlink:href="#DejaVuSans-33" x="456.144531"/>
     <use xlink:href="#DejaVuSans-30" x="519.767578"/>
     <use xlink:href="#DejaVuSans-33" x="583.390625"/>
     <use xlink:href="#DejaVuSans-20" x="647.013672"/>
     <use xlink:href="#DejaVuSans-20" x="678.800781"/>
     <use xlink:href="#DejaVuSans-20" x="710.587891"/>
     <use xlink:href="#DejaVuSans-20" x="742.375"/>
     <use xlink:href="#DejaVuSans-20" x="774.162109"/>
     <use xlink:href="#DejaVuSans-20" x="805.949219"/>
     <use xlink:href="#DejaVuSans-33" x="837.736328"/>
     <use xlink:href="#DejaVuSans-33" x="901.359375"/>
     <use xlink:href="#DejaVuSans-32" x="964.982422"/>
     <use xlink:href="#DejaVuSans-36" x="1028.605469"/>
     <use xlink:href="#DejaVuSans-20" x="1092.228516"/>
     <use xlink:href="#DejaVuSans-20" x="1124.015625"/>
     <use xlink:href="#DejaVuSans-31" x="1155.802734"/>
     <use xlink:href="#DejaVuSans-36" x="1219.425781"/>
     <use xlink:href="#DejaVuSans-36" x="1283.048828"/>
     <use xlink:href="#DejaVuSans-32" x="1346.671875"/>
     <use xlink:href="#DejaVuSans-39" x="1410.294922"/>
    </g>
   </g>
   <g id="text_16">
    <!-- Masked: 80 % -->
    <g transform="translate(361.076563 113.53903) scale(0.1 -0.1)">
     <use xlink:href="#DejaVuSans-4d"/>
     <use xlink:href="#DejaVuSans-61" x="86.279297"/>
     <use xlink:href="#DejaVuSans-73" x="147.558594"/>
     <use xlink:href="#DejaVuSans-6b" x="199.658203"/>
     <use xlink:href="#DejaVuSans-65" x="253.943359"/>
     <use xlink:href="#DejaVuSans-64" x="315.466797"/>
     <use xlink:href="#DejaVuSans-3a" x="378.943359"/>
     <use xlink:href="#DejaVuSans-20" x="412.634766"/>
     <use xlink:href="#DejaVuSans-38" x="444.421875"/>
     <use xlink:href="#DejaVuSans-30" x="508.044922"/>
     <use xlink:href="#DejaVuSans-20" x="571.667969"/>
     <use xlink:href="#DejaVuSans-25" x="603.455078"/>
    </g>
    <!-- Unmasked: 20 % -->
    <g transform="translate(353.692187 124.736842) scale(0.1 -0.1)">
     <use xlink:href="#DejaVuSans-55"/>
     <use xlink:href="#DejaVuSans-6e" x="73.193359"/>
     <use xlink:href="#DejaVuSans-6d" x="136.572266"/>
     <use xlink:href="#DejaVuSans-61" x="233.984375"/>
     <use xlink:href="#DejaVuSans-73" x="295.263672"/>
     <use xlink:href="#DejaVuSans-6b" x="347.363281"/>
     <use xlink:href="#DejaVuSans-65" x="401.648438"/>
     <use xlink:href="#DejaVuSans-64" x="463.171875"/>
     <use xlink:href="#DejaVuSans-3a" x="526.648438"/>
     <use xlink:href="#DejaVuSans-20" x="560.339844"/>
     <use xlink:href="#DejaVuSans-32" x="592.126953"/>
     <use xlink:href="#DejaVuSans-30" x="655.75"/>
     <use xlink:href="#DejaVuSans-20" x="719.373047"/>
     <use xlink:href="#DejaVuSans-25" x="751.160156"/>
    </g>
   </g>
  </g>
  <g id="axes_3">
   <g id="patch_22">
    <path d="M 702.947368 216 
C 702.947368 205.238099 700.400434 194.62742 695.515425 185.038093 
C 690.630417 175.448765 683.54462 167.150279 674.839105 160.823153 
C 666.13359 154.496028 656.053011 150.318074 645.424024 148.631906 
C 634.795038 146.945739 623.916354 147.798743 613.680079 151.120969 
C 603.443804 154.443195 594.137611 160.141278 586.524653 167.747946 
C 578.911696 175.354613 573.205923 184.656094 569.875238 194.889619 
C 566.544552 205.123145 565.682556 216.00112 567.359938 226.631496 
C 569.03732 237.261873 573.20694 247.345902 579.526868 256.056644 
L 596.089861 244.039651 
C 591.665911 237.942132 588.747177 230.883311 587.573009 223.442047 
C 586.398842 216.000784 587.002239 208.386201 589.333719 201.222733 
C 591.665199 194.059266 595.65924 187.548229 600.98831 182.223562 
C 606.31738 176.898895 612.831716 172.910237 619.997108 170.584678 
C 627.1625 168.25912 634.777579 167.662017 642.21787 168.842334 
C 649.65816 170.022652 656.714566 172.947219 662.808426 177.376207 
C 668.902287 181.805195 673.862345 187.614135 677.28185 194.326665 
C 680.701356 201.039194 682.484211 208.466669 682.484211 216 
z
" style="fill: #3182bd; stroke: #ffffff; stroke-linejoin: miter"/>
   </g>
   <g id="patch_23">
    <path d="M 579.526868 256.056644 
C 587.986947 267.71715 599.927503 276.403031 613.626461 280.861604 
C 627.32542 285.320178 642.090966 285.32628 655.793605 280.879031 
L 649.476576 261.415322 
C 639.884729 264.528396 629.548847 264.524125 619.959576 261.403123 
C 610.370305 258.282122 602.011916 252.202005 596.089861 244.039651 
z
" style="fill: #e6550d; stroke: #ffffff; stroke-linejoin: miter"/>
   </g>
   <g id="patch_24">
    <path d="M 655.793605 280.879031 
C 669.496244 276.431782 681.443975 267.755773 689.913689 256.102263 
C 698.383403 244.448754 702.947368 230.40626 702.947368 216 
L 682.484211 216 
C 682.484211 226.084382 679.289434 235.914127 673.360635 244.071584 
C 667.431835 252.229041 659.068423 258.302247 649.476576 261.415322 
z
" style="fill: #31a354; stroke: #ffffff; stroke-linejoin: miter"/>
   </g>
   <g id="patch_25">
    <path d="M 682.484211 216 
C 682.484211 205.407036 678.959067 195.109406 672.467326 186.738732 
C 665.975584 178.368058 656.879228 172.391092 646.61954 169.754863 
C 636.359853 167.118634 625.508919 167.970139 615.78603 172.17446 
C 606.063141 176.378782 598.010449 183.701484 592.903874 192.982312 
L 610.832289 202.847036 
C 613.750332 197.543705 618.35187 193.359304 623.907807 190.956835 
C 629.463743 188.554365 635.664277 188.067791 641.526955 189.574208 
C 647.389634 191.080624 652.587552 194.496033 656.297118 199.279275 
C 660.006685 204.062518 662.021053 209.946878 662.021053 216 
z
" style="fill: #6baed6; stroke: #ffffff; stroke-linejoin: miter"/>
   </g>
   <g id="patch_26">
    <path d="M 592.903874 192.982312 
C 588.537611 200.917675 586.518084 209.933968 587.082162 218.97366 
C 587.64624 228.013353 590.770974 236.708643 596.089861 244.039651 
L 612.652853 232.022657 
C 609.613489 227.83351 607.827927 222.864773 607.505596 217.699235 
C 607.183266 212.533696 608.337282 207.381529 610.832289 202.847036 
z
" style="fill: #9ecae1; stroke: #ffffff; stroke-linejoin: miter"/>
   </g>
   <g id="patch_27">
    <path d="M 596.089861 244.039651 
C 600.217652 249.728976 605.551282 254.437239 611.708784 257.827261 
C 617.866286 261.217282 624.697078 263.206159 631.711976 263.651457 
L 633.008347 243.229404 
C 628.999834 242.974948 625.096524 241.838447 621.577952 239.901292 
C 618.059379 237.964136 615.011591 235.2737 612.652853 232.022657 
z
" style="fill: #fd8d3c; stroke: #ffffff; stroke-linejoin: miter"/>
   </g>
   <g id="patch_28">
    <path d="M 631.711976 263.651457 
C 634.710062 263.841773 637.719429 263.748718 640.700029 263.373533 
C 643.680628 262.998347 646.619179 262.342702 649.476574 261.415322 
L 643.159546 241.951613 
C 641.526749 242.481544 639.847577 242.856198 638.144377 243.07059 
C 636.441178 243.284982 634.721539 243.338156 633.008347 243.229404 
z
" style="fill: #fdae6b; stroke: #ffffff; stroke-linejoin: miter"/>
   </g>
   <g id="patch_29">
    <path d="M 649.476574 261.415322 
C 656.162285 259.245447 662.287095 255.625772 667.41238 250.81552 
C 672.537665 246.005267 676.538085 240.122071 679.127152 233.587256 
L 660.102734 226.04986 
C 658.623267 229.784041 656.337313 233.145867 653.408578 235.894583 
C 650.479844 238.643299 646.979952 240.711684 643.159546 241.951613 
z
" style="fill: #74c476; stroke: #ffffff; stroke-linejoin: miter"/>
   </g>
   <g id="patch_30">
    <path d="M 679.127152 233.587256 
C 680.233689 230.794352 681.074179 227.90324 681.637437 224.952396 
C 682.200695 222.001552 682.48421 219.004125 682.484211 216.000004 
L 662.021053 216.000003 
C 662.021052 217.716643 661.859044 219.429458 661.537182 221.115655 
C 661.21532 222.801851 660.73504 224.453915 660.102734 226.04986 
z
" style="fill: #a1d99b; stroke: #ffffff; stroke-linejoin: miter"/>
   </g>
   <g id="matplotlib.axis_5"/>
   <g id="matplotlib.axis_6"/>
   <g id="text_17">
    <!-- Train -->
    <g transform="translate(586.534065 144.14849) scale(0.1 -0.1)">
     <use xlink:href="#DejaVuSans-54"/>
     <use xlink:href="#DejaVuSans-72" x="46.333984"/>
     <use xlink:href="#DejaVuSans-61" x="87.447266"/>
     <use xlink:href="#DejaVuSans-69" x="148.726562"/>
     <use xlink:href="#DejaVuSans-6e" x="176.509766"/>
    </g>
   </g>
   <g id="text_18">
    <!-- 60.0% -->
    <g transform="translate(600.955 163.612199) scale(0.1 -0.1)">
     <use xlink:href="#DejaVuSans-36"/>
     <use xlink:href="#DejaVuSans-30" x="63.623047"/>
     <use xlink:href="#DejaVuSans-2e" x="127.246094"/>
     <use xlink:href="#DejaVuSans-30" x="159.033203"/>
     <use xlink:href="#DejaVuSans-25" x="222.65625"/>
    </g>
   </g>
   <g id="text_19">
    <!-- Validation -->
    <g transform="translate(561.078654 293.35022) scale(0.1 -0.1)">
     <use xlink:href="#DejaVuSans-56"/>
     <use xlink:href="#DejaVuSans-61" x="60.658203"/>
     <use xlink:href="#DejaVuSans-6c" x="121.9375"/>
     <use xlink:href="#DejaVuSans-69" x="149.720703"/>
     <use xlink:href="#DejaVuSans-64" x="177.503906"/>
     <use xlink:href="#DejaVuSans-61" x="240.980469"/>
     <use xlink:href="#DejaVuSans-74" x="302.259766"/>
     <use xlink:href="#DejaVuSans-69" x="341.46875"/>
     <use xlink:href="#DejaVuSans-6f" x="369.251953"/>
     <use xlink:href="#DejaVuSans-6e" x="430.433594"/>
    </g>
   </g>
   <g id="text_20">
    <!-- 20.0% -->
    <g transform="translate(600.909425 273.891739) scale(0.1 -0.1)">
     <use xlink:href="#DejaVuSans-32"/>
     <use xlink:href="#DejaVuSans-30" x="63.623047"/>
     <use xlink:href="#DejaVuSans-2e" x="127.246094"/>
     <use xlink:href="#DejaVuSans-30" x="159.033203"/>
     <use xlink:href="#DejaVuSans-25" x="222.65625"/>
    </g>
   </g>
   <g id="text_21">
    <!-- Test -->
    <g transform="translate(698.190216 264.876978) scale(0.1 -0.1)">
     <use xlink:href="#DejaVuSans-54"/>
     <use xlink:href="#DejaVuSans-65" x="44.083984"/>
     <use xlink:href="#DejaVuSans-73" x="105.607422"/>
     <use xlink:href="#DejaVuSans-74" x="157.707031"/>
    </g>
   </g>
   <g id="text_22">
    <!-- 20.0% -->
    <g transform="translate(665.753568 252.846299) scale(0.1 -0.1)">
     <use xlink:href="#DejaVuSans-32"/>
     <use xlink:href="#DejaVuSans-30" x="63.623047"/>
     <use xlink:href="#DejaVuSans-2e" x="127.246094"/>
     <use xlink:href="#DejaVuSans-30" x="159.033203"/>
     <use xlink:href="#DejaVuSans-25" x="222.65625"/>
    </g>
   </g>
   <g id="text_23">
    <g id="patch_31">
     <path d="M 566.526316 364.291289 
L 685.623816 364.291289 
Q 688.023816 364.291289 688.023816 361.891289 
L 688.023816 318.315789 
Q 688.023816 315.915789 685.623816 315.915789 
L 566.526316 315.915789 
Q 564.126316 315.915789 564.126316 318.315789 
L 564.126316 361.891289 
Q 564.126316 364.291289 566.526316 364.291289 
z
" style="fill: #f5deb3; opacity: 0.5; stroke: #000000; stroke-linejoin: miter"/>
    </g>
    <!--        Masked  Unmasked  Total -->
    <g transform="translate(566.526316 324.394539) scale(0.08 -0.08)">
     <use xlink:href="#DejaVuSans-20"/>
     <use xlink:href="#DejaVuSans-20" x="31.787109"/>
     <use xlink:href="#DejaVuSans-20" x="63.574219"/>
     <use xlink:href="#DejaVuSans-20" x="95.361328"/>
     <use xlink:href="#DejaVuSans-20" x="127.148438"/>
     <use xlink:href="#DejaVuSans-20" x="158.935547"/>
     <use xlink:href="#DejaVuSans-20" x="190.722656"/>
     <use xlink:href="#DejaVuSans-4d" x="222.509766"/>
     <use xlink:href="#DejaVuSans-61" x="308.789062"/>
     <use xlink:href="#DejaVuSans-73" x="370.068359"/>
     <use xlink:href="#DejaVuSans-6b" x="422.167969"/>
     <use xlink:href="#DejaVuSans-65" x="476.453125"/>
     <use xlink:href="#DejaVuSans-64" x="537.976562"/>
     <use xlink:href="#DejaVuSans-20" x="601.453125"/>
     <use xlink:href="#DejaVuSans-20" x="633.240234"/>
     <use xlink:href="#DejaVuSans-55" x="665.027344"/>
     <use xlink:href="#DejaVuSans-6e" x="738.220703"/>
     <use xlink:href="#DejaVuSans-6d" x="801.599609"/>
     <use xlink:href="#DejaVuSans-61" x="899.011719"/>
     <use xlink:href="#DejaVuSans-73" x="960.291016"/>
     <use xlink:href="#DejaVuSans-6b" x="1012.390625"/>
     <use xlink:href="#DejaVuSans-65" x="1066.675781"/>
     <use xlink:href="#DejaVuSans-64" x="1128.199219"/>
     <use xlink:href="#DejaVuSans-20" x="1191.675781"/>
     <use xlink:href="#DejaVuSans-20" x="1223.462891"/>
     <use xlink:href="#DejaVuSans-54" x="1255.25"/>
     <use xlink:href="#DejaVuSans-6f" x="1299.333984"/>
     <use xlink:href="#DejaVuSans-74" x="1360.515625"/>
     <use xlink:href="#DejaVuSans-61" x="1399.724609"/>
     <use xlink:href="#DejaVuSans-6c" x="1461.003906"/>
    </g>
    <!-- Train    7981      3420  11401 -->
    <g transform="translate(566.526316 333.352789) scale(0.08 -0.08)">
     <use xlink:href="#DejaVuSans-54"/>
     <use xlink:href="#DejaVuSans-72" x="46.333984"/>
     <use xlink:href="#DejaVuSans-61" x="87.447266"/>
     <use xlink:href="#DejaVuSans-69" x="148.726562"/>
     <use xlink:href="#DejaVuSans-6e" x="176.509766"/>
     <use xlink:href="#DejaVuSans-20" x="239.888672"/>
     <use xlink:href="#DejaVuSans-20" x="271.675781"/>
     <use xlink:href="#DejaVuSans-20" x="303.462891"/>
     <use xlink:href="#DejaVuSans-20" x="335.25"/>
     <use xlink:href="#DejaVuSans-37" x="367.037109"/>
     <use xlink:href="#DejaVuSans-39" x="430.660156"/>
     <use xlink:href="#DejaVuSans-38" x="494.283203"/>
     <use xlink:href="#DejaVuSans-31" x="557.90625"/>
     <use xlink:href="#DejaVuSans-20" x="621.529297"/>
     <use xlink:href="#DejaVuSans-20" x="653.316406"/>
     <use xlink:href="#DejaVuSans-20" x="685.103516"/>
     <use xlink:href="#DejaVuSans-20" x="716.890625"/>
     <use xlink:href="#DejaVuSans-20" x="748.677734"/>
     <use xlink:href="#DejaVuSans-20" x="780.464844"/>
     <use xlink:href="#DejaVuSans-33" x="812.251953"/>
     <use xlink:href="#DejaVuSans-34" x="875.875"/>
     <use xlink:href="#DejaVuSans-32" x="939.498047"/>
     <use xlink:href="#DejaVuSans-30" x="1003.121094"/>
     <use xlink:href="#DejaVuSans-20" x="1066.744141"/>
     <use xlink:href="#DejaVuSans-20" x="1098.53125"/>
     <use xlink:href="#DejaVuSans-31" x="1130.318359"/>
     <use xlink:href="#DejaVuSans-31" x="1193.941406"/>
     <use xlink:href="#DejaVuSans-34" x="1257.564453"/>
     <use xlink:href="#DejaVuSans-30" x="1321.1875"/>
     <use xlink:href="#DejaVuSans-31" x="1384.810547"/>
    </g>
    <!-- Val      2661      1141   3802 -->
    <g transform="translate(566.526316 342.311039) scale(0.08 -0.08)">
     <use xlink:href="#DejaVuSans-56"/>
     <use xlink:href="#DejaVuSans-61" x="60.658203"/>
     <use xlink:href="#DejaVuSans-6c" x="121.9375"/>
     <use xlink:href="#DejaVuSans-20" x="149.720703"/>
     <use xlink:href="#DejaVuSans-20" x="181.507812"/>
     <use xlink:href="#DejaVuSans-20" x="213.294922"/>
     <use xlink:href="#DejaVuSans-20" x="245.082031"/>
     <use xlink:href="#DejaVuSans-20" x="276.869141"/>
     <use xlink:href="#DejaVuSans-20" x="308.65625"/>
     <use xlink:href="#DejaVuSans-32" x="340.443359"/>
     <use xlink:href="#DejaVuSans-36" x="404.066406"/>
     <use xlink:href="#DejaVuSans-36" x="467.689453"/>
     <use xlink:href="#DejaVuSans-31" x="531.3125"/>
     <use xlink:href="#DejaVuSans-20" x="594.935547"/>
     <use xlink:href="#DejaVuSans-20" x="626.722656"/>
     <use xlink:href="#DejaVuSans-20" x="658.509766"/>
     <use xlink:href="#DejaVuSans-20" x="690.296875"/>
     <use xlink:href="#DejaVuSans-20" x="722.083984"/>
     <use xlink:href="#DejaVuSans-20" x="753.871094"/>
     <use xlink:href="#DejaVuSans-31" x="785.658203"/>
     <use xlink:href="#DejaVuSans-31" x="849.28125"/>
     <use xlink:href="#DejaVuSans-34" x="912.904297"/>
     <use xlink:href="#DejaVuSans-31" x="976.527344"/>
     <use xlink:href="#DejaVuSans-20" x="1040.150391"/>
     <use xlink:href="#DejaVuSans-20" x="1071.9375"/>
     <use xlink:href="#DejaVuSans-20" x="1103.724609"/>
     <use xlink:href="#DejaVuSans-33" x="1135.511719"/>
     <use xlink:href="#DejaVuSans-38" x="1199.134766"/>
     <use xlink:href="#DejaVuSans-30" x="1262.757812"/>
     <use xlink:href="#DejaVuSans-32" x="1326.380859"/>
    </g>
    <!-- Test     2661      1141   3802 -->
    <g transform="translate(566.526316 351.269289) scale(0.08 -0.08)">
     <use xlink:href="#DejaVuSans-54"/>
     <use xlink:href="#DejaVuSans-65" x="44.083984"/>
     <use xlink:href="#DejaVuSans-73" x="105.607422"/>
     <use xlink:href="#DejaVuSans-74" x="157.707031"/>
     <use xlink:href="#DejaVuSans-20" x="196.916016"/>
     <use xlink:href="#DejaVuSans-20" x="228.703125"/>
     <use xlink:href="#DejaVuSans-20" x="260.490234"/>
     <use xlink:href="#DejaVuSans-20" x="292.277344"/>
     <use xlink:href="#DejaVuSans-20" x="324.064453"/>
     <use xlink:href="#DejaVuSans-32" x="355.851562"/>
     <use xlink:href="#DejaVuSans-36" x="419.474609"/>
     <use xlink:href="#DejaVuSans-36" x="483.097656"/>
     <use xlink:href="#DejaVuSans-31" x="546.720703"/>
     <use xlink:href="#DejaVuSans-20" x="610.34375"/>
     <use xlink:href="#DejaVuSans-20" x="642.130859"/>
     <use xlink:href="#DejaVuSans-20" x="673.917969"/>
     <use xlink:href="#DejaVuSans-20" x="705.705078"/>
     <use xlink:href="#DejaVuSans-20" x="737.492188"/>
     <use xlink:href="#DejaVuSans-20" x="769.279297"/>
     <use xlink:href="#DejaVuSans-31" x="801.066406"/>
     <use xlink:href="#DejaVuSans-31" x="864.689453"/>
     <use xlink:href="#DejaVuSans-34" x="928.3125"/>
     <use xlink:href="#DejaVuSans-31" x="991.935547"/>
     <use xlink:href="#DejaVuSans-20" x="1055.558594"/>
     <use xlink:href="#DejaVuSans-20" x="1087.345703"/>
     <use xlink:href="#DejaVuSans-20" x="1119.132812"/>
     <use xlink:href="#DejaVuSans-33" x="1150.919922"/>
     <use xlink:href="#DejaVuSans-38" x="1214.542969"/>
     <use xlink:href="#DejaVuSans-30" x="1278.166016"/>
     <use xlink:href="#DejaVuSans-32" x="1341.789062"/>
    </g>
    <!-- Total   13303      5702  19005 -->
    <g transform="translate(566.526316 360.227539) scale(0.08 -0.08)">
     <use xlink:href="#DejaVuSans-54"/>
     <use xlink:href="#DejaVuSans-6f" x="44.083984"/>
     <use xlink:href="#DejaVuSans-74" x="105.265625"/>
     <use xlink:href="#DejaVuSans-61" x="144.474609"/>
     <use xlink:href="#DejaVuSans-6c" x="205.753906"/>
     <use xlink:href="#DejaVuSans-20" x="233.537109"/>
     <use xlink:href="#DejaVuSans-20" x="265.324219"/>
     <use xlink:href="#DejaVuSans-20" x="297.111328"/>
     <use xlink:href="#DejaVuSans-31" x="328.898438"/>
     <use xlink:href="#DejaVuSans-33" x="392.521484"/>
     <use xlink:href="#DejaVuSans-33" x="456.144531"/>
     <use xlink:href="#DejaVuSans-30" x="519.767578"/>
     <use xlink:href="#DejaVuSans-33" x="583.390625"/>
     <use xlink:href="#DejaVuSans-20" x="647.013672"/>
     <use xlink:href="#DejaVuSans-20" x="678.800781"/>
     <use xlink:href="#DejaVuSans-20" x="710.587891"/>
     <use xlink:href="#DejaVuSans-20" x="742.375"/>
     <use xlink:href="#DejaVuSans-20" x="774.162109"/>
     <use xlink:href="#DejaVuSans-20" x="805.949219"/>
     <use xlink:href="#DejaVuSans-35" x="837.736328"/>
     <use xlink:href="#DejaVuSans-37" x="901.359375"/>
     <use xlink:href="#DejaVuSans-30" x="964.982422"/>
     <use xlink:href="#DejaVuSans-32" x="1028.605469"/>
     <use xlink:href="#DejaVuSans-20" x="1092.228516"/>
     <use xlink:href="#DejaVuSans-20" x="1124.015625"/>
     <use xlink:href="#DejaVuSans-31" x="1155.802734"/>
     <use xlink:href="#DejaVuSans-39" x="1219.425781"/>
     <use xlink:href="#DejaVuSans-30" x="1283.048828"/>
     <use xlink:href="#DejaVuSans-30" x="1346.671875"/>
     <use xlink:href="#DejaVuSans-35" x="1410.294922"/>
    </g>
   </g>
   <g id="text_24">
    <!-- Masked: 70 % -->
    <g transform="translate(599.813405 113.53903) scale(0.1 -0.1)">
     <use xlink:href="#DejaVuSans-4d"/>
     <use xlink:href="#DejaVuSans-61" x="86.279297"/>
     <use xlink:href="#DejaVuSans-73" x="147.558594"/>
     <use xlink:href="#DejaVuSans-6b" x="199.658203"/>
     <use xlink:href="#DejaVuSans-65" x="253.943359"/>
     <use xlink:href="#DejaVuSans-64" x="315.466797"/>
     <use xlink:href="#DejaVuSans-3a" x="378.943359"/>
     <use xlink:href="#DejaVuSans-20" x="412.634766"/>
     <use xlink:href="#DejaVuSans-37" x="444.421875"/>
     <use xlink:href="#DejaVuSans-30" x="508.044922"/>
     <use xlink:href="#DejaVuSans-20" x="571.667969"/>
     <use xlink:href="#DejaVuSans-25" x="603.455078"/>
    </g>
    <!-- Unmasked: 30 % -->
    <g transform="translate(592.42903 124.736842) scale(0.1 -0.1)">
     <use xlink:href="#DejaVuSans-55"/>
     <use xlink:href="#DejaVuSans-6e" x="73.193359"/>
     <use xlink:href="#DejaVuSans-6d" x="136.572266"/>
     <use xlink:href="#DejaVuSans-61" x="233.984375"/>
     <use xlink:href="#DejaVuSans-73" x="295.263672"/>
     <use xlink:href="#DejaVuSans-6b" x="347.363281"/>
     <use xlink:href="#DejaVuSans-65" x="401.648438"/>
     <use xlink:href="#DejaVuSans-64" x="463.171875"/>
     <use xlink:href="#DejaVuSans-3a" x="526.648438"/>
     <use xlink:href="#DejaVuSans-20" x="560.339844"/>
     <use xlink:href="#DejaVuSans-33" x="592.126953"/>
     <use xlink:href="#DejaVuSans-30" x="655.75"/>
     <use xlink:href="#DejaVuSans-20" x="719.373047"/>
     <use xlink:href="#DejaVuSans-25" x="751.160156"/>
    </g>
   </g>
   <g id="legend_1">
    <g id="patch_32">
     <path d="M 756.105263 301.263158 
L 840.769326 301.263158 
Q 842.769326 301.263158 842.769326 299.263158 
L 842.769326 168.160033 
Q 842.769326 166.160033 840.769326 166.160033 
L 756.105263 166.160033 
Q 754.105263 166.160033 754.105263 168.160033 
L 754.105263 299.263158 
Q 754.105263 301.263158 756.105263 301.263158 
z
" style="fill: #ffffff; opacity: 0.8; stroke: #cccccc; stroke-linejoin: miter"/>
    </g>
    <g id="patch_33">
     <path d="M 758.105263 177.75847 
L 778.105263 177.75847 
L 778.105263 170.75847 
L 758.105263 170.75847 
z
" style="fill: #3182bd; stroke: #ffffff; stroke-linejoin: miter"/>
    </g>
    <g id="text_25">
     <!-- Train -->
     <g transform="translate(786.105263 177.75847) scale(0.1 -0.1)">
      <use xlink:href="#DejaVuSans-54"/>
      <use xlink:href="#DejaVuSans-72" x="46.333984"/>
      <use xlink:href="#DejaVuSans-61" x="87.447266"/>
      <use xlink:href="#DejaVuSans-69" x="148.726562"/>
      <use xlink:href="#DejaVuSans-6e" x="176.509766"/>
     </g>
    </g>
    <g id="patch_34">
     <path d="M 758.105263 192.436595 
L 778.105263 192.436595 
L 778.105263 185.436595 
L 758.105263 185.436595 
z
" style="fill: #e6550d; stroke: #ffffff; stroke-linejoin: miter"/>
    </g>
    <g id="text_26">
     <!-- Validation -->
     <g transform="translate(786.105263 192.436595) scale(0.1 -0.1)">
      <use xlink:href="#DejaVuSans-56"/>
      <use xlink:href="#DejaVuSans-61" x="60.658203"/>
      <use xlink:href="#DejaVuSans-6c" x="121.9375"/>
      <use xlink:href="#DejaVuSans-69" x="149.720703"/>
      <use xlink:href="#DejaVuSans-64" x="177.503906"/>
      <use xlink:href="#DejaVuSans-61" x="240.980469"/>
      <use xlink:href="#DejaVuSans-74" x="302.259766"/>
      <use xlink:href="#DejaVuSans-69" x="341.46875"/>
      <use xlink:href="#DejaVuSans-6f" x="369.251953"/>
      <use xlink:href="#DejaVuSans-6e" x="430.433594"/>
     </g>
    </g>
    <g id="patch_35">
     <path d="M 758.105263 207.11472 
L 778.105263 207.11472 
L 778.105263 200.11472 
L 758.105263 200.11472 
z
" style="fill: #31a354; stroke: #ffffff; stroke-linejoin: miter"/>
    </g>
    <g id="text_27">
     <!-- Test -->
     <g transform="translate(786.105263 207.11472) scale(0.1 -0.1)">
      <use xlink:href="#DejaVuSans-54"/>
      <use xlink:href="#DejaVuSans-65" x="44.083984"/>
      <use xlink:href="#DejaVuSans-73" x="105.607422"/>
      <use xlink:href="#DejaVuSans-74" x="157.707031"/>
     </g>
    </g>
    <g id="patch_36">
     <path d="M 758.105263 221.792845 
L 778.105263 221.792845 
L 778.105263 214.792845 
L 758.105263 214.792845 
z
" style="fill: #6baed6; stroke: #ffffff; stroke-linejoin: miter"/>
    </g>
    <g id="text_28">
     <!-- Masked -->
     <g transform="translate(786.105263 221.792845) scale(0.1 -0.1)">
      <use xlink:href="#DejaVuSans-4d"/>
      <use xlink:href="#DejaVuSans-61" x="86.279297"/>
      <use xlink:href="#DejaVuSans-73" x="147.558594"/>
      <use xlink:href="#DejaVuSans-6b" x="199.658203"/>
      <use xlink:href="#DejaVuSans-65" x="253.943359"/>
      <use xlink:href="#DejaVuSans-64" x="315.466797"/>
     </g>
    </g>
    <g id="patch_37">
     <path d="M 758.105263 236.47097 
L 778.105263 236.47097 
L 778.105263 229.47097 
L 758.105263 229.47097 
z
" style="fill: #9ecae1; stroke: #ffffff; stroke-linejoin: miter"/>
    </g>
    <g id="text_29">
     <!-- Unmasked -->
     <g transform="translate(786.105263 236.47097) scale(0.1 -0.1)">
      <use xlink:href="#DejaVuSans-55"/>
      <use xlink:href="#DejaVuSans-6e" x="73.193359"/>
      <use xlink:href="#DejaVuSans-6d" x="136.572266"/>
      <use xlink:href="#DejaVuSans-61" x="233.984375"/>
      <use xlink:href="#DejaVuSans-73" x="295.263672"/>
      <use xlink:href="#DejaVuSans-6b" x="347.363281"/>
      <use xlink:href="#DejaVuSans-65" x="401.648438"/>
      <use xlink:href="#DejaVuSans-64" x="463.171875"/>
     </g>
    </g>
    <g id="patch_38">
     <path d="M 758.105263 251.149095 
L 778.105263 251.149095 
L 778.105263 244.149095 
L 758.105263 244.149095 
z
" style="fill: #fd8d3c; stroke: #ffffff; stroke-linejoin: miter"/>
    </g>
    <g id="text_30">
     <!-- Masked -->
     <g transform="translate(786.105263 251.149095) scale(0.1 -0.1)">
      <use xlink:href="#DejaVuSans-4d"/>
      <use xlink:href="#DejaVuSans-61" x="86.279297"/>
      <use xlink:href="#DejaVuSans-73" x="147.558594"/>
      <use xlink:href="#DejaVuSans-6b" x="199.658203"/>
      <use xlink:href="#DejaVuSans-65" x="253.943359"/>
      <use xlink:href="#DejaVuSans-64" x="315.466797"/>
     </g>
    </g>
    <g id="patch_39">
     <path d="M 758.105263 265.82722 
L 778.105263 265.82722 
L 778.105263 258.82722 
L 758.105263 258.82722 
z
" style="fill: #fdae6b; stroke: #ffffff; stroke-linejoin: miter"/>
    </g>
    <g id="text_31">
     <!-- Unmasked -->
     <g transform="translate(786.105263 265.82722) scale(0.1 -0.1)">
      <use xlink:href="#DejaVuSans-55"/>
      <use xlink:href="#DejaVuSans-6e" x="73.193359"/>
      <use xlink:href="#DejaVuSans-6d" x="136.572266"/>
      <use xlink:href="#DejaVuSans-61" x="233.984375"/>
      <use xlink:href="#DejaVuSans-73" x="295.263672"/>
      <use xlink:href="#DejaVuSans-6b" x="347.363281"/>
      <use xlink:href="#DejaVuSans-65" x="401.648438"/>
      <use xlink:href="#DejaVuSans-64" x="463.171875"/>
     </g>
    </g>
    <g id="patch_40">
     <path d="M 758.105263 280.505345 
L 778.105263 280.505345 
L 778.105263 273.505345 
L 758.105263 273.505345 
z
" style="fill: #74c476; stroke: #ffffff; stroke-linejoin: miter"/>
    </g>
    <g id="text_32">
     <!-- Masked -->
     <g transform="translate(786.105263 280.505345) scale(0.1 -0.1)">
      <use xlink:href="#DejaVuSans-4d"/>
      <use xlink:href="#DejaVuSans-61" x="86.279297"/>
      <use xlink:href="#DejaVuSans-73" x="147.558594"/>
      <use xlink:href="#DejaVuSans-6b" x="199.658203"/>
      <use xlink:href="#DejaVuSans-65" x="253.943359"/>
      <use xlink:href="#DejaVuSans-64" x="315.466797"/>
     </g>
    </g>
    <g id="patch_41">
     <path d="M 758.105263 295.18347 
L 778.105263 295.18347 
L 778.105263 288.18347 
L 758.105263 288.18347 
z
" style="fill: #a1d99b; stroke: #ffffff; stroke-linejoin: miter"/>
    </g>
    <g id="text_33">
     <!-- Unmasked -->
     <g transform="translate(786.105263 295.18347) scale(0.1 -0.1)">
      <use xlink:href="#DejaVuSans-55"/>
      <use xlink:href="#DejaVuSans-6e" x="73.193359"/>
      <use xlink:href="#DejaVuSans-6d" x="136.572266"/>
      <use xlink:href="#DejaVuSans-61" x="233.984375"/>
      <use xlink:href="#DejaVuSans-73" x="295.263672"/>
      <use xlink:href="#DejaVuSans-6b" x="347.363281"/>
      <use xlink:href="#DejaVuSans-65" x="401.648438"/>
      <use xlink:href="#DejaVuSans-64" x="463.171875"/>
     </g>
    </g>
   </g>
  </g>
 </g>
</svg>
